<svg width="23" height="19" viewBox="0 0 23 19" fill="none" xmlns="http://www.w3.org/2000/svg">
<path d="M12.3685 0.999956L21.8945 17.5C21.9823 17.652 22.0285 17.8244 22.0285 18C22.0285 18.1755 21.9823 18.3479 21.8945 18.4999C21.8068 18.652 21.6805 18.7782 21.5285 18.866C21.3765 18.9537 21.2041 19 21.0285 19H1.97654C1.801 19 1.62856 18.9537 1.47655 18.866C1.32453 18.7782 1.1983 18.652 1.11053 18.4999C1.02277 18.3479 0.976561 18.1755 0.976563 18C0.976564 17.8244 1.02277 17.652 1.11054 17.5L10.6365 0.999956C10.7243 0.847949 10.8505 0.721722 11.0026 0.633962C11.1546 0.546202 11.327 0.5 11.5025 0.5C11.6781 0.5 11.8505 0.546202 12.0025 0.633962C12.1545 0.721722 12.2808 0.847949 12.3685 0.999956ZM10.5025 14V16H12.5025V14H10.5025ZM10.5025 6.99996V12H12.5025V6.99996H10.5025Z" fill="white"/>
</svg>
