<svg width="27" height="36" viewBox="0 0 27 36" fill="none" xmlns="http://www.w3.org/2000/svg">
<path fill-rule="evenodd" clip-rule="evenodd" d="M26.6491 25.8673C26.769 25.775 26.8296 25.6544 26.8296 25.5338C26.8296 25.4132 26.769 25.2925 26.6479 25.2012C26.4068 25.0174 26.0149 25.0174 25.7739 25.2012L14 34.175L14 1.09303C14 0.771808 13.776 0.511108 13.5 0.511108C13.224 0.511108 13 0.771808 13 1.09303L13 33.6424L1.92491 25.2012C1.68385 25.0174 1.29197 25.0174 1.05091 25.2012C0.809852 25.3849 0.809852 25.6836 1.05091 25.8673L13.0148 34.986C13.0691 35.2391 13.2658 35.4268 13.5 35.4268C13.5511 35.4268 13.6004 35.4178 13.6468 35.4012C13.8636 35.4585 14.1141 35.4212 14.287 35.2894L26.6491 25.8673Z" fill="url(#paint0_linear_391_2277)"/>
<defs>
<linearGradient id="paint0_linear_391_2277" x1="14" y1="35.1172" x2="14" y2="-7.73287" gradientUnits="userSpaceOnUse">
<stop stop-color="#D4D5F2"/>
<stop offset="1" stop-color="#D4D5F2" stop-opacity="0"/>
</linearGradient>
</defs>
</svg>
