<svg width="17" height="18" viewBox="0 0 17 18" fill="none" xmlns="http://www.w3.org/2000/svg">
<path d="M5.66797 5.8335V9.16683L0.667969 5.00016L5.66797 0.833496V4.16683H9.83464C11.6027 4.16683 13.2984 4.86921 14.5487 6.11945C15.7989 7.36969 16.5013 9.06539 16.5013 10.8335C16.5013 12.6016 15.7989 14.2973 14.5487 15.5475C13.2984 16.7978 11.6027 17.5002 9.83464 17.5002H2.33464V15.8335H9.83464C11.1607 15.8335 12.4325 15.3067 13.3702 14.369C14.3079 13.4313 14.8346 12.1596 14.8346 10.8335C14.8346 9.50741 14.3079 8.23564 13.3702 7.29796C12.4325 6.36028 11.1607 5.8335 9.83464 5.8335H5.66797Z" fill="white"/>
</svg>
