<svg width="16" height="16" viewBox="0 0 16 16" fill="none" xmlns="http://www.w3.org/2000/svg">
<path fill-rule="evenodd" clip-rule="evenodd" d="M8.8 0.8C8.8 0.3584 8.4416 0 8 0H0.8C0.3584 0 0 0.3584 0 0.8V8C0 8.4416 0.3584 8.8 0.8 8.8H8C8.4416 8.8 8.8 8.4416 8.8 8V0.8ZM5.2 3.6V2.8C5.2 2.3584 4.8416 2 4.4 2C3.9584 2 3.6 2.3584 3.6 2.8V3.6H2.8C2.3584 3.6 2 3.9584 2 4.4C2 4.8416 2.3584 5.2 2.8 5.2H3.6V6C3.6 6.4416 3.9584 6.8 4.4 6.8C4.8416 6.8 5.2 6.4416 5.2 6V5.2H6C6.4416 5.2 6.8 4.8416 6.8 4.4C6.8 3.9584 6.4416 3.6 6 3.6H5.2Z" fill="#23ADB4"/>
<path fill-rule="evenodd" clip-rule="evenodd" d="M8.8 8C8.8 7.5584 8.4416 7.2 8 7.2H0.8C0.3584 7.2 0 7.5584 0 8V15.2C0 15.6416 0.3584 16 0.8 16H8C8.4416 16 8.8 15.6416 8.8 15.2V8ZM5.5312 11.6L6.0968 11.0344C6.4096 10.7224 6.4096 10.2152 6.0968 9.9032C5.7848 9.5904 5.2776 9.5904 4.9656 9.9032L4.4 10.4688L3.8344 9.9032C3.5224 9.5904 3.0152 9.5904 2.7032 9.9032C2.3904 10.2152 2.3904 10.7224 2.7032 11.0344L3.2688 11.6L2.7032 12.1656C2.3904 12.4776 2.3904 12.9848 2.7032 13.2968C3.0152 13.6096 3.5224 13.6096 3.8344 13.2968L4.4 12.7312L4.9656 13.2968C5.2776 13.6096 5.7848 13.6096 6.0968 13.2968C6.4096 12.9848 6.4096 12.4776 6.0968 12.1656L5.5312 11.6Z" fill="#23ADB4"/>
<path fill-rule="evenodd" clip-rule="evenodd" d="M16 0.8C16 0.3584 15.6416 0 15.2 0H8C7.5584 0 7.2 0.3584 7.2 0.8V8C7.2 8.4416 7.5584 8.8 8 8.8H15.2C15.6416 8.8 16 8.4416 16 8V0.8ZM10 5.2H13.2C13.6416 5.2 14 4.8416 14 4.4C14 3.9584 13.6416 3.6 13.2 3.6H10C9.5584 3.6 9.2 3.9584 9.2 4.4C9.2 4.8416 9.5584 5.2 10 5.2Z" fill="#23ADB4"/>
<path fill-rule="evenodd" clip-rule="evenodd" d="M16 8C16 7.5584 15.6416 7.2 15.2 7.2H8C7.5584 7.2 7.2 7.5584 7.2 8V15.2C7.2 15.6416 7.5584 16 8 16H15.2C15.6416 16 16 15.6416 16 15.2V8ZM10 13.6H13.2C13.6416 13.6 14 13.2416 14 12.8C14 12.3584 13.6416 12 13.2 12H10C9.5584 12 9.2 12.3584 9.2 12.8C9.2 13.2416 9.5584 13.6 10 13.6ZM10 11.2688H13.2C13.6416 11.2688 14 10.9104 14 10.4688C14 10.0272 13.6416 9.6688 13.2 9.6688H10C9.5584 9.6688 9.2 10.0272 9.2 10.4688C9.2 10.9104 9.5584 11.2688 10 11.2688Z" fill="#23ADB4"/>
</svg>
