<svg width="16" height="16" viewBox="0 0 16 16" fill="none" xmlns="http://www.w3.org/2000/svg">
<path d="M8 0C3.55556 0 0 3.55556 0 8C0 12.4444 3.55556 16 8 16C12.4444 16 16 12.4444 16 8C16 3.55556 12.4444 0 8 0ZM12.1778 5.95556L7.28889 11.2889C7.11111 11.4667 6.84444 11.5556 6.66667 11.5556C6.48889 11.5556 6.22222 11.4667 6.04444 11.2889L3.82222 8.88889C3.46667 8.53333 3.55556 8 3.91111 7.64445C4.26667 7.28889 4.8 7.37778 5.15556 7.73333L6.66667 9.42222L10.9333 4.8C11.2889 4.44444 11.8222 4.44444 12.1778 4.71111C12.5333 4.97778 12.5333 5.6 12.1778 5.95556Z" fill="white"/>
</svg>
