<svg width="14" height="14" viewBox="0 0 14 14" fill="none" xmlns="http://www.w3.org/2000/svg">
<path d="M3.66536 3.66683V1.00016C3.66536 0.823352 3.7356 0.653782 3.86063 0.528758C3.98565 0.403734 4.15522 0.333496 4.33203 0.333496H12.9987C13.1755 0.333496 13.3451 0.403734 13.4701 0.528758C13.5951 0.653782 13.6654 0.823352 13.6654 1.00016V9.66683C13.6654 9.84364 13.5951 10.0132 13.4701 10.1382C13.3451 10.2633 13.1755 10.3335 12.9987 10.3335H10.332V12.9955C10.332 13.3662 10.0327 13.6668 9.6607 13.6668H1.00336C0.915179 13.6669 0.827842 13.6496 0.746353 13.6159C0.664863 13.5822 0.590821 13.5328 0.528465 13.4704C0.466108 13.408 0.416662 13.334 0.382955 13.2525C0.349248 13.171 0.331944 13.0837 0.332032 12.9955L0.334032 4.33816C0.334032 3.9675 0.633365 3.66683 1.00536 3.66683H3.66536ZM4.9987 3.66683H9.6607C10.0314 3.66683 10.332 3.96616 10.332 4.33816V9.00016H12.332V1.66683H4.9987V3.66683Z" fill="#98A2E4"/>
</svg>
