<svg width="20" height="20" viewBox="0 0 20 20" fill="#23ADB4" xmlns="http://www.w3.org/2000/svg">
<path d="M13.4623 13.4786C11.8271 15.1138 10.0966 16.6062 8.42969 17.8127C9.74737 18.0826 11.1444 18.0191 12.5097 17.5587C16.3517 16.2728 18.5584 12.3356 17.7964 8.46191C16.5898 10.1289 15.1134 11.8434 13.4623 13.4786Z" fill="#23ADB4"/>
<path d="M17.4632 7.23968C19.6699 4.04866 20.5907 1.39741 19.6064 0.397244C18.7333 -0.491796 16.5107 0.159109 13.78 1.87369C13.8118 1.88956 13.8594 1.90544 13.8912 1.92131C14.1134 2.03244 14.3198 2.14357 14.5262 2.27058C15.5264 1.84193 16.2725 1.76256 16.6218 2.11182C16.9393 2.42934 16.9076 3.06436 16.59 3.8899L16.6218 3.90578L16.2884 4.57256C16.2884 4.58843 16.2725 4.58843 16.2725 4.60431C16.2249 4.69956 16.1773 4.77894 16.1296 4.8742C16.1296 4.8742 16.1296 4.89007 16.1138 4.89007C16.082 4.9377 16.0503 5.0012 16.0185 5.04883C15.9868 5.11233 15.955 5.15996 15.9233 5.22346C15.8756 5.30284 15.828 5.38222 15.7804 5.4616C15.7645 5.49335 15.7327 5.5251 15.7169 5.57273C15.6534 5.66798 15.5899 5.76324 15.5264 5.87437C15.5105 5.89024 15.5105 5.90612 15.4946 5.92199C15.4311 6.03312 15.3517 6.14425 15.2724 6.25538C15.2565 6.27126 15.2565 6.28714 15.2406 6.28714C15.1612 6.39827 15.0818 6.52527 15.0025 6.6364C15.0025 6.65228 14.9866 6.65228 14.9866 6.66815C14.9072 6.77928 14.8278 6.90629 14.7326 7.01742C14.7167 7.03329 14.7167 7.03329 14.7008 7.04917C14.6214 7.1603 14.5262 7.28731 14.4468 7.39844C14.4309 7.41431 14.4309 7.43019 14.4151 7.44606C14.3357 7.55719 14.2404 7.66832 14.1611 7.77945C14.1452 7.79533 14.1293 7.82708 14.1134 7.84296C14.034 7.93821 13.9547 8.04934 13.8594 8.16047C13.8277 8.19222 13.8118 8.22397 13.78 8.25572C13.7007 8.35098 13.6213 8.44623 13.5419 8.54149C13.5101 8.58911 13.4784 8.62087 13.4308 8.66849C13.3514 8.76375 13.272 8.84313 13.2085 8.93838C13.1609 8.98601 13.1291 9.03364 13.0815 9.08126C13.0021 9.16064 12.9386 9.25589 12.8592 9.33527C12.8116 9.3829 12.764 9.4464 12.7164 9.49403C12.637 9.57341 12.5735 9.65279 12.4941 9.73217C12.4465 9.79567 12.383 9.8433 12.3353 9.9068C12.256 10.0021 12.1766 10.0814 12.0972 10.1767C12.0496 10.2243 12.002 10.2719 11.9543 10.3354C11.8591 10.4466 11.7479 10.5418 11.6527 10.653C11.6209 10.6847 11.5892 10.7165 11.5574 10.7641C11.4146 10.907 11.2875 11.0499 11.1447 11.1769C11.0018 11.3197 10.8589 11.4467 10.7319 11.5896C10.6843 11.6373 10.6208 11.6849 10.5731 11.7484C10.4938 11.8278 10.3985 11.9071 10.3191 11.9865C10.2556 12.05 10.1762 12.1135 10.1127 12.177C10.0492 12.2405 9.96986 12.304 9.90636 12.3834C9.84286 12.4469 9.76348 12.5104 9.69998 12.5739C9.63647 12.6374 9.55709 12.7009 9.49359 12.7644C9.43009 12.8279 9.36658 12.8756 9.30308 12.9391C9.2237 13.0026 9.1602 13.0661 9.08082 13.1296C9.01732 13.1772 8.96969 13.2248 8.90619 13.2725C8.82681 13.336 8.74743 13.4153 8.66805 13.4788C8.62043 13.5106 8.5728 13.5582 8.52517 13.59C8.42992 13.6693 8.33466 13.7487 8.25529 13.8122C8.22353 13.844 8.19178 13.8599 8.16003 13.8916C8.06478 13.971 7.95365 14.0504 7.85839 14.1297C7.84252 14.1456 7.81076 14.1615 7.79489 14.1774C7.68376 14.2567 7.57263 14.352 7.4615 14.4314C7.44562 14.4473 7.42975 14.4473 7.42975 14.4631C7.30274 14.5584 7.19161 14.6378 7.08048 14.733C7.08048 14.733 7.06461 14.733 7.06461 14.7489C6.81059 14.9394 6.55658 15.114 6.31845 15.2728C6.19144 15.3522 6.08031 15.4315 5.95331 15.5109L5.93743 15.5268C5.8263 15.5903 5.71517 15.6697 5.60404 15.7332C5.58816 15.7491 5.55641 15.7649 5.54054 15.7649C5.44528 15.8284 5.35003 15.8761 5.25477 15.9237C5.19127 15.9554 5.12777 16.0031 5.06427 16.0348C5.01664 16.0666 4.96901 16.0825 4.92138 16.1142H4.90551C4.81025 16.1618 4.715 16.2095 4.63562 16.2571C4.61975 16.2571 4.61975 16.273 4.60387 16.273L3.93709 16.6064L3.90534 16.5746C3.06393 16.8921 2.44477 16.9239 2.12726 16.6064C1.77799 16.2571 1.85737 15.4951 2.28601 14.5108C2.15901 14.3044 2.04788 14.0821 1.93675 13.8599C1.92087 13.8281 1.905 13.7805 1.88912 13.7487C0.158669 16.4952 -0.492236 18.7178 0.396804 19.6069C1.3811 20.5912 4.04822 19.6704 7.22336 17.4795C8.96969 16.273 10.8907 14.6695 12.764 12.7803C14.6532 10.907 16.2566 8.98601 17.4632 7.23968Z" fill="#23ADB4"/>
<path d="M2.46052 12.5261C2.49227 12.6055 2.52402 12.6849 2.5399 12.7643C2.61927 13.0024 2.71453 13.2247 2.82566 13.4469C3.00029 13.7962 3.1908 14.1455 3.39718 14.463C3.61944 14.7964 3.87346 15.1139 4.14334 15.3996C4.2386 15.352 4.33385 15.3044 4.42911 15.2568C6.15956 14.3201 8.35041 12.5896 10.4778 10.4782C12.5892 8.3667 14.3356 6.15998 15.2563 4.4454C15.304 4.35015 15.3675 4.23902 15.3992 4.15964C15.0976 3.88975 14.7959 3.63574 14.4626 3.41348C14.145 3.19122 13.8117 3.00071 13.4624 2.82608C13.2401 2.71495 13.0179 2.61969 12.7956 2.54032C12.3987 2.39743 11.9859 2.27043 11.5573 2.19105C10.2396 1.93704 8.85843 2.00054 7.49312 2.44506C3.63532 3.73099 1.42859 7.6523 2.19063 11.526C2.25413 11.8594 2.34939 12.1928 2.46052 12.5261Z" fill="#23ADB4"/>
</svg>
