<svg width="23" height="17" viewBox="0 0 23 17" fill="none" xmlns="http://www.w3.org/2000/svg">
<path d="M19.1956 1.42375C17.7741 0.758625 16.254 0.275242 14.6649 0C14.4697 0.352851 14.2417 0.827443 14.0845 1.20498C12.3952 0.95093 10.7215 0.95093 9.06324 1.20498C8.90606 0.827443 8.67288 0.352851 8.47597 0C6.88511 0.275242 5.36335 0.760401 3.94177 1.42727C1.07443 5.76019 0.297143 9.98549 0.685788 14.1508C2.58756 15.571 4.4306 16.4337 6.24254 16.9983C6.68992 16.3825 7.08892 15.728 7.43265 15.0382C6.778 14.7895 6.15099 14.4825 5.55854 14.1261C5.71572 14.0097 5.86946 13.8879 6.01799 13.7627C9.63151 15.4528 13.5577 15.4528 17.1281 13.7627C17.2783 13.8879 17.432 14.0097 17.5875 14.1261C16.9933 14.4842 16.3646 14.7912 15.7099 15.04C16.0537 15.728 16.4509 16.3843 16.9 17C18.7137 16.4355 20.5585 15.5728 22.4603 14.1508C22.9163 9.32214 21.6812 5.13565 19.1956 1.42375ZM7.92494 11.5892C6.8402 11.5892 5.95062 10.5765 5.95062 9.34331C5.95062 8.11012 6.8212 7.0957 7.92494 7.0957C9.02871 7.0957 9.91826 8.10835 9.89926 9.34331C9.90098 10.5765 9.02871 11.5892 7.92494 11.5892ZM15.2211 11.5892C14.1364 11.5892 13.2468 10.5765 13.2468 9.34331C13.2468 8.11012 14.1173 7.0957 15.2211 7.0957C16.3248 7.0957 17.2144 8.10835 17.1954 9.34331C17.1954 10.5765 16.3248 11.5892 15.2211 11.5892Z" fill="#7A88B6"/>
</svg>
