<svg width="31" height="25" viewBox="0 0 31 25" fill="none" xmlns="http://www.w3.org/2000/svg">
<path d="M25.9129 2.50999C23.9709 1.571 21.8945 0.888577 19.7236 0.5C19.457 0.998142 19.1455 1.66815 18.9308 2.20115C16.6231 1.84249 14.3367 1.84249 12.0714 2.20115C11.8567 1.66815 11.5382 0.998142 11.2692 0.5C9.09601 0.888577 7.01719 1.57351 5.07524 2.51497C1.1583 8.63203 0.0964861 14.5972 0.627396 20.4776C3.22531 22.4826 5.74301 23.7005 8.21822 24.4975C8.82936 23.6283 9.37442 22.7042 9.84397 21.7304C8.94969 21.3792 8.09316 20.9459 7.28384 20.4427C7.49855 20.2783 7.70857 20.1065 7.91148 19.9296C12.8477 22.3157 18.2111 22.3157 23.0884 19.9296C23.2937 20.1065 23.5037 20.2783 23.7161 20.4427C22.9044 20.9483 22.0455 21.3817 21.1512 21.7329C21.6207 22.7042 22.1635 23.6308 22.7769 24.5C25.2545 23.703 27.7746 22.4851 30.3725 20.4776C30.9954 13.6607 29.3083 7.75033 25.9129 2.50999ZM10.5165 16.8612C9.03465 16.8612 7.81944 15.4315 7.81944 13.6906C7.81944 11.9496 9.0087 10.5175 10.5165 10.5175C12.0243 10.5175 13.2394 11.9471 13.2135 13.6906C13.2158 15.4315 12.0243 16.8612 10.5165 16.8612ZM20.4834 16.8612C19.0016 16.8612 17.7864 15.4315 17.7864 13.6906C17.7864 11.9496 18.9756 10.5175 20.4834 10.5175C21.9912 10.5175 23.2064 11.9471 23.1805 13.6906C23.1805 15.4315 21.9912 16.8612 20.4834 16.8612Z" fill="white"/>
</svg>
