<svg width="36" height="27" viewBox="0 0 36 27" fill="none" xmlns="http://www.w3.org/2000/svg">
<path d="M30.2452 2.26124C27.9874 1.20487 25.5733 0.43715 23.0493 0C22.7394 0.56041 22.3772 1.31417 22.1276 1.91379C19.4446 1.5103 16.7862 1.5103 14.1526 1.91379C13.9029 1.31417 13.5326 0.56041 13.2198 0C10.6932 0.43715 8.27628 1.2077 6.01848 2.26684C1.46447 9.14854 0.229953 15.8593 0.847213 22.4748C3.86767 24.7304 6.79485 26.1006 9.67264 26.9972C10.3832 26.0193 11.0169 24.9798 11.5628 23.8842C10.5231 23.4891 9.52724 23.0016 8.58629 22.4356C8.83592 22.2506 9.0801 22.0573 9.31601 21.8583C15.0551 24.5427 21.2908 24.5427 26.9614 21.8583C27.2001 22.0573 27.4442 22.2506 27.6911 22.4356C26.7474 23.0044 25.7488 23.4919 24.7091 23.887C25.255 24.9798 25.886 26.0221 26.5993 27C29.4798 26.1034 32.4097 24.7332 35.4302 22.4748C36.1544 14.8058 34.1929 8.15662 30.2452 2.26124ZM12.3447 18.4063C10.6219 18.4063 9.209 16.798 9.209 14.8394C9.209 12.8808 10.5917 11.2696 12.3447 11.2696C14.0977 11.2696 15.5105 12.878 15.4804 14.8394C15.4831 16.798 14.0977 18.4063 12.3447 18.4063ZM23.9327 18.4063C22.2099 18.4063 20.797 16.798 20.797 14.8394C20.797 12.8808 22.1797 11.2696 23.9327 11.2696C25.6857 11.2696 27.0986 12.878 27.0684 14.8394C27.0684 16.798 25.6857 18.4063 23.9327 18.4063Z" fill="url(#paint0_linear_396_5893)"/>
<defs>
<linearGradient id="paint0_linear_396_5893" x1="35.5784" y1="27" x2="-3.19905" y2="19.0758" gradientUnits="userSpaceOnUse">
<stop stop-color="#22B5B6"/>
<stop offset="1" stop-color="#280C86"/>
</linearGradient>
</defs>
</svg>
