<svg width="4" height="19" viewBox="0 0 4 19" fill="none" xmlns="http://www.w3.org/2000/svg">
<path d="M2 0.0610352C0.9 0.0610352 0 0.961035 0 2.06104C0 3.16104 0.9 4.06104 2 4.06104C3.1 4.06104 4 3.16104 4 2.06104C4 0.961035 3.1 0.0610352 2 0.0610352ZM2 14.061C0.9 14.061 0 14.961 0 16.061C0 17.161 0.9 18.061 2 18.061C3.1 18.061 4 17.161 4 16.061C4 14.961 3.1 14.061 2 14.061ZM2 7.06104C0.9 7.06104 0 7.96104 0 9.06104C0 10.161 0.9 11.061 2 11.061C3.1 11.061 4 10.161 4 9.06104C4 7.96104 3.1 7.06104 2 7.06104Z" fill="#F7FCFD"/>
</svg>
