<svg width="35" height="35" viewBox="0 0 35 35" fill="none" xmlns="http://www.w3.org/2000/svg">
<path d="M3.65869 27.5112L10.3383 20.8316L15.1711 25.6627L22.9799 17.8557L26.043 20.917V12.3753H17.5013L20.5644 15.4384L15.1711 20.8316L10.34 15.9987L1.89057 24.4481C0.916694 22.2615 0.414915 19.894 0.417983 17.5003C0.417983 8.0652 8.06619 0.416992 17.5013 0.416992C26.9364 0.416992 34.5846 8.0652 34.5846 17.5003C34.5846 26.9354 26.9364 34.5837 17.5013 34.5837C14.7987 34.5854 12.1344 33.9451 9.72773 32.7155C7.32107 31.4859 5.24095 29.7021 3.65869 27.5112Z" fill="url(#paint0_linear_5259_56962)"/>
<defs>
<linearGradient id="paint0_linear_5259_56962" x1="0.417969" y1="17.5003" x2="34.5846" y2="17.5003" gradientUnits="userSpaceOnUse">
<stop stop-color="#273592"/>
<stop offset="1" stop-color="#23ADB4"/>
</linearGradient>
</defs>
</svg>
