<svg width="56" height="53" viewBox="0 0 56 53" fill="none" xmlns="http://www.w3.org/2000/svg">
<path d="M27.8008 26.8701C23.3563 26.8701 19.8008 30.4257 19.8008 34.8701C19.8008 39.3146 23.3563 42.8701 27.8008 42.8701C32.2452 42.8701 35.8008 39.3146 35.8008 34.8701C35.8008 30.4257 32.2452 26.8701 27.8008 26.8701ZM31.9786 32.8257L27.0897 38.159C26.9119 38.3368 26.6452 38.4257 26.4674 38.4257C26.2897 38.4257 26.023 38.3368 25.8452 38.159L23.623 35.759C23.2674 35.4035 23.3563 34.8701 23.7119 34.5146C24.0674 34.159 24.6008 34.2479 24.9563 34.6035L26.4674 36.2923L30.7341 31.6701C31.0897 31.3146 31.623 31.3146 31.9786 31.5812C32.3341 31.8479 32.3341 32.4701 31.9786 32.8257Z" fill="#23ADB4"/>
<path d="M13.3408 44.5401C13.2858 44.4851 13.2308 44.4301 13.2308 44.3751V40.6351C13.6708 40.3051 14.0008 39.8101 14.0008 39.2051V35.3551C14.0008 33.4301 12.4608 31.8901 10.5358 31.8901H10.0958H9.65578C7.73078 31.8901 6.19078 33.4301 6.19078 35.3551V39.2051C6.19078 39.8101 6.52078 40.3601 6.96078 40.6351V44.3751C7.07078 44.4301 7.01578 44.4851 6.96078 44.5401C6.41078 44.8151 3.88078 46.0801 1.46078 48.0601C1.02078 48.3901 0.800781 48.9401 0.800781 49.4901V52.1301H10.1508H19.5008V49.4901C19.5008 48.9401 19.2258 48.3901 18.8408 48.0601C16.4758 46.0801 13.8908 44.8151 13.3408 44.5401ZM37.4308 18.4701C37.4308 17.9201 37.2108 17.3701 36.7708 17.0401C34.3508 15.0601 31.8208 13.7951 31.2708 13.5201C31.2158 13.4651 31.1608 13.4101 31.1608 13.3551V9.61512C31.6008 9.34012 31.9308 8.79012 31.9308 8.18512V4.33512C31.9308 2.41012 30.3908 0.870117 28.4658 0.870117H28.0258H27.6408C25.7158 0.870117 24.1758 2.41012 24.1758 4.33512V8.18512C24.1758 8.79012 24.5058 9.28512 24.9458 9.61512V13.3551C24.9458 13.4101 24.8908 13.4651 24.8358 13.5201C24.2858 13.7951 21.7008 15.0601 19.3358 17.0401C18.9508 17.3701 18.6758 17.9201 18.6758 18.4701V21.1101H28.0258H37.4308V18.4701ZM54.5358 48.0601C52.1708 46.0801 49.5858 44.8151 49.0358 44.5401C48.9808 44.4851 48.9258 44.4301 48.9258 44.3751V40.6351C49.3658 40.3051 49.6958 39.8101 49.6958 39.2051V35.3551C49.6958 33.4301 48.1558 31.8901 46.2308 31.8901H45.7908H45.3508C43.4258 31.8901 41.8858 33.4301 41.8858 35.3551V39.2051C41.9958 39.8101 42.2708 40.3051 42.7658 40.6351V44.3751C42.7658 44.4301 42.7108 44.4851 42.6558 44.5401C42.1058 44.8151 39.5758 46.0801 37.1558 48.0601C36.7158 48.3901 36.4958 48.9401 36.4958 49.4901V52.1301H45.8458H55.1958V49.4901C55.1958 48.9401 54.9208 48.3901 54.5358 48.0601Z" fill="#CCD1F1"/>
</svg>
