<svg width="52" height="49" viewBox="0 0 52 49" fill="none" xmlns="http://www.w3.org/2000/svg">
<path fill-rule="evenodd" clip-rule="evenodd" d="M51.7427 12.8315H52V48.6023H3.25271L3.25325 41.0248H3.38866L3.25 40.8591L13.3607 30.2452L22.5187 34.7819L31.8403 24.6891L40.3445 29.1949L51.7427 12.8315Z" fill="#CCD1F1"/>
<path fill-rule="evenodd" clip-rule="evenodd" d="M14.4178 14.8764C14.0668 14.0125 12.9939 13.7612 12.1587 13.5142C11.2162 13.2353 10.2359 12.9861 9.42556 12.4266C7.01149 10.7611 7.18048 6.73185 9.97695 5.51208C10.2624 5.38805 10.5641 5.30409 10.8701 5.23964L10.6155 3.26646H13.6384L13.3795 5.27322C13.8827 5.38913 14.368 5.56787 14.7981 5.83977C15.7064 6.41445 16.1993 7.33361 16.4148 8.31613L14.0008 8.7944C13.8849 8.45154 13.7007 8.13198 13.4136 7.90178C13.0778 7.63313 12.6326 7.50964 12.1933 7.49556C11.4074 7.4701 10.3816 7.67375 10.082 8.46509C9.91574 8.90327 10.0279 9.41133 10.3626 9.74985C10.6632 10.0526 11.3917 10.3684 12.5497 10.6966C13.7077 11.0249 14.5641 11.3645 15.1192 11.7154C15.6739 12.0664 16.1083 12.5463 16.4219 13.1546C17.353 14.962 16.9716 17.6485 15.2628 18.9344C14.7282 19.3363 14.0853 19.5892 13.4153 19.7225L13.6384 21.4541H10.6155L10.8457 19.6699C10.2061 19.5107 9.6043 19.235 9.10329 18.8255C8.14459 18.0418 7.64737 16.8724 7.42042 15.6797L9.7213 15.1597C9.91954 16.3946 10.8371 17.3701 12.1966 17.3701C12.9625 17.3701 13.5404 17.1757 13.9293 16.7857C14.4254 16.2885 14.6859 15.5362 14.4178 14.8764ZM12.1684 24.7342C18.8885 24.7342 24.3368 19.2864 24.3368 12.5664C24.3368 5.84573 18.8885 0.397949 12.1684 0.397949C5.44832 0.397949 0 5.84573 0 12.5664C0 19.2864 5.44832 24.7342 12.1684 24.7342Z" fill="#23ADB4"/>
</svg>
