<svg width="27" height="27" viewBox="0 0 27 27" fill="none" xmlns="http://www.w3.org/2000/svg">
<path d="M13.5 0C6 0 0 6 0 13.5C0 21 6 27 13.5 27C21 27 27 21 27 13.5C27 6 21 0 13.5 0ZM13.5 21C13.5 21 12.9 21.45 12.45 21.45C12.3 21.45 12.3 21.45 12.15 21.45H12C11.25 21.3 10.8 20.55 11.1 19.8L12.15 15.6L12.6 13.65C13.05 11.85 11.25 13.95 10.8 13.2C10.5 12.6 12.15 11.55 13.5 10.65C13.5 10.65 14.1 10.2 14.55 10.2C14.7 10.2 14.7 10.2 14.85 10.2H15C15.75 10.35 16.2 11.1 16.05 11.85L15 16.05L14.55 18C14.1 19.8 15.9 17.55 16.35 18.45C16.35 19.05 14.7 20.25 13.5 21ZM16.05 7.95C15.75 9 14.7 9.6 13.65 9.3C12.6 9 12 7.95 12.15 6.9C12.45 5.85 13.5 5.25 14.55 5.55C15.75 5.85 16.35 6.9 16.05 7.95Z" fill="#23ADB4"/>
</svg>
