<svg width="78" height="78" viewBox="0 0 78 78" fill="none" xmlns="http://www.w3.org/2000/svg">
<path d="M76.6961 61.875L47.0484 5.25C45.3237 1.96875 42.2851 0 39 0C35.7149 0 32.6763 1.96875 30.9516 5.15625L1.30395 61.875C-0.42071 65.1563 -0.42071 69.1875 1.22182 72.5625C2.86435 75.9375 5.90303 78 9.35234 78H68.6477C72.0148 78 75.0535 75.9375 76.7782 72.5625C78.4207 69.1875 78.4207 65.1563 76.6961 61.875ZM35.2222 27C35.2222 24.6563 36.9468 22.6875 39 22.6875C41.0532 22.6875 42.7778 24.6563 42.7778 27V44.9063C42.7778 47.25 41.0532 49.2188 39 49.2188C36.9468 49.2188 35.2222 47.25 35.2222 44.9063V27ZM39 64.2188C36.4541 64.2188 34.4009 61.875 34.4009 58.9688C34.4009 56.0625 36.4541 53.7187 39 53.7187C41.5459 53.7187 43.5991 56.0625 43.5991 58.9688C43.5991 61.875 41.5459 64.2188 39 64.2188Z" fill="#FDA095"/>
</svg>
