<svg width="78" height="78" viewBox="0 0 78 78" fill="none" xmlns="http://www.w3.org/2000/svg">
<path d="M10.6048 23.0098H6.41406V10.6102C6.41406 8.29616 8.29315 6.41943 10.6048 6.41943H23.0044V10.6102H10.6048V23.0098Z" fill="#6574D6"/>
<path d="M71.5747 23.0098H67.384V10.6102H54.9844V6.41943H67.384C69.698 6.41943 71.5747 8.29852 71.5747 10.6102V23.0098Z" fill="#6574D6"/>
<path d="M23.0044 71.5806H10.6048C8.29079 71.5806 6.41406 69.7015 6.41406 67.3899V54.9902H10.6048V67.3899H23.0044V71.5806Z" fill="#6574D6"/>
<path d="M67.384 71.5806H54.9844V67.3899H67.384V54.9902H71.5747V67.3899C71.5747 69.7015 69.6956 71.5806 67.384 71.5806Z" fill="#6574D6"/>
<path d="M16.6604 25.9432C16.4075 25.9432 16.1428 25.8841 15.9135 25.7305C15.2588 25.3145 15.0602 24.4517 15.4739 23.797C15.8119 23.2534 23.9688 10.5488 37.8315 10.5488C37.8362 10.5488 37.8315 10.5488 37.8315 10.5488C49.8955 10.5488 56.3671 19.403 56.6342 19.7717C57.0809 20.4005 56.9391 21.2774 56.3057 21.7288C55.6817 22.185 54.8048 22.0432 54.3486 21.4145C54.2895 21.3317 48.4111 13.3639 37.8315 13.3639C25.5051 13.3639 17.925 25.1726 17.8517 25.2932C17.5822 25.7163 17.126 25.9432 16.6604 25.9432Z" fill="#6574D6"/>
<path d="M16.9928 34.7972C16.8178 34.7972 16.6429 34.7689 16.4704 34.6956C15.7495 34.4049 15.3997 33.587 15.6857 32.8685C15.7589 32.6983 23.5235 15.9165 37.9842 15.9165C49.254 15.9165 54.3642 24.929 54.5769 25.3167C54.9504 25.995 54.7022 26.8483 54.0238 27.2241C53.3455 27.6 52.4922 27.3494 52.1164 26.6758C51.9178 26.3165 47.5404 18.7269 37.9842 18.7269C25.5018 18.7269 18.3589 33.7572 18.2998 33.9203C18.0777 34.464 17.5529 34.7972 16.9928 34.7972Z" fill="#6574D6"/>
<path d="M50.4127 67.4485C50.2472 67.4485 50.0794 67.4154 49.914 67.3563C49.6658 67.2594 43.7189 64.9454 41.516 58.2752C40.4594 55.0725 39.6747 54.8811 39.67 54.8811C39.0791 54.7321 37.4623 56.7034 36.5807 57.7434C36.0442 58.3816 35.4816 59.0363 34.9002 59.6556C30.3951 64.4467 25.3203 65.6616 25.1029 65.7042C24.3465 65.8885 23.5925 65.4134 23.4176 64.6523C23.2474 63.9007 23.7178 63.1467 24.4694 62.9718C24.512 62.9623 28.9603 61.8727 32.8533 57.7316C33.4016 57.1454 33.9287 56.5261 34.4416 55.9258C36.2876 53.7512 38.0367 51.6925 40.2042 52.1274C41.8611 52.4512 43.0854 54.0751 44.1798 57.4031C45.9667 62.804 50.8594 64.7067 50.9114 64.7303C51.6371 65.0022 52.0011 65.8105 51.7245 66.5456C51.5165 67.1034 50.98 67.4485 50.4127 67.4485Z" fill="#6574D6"/>
<path d="M74.7195 41.0941H3.27623C2.11805 41.0941 1.17969 40.1581 1.17969 38.9976C1.17969 37.837 2.11569 36.9058 3.27623 36.9058H74.7219C75.8753 36.9058 76.8184 37.8394 76.8184 38.9976C76.8184 40.1558 75.8753 41.0941 74.7195 41.0941Z" fill="#6574D6"/>
<path d="M60.8718 34.7974H63.7388C62.557 27.4748 59.5008 23.4732 59.2787 23.1966C58.7941 22.5868 57.9125 22.4852 57.3074 22.9697C56.6976 23.4495 56.5959 24.3359 57.0758 24.941C57.123 25.0001 59.7443 28.4037 60.8718 34.7974Z" fill="#6574D6"/>
<path d="M61.2671 43.2026C61.0401 46.6937 60.3381 50.6268 58.8396 55.0397C58.5914 55.7701 58.9885 56.5714 59.7212 56.8219C59.8701 56.8715 60.0214 56.8905 60.168 56.8905C60.7541 56.8905 61.3025 56.5265 61.501 55.9355C63.1131 51.1988 63.86 46.9561 64.1011 43.2026H61.2671Z" fill="#6574D6"/>
<path d="M30.6968 34.7973C31.0254 34.2655 31.3563 33.736 31.6257 33.242C33.4812 29.7604 37.0928 28.9024 39.5014 30.0842C40.955 30.7957 42.0966 32.3651 41.9572 34.7973H44.7723C44.9377 31.1124 42.9854 28.666 40.7423 27.5622C37.1283 25.7942 31.8054 26.9335 29.1463 31.9113C28.6665 32.8119 28.0425 33.7904 27.3594 34.7973H30.6968Z" fill="#6574D6"/>
<path d="M14.8301 49.7168C14.2865 50.2746 14.2983 51.161 14.8538 51.707C15.4069 52.2435 16.298 52.2388 16.844 51.6786C17.0969 51.421 20.718 47.6817 24.4667 43.2026H20.7676C17.6145 46.8403 14.8869 49.6625 14.8301 49.7168Z" fill="#6574D6"/>
<path d="M20.4916 60.105C19.8369 60.5116 19.6384 61.379 20.052 62.0338C20.3144 62.4592 20.7729 62.6885 21.2385 62.6885C21.4962 62.6885 21.7562 62.6199 21.9902 62.4757C27.4738 59.0177 36.5785 51.0405 41.5374 43.2026H38.1811C33.3404 50.1423 25.4033 57.0063 20.4916 60.105Z" fill="#6574D6"/>
<path d="M54.9398 43.2026H52.0963C51.8883 44.2285 51.6259 45.2425 51.3447 46.2352C50.593 48.8754 49.8201 51.5959 50.5741 54.2904C51.9781 59.3273 56.1972 60.9204 56.3816 60.989C56.5376 61.0433 56.7007 61.0717 56.8614 61.0717C57.4334 61.0717 57.9699 60.7172 58.1827 60.1523C58.445 59.4172 58.0716 58.6159 57.3436 58.3464C57.3152 58.3323 54.3016 57.1977 53.2805 53.5412C52.7392 51.603 53.3443 49.4734 54.0463 47.0034C54.3819 45.8215 54.7058 44.5381 54.9398 43.2026Z" fill="#6574D6"/>
<path d="M17.1494 56.0325C16.5159 56.4793 16.3646 57.3585 16.8114 57.9896C17.0832 58.3773 17.5228 58.5853 17.9601 58.5853C18.2414 58.5853 18.5226 58.5025 18.7685 58.3324C25.0557 53.9005 30.0454 47.8945 33.371 43.2051H29.8681C26.715 47.4147 22.3754 52.3476 17.1494 56.0325Z" fill="#6574D6"/>
<path d="M53.4189 64.4658C53.6316 64.5864 53.8632 64.6313 54.0878 64.6313C54.5865 64.6313 55.071 64.3689 55.3239 63.8962C55.6879 63.2131 55.435 62.3598 54.7519 61.9887C46.231 57.4009 46.4461 48.7997 47.6989 43.2002H44.8909C43.631 49.6387 43.728 59.2446 53.4189 64.4658Z" fill="#6574D6"/>
<path d="M23.34 34.7975C23.3826 34.7384 23.418 34.6769 23.4558 34.6179C26.7602 29.1791 30.7831 24.1517 37.7771 24.1517C43.3624 24.1517 49.2171 27.5128 51.4933 34.7975H54.4336C51.9353 25.6053 44.4757 21.3413 37.7771 21.3413C29.3744 21.3413 24.6117 27.3142 21.0567 33.1595C20.7282 33.7008 20.35 34.2539 19.9766 34.7975H23.34Z" fill="#6574D6"/>
<path d="M55.8459 34.7972H58.772C57.9353 31.6063 56.7511 29.8525 56.64 29.7012C56.1933 29.0631 55.3188 28.9118 54.6877 29.3561C54.0495 29.8029 53.8935 30.6774 54.3426 31.3132C54.3639 31.3392 55.1675 32.54 55.8459 34.7972Z" fill="#6574D6"/>
<path d="M56.7187 43.2026C56.5485 45.8334 55.9978 48.8754 54.8112 52.3145C54.5583 53.0495 54.9507 53.8461 55.6787 54.1014C55.83 54.151 55.9883 54.1746 56.1396 54.1746C56.721 54.1746 57.267 53.8106 57.4656 53.2339C58.7727 49.4615 59.3683 46.1099 59.5385 43.2026H56.7187Z" fill="#6574D6"/>
</svg>
