<svg width="74" height="78" viewBox="0 0 74 78" fill="none" xmlns="http://www.w3.org/2000/svg">
<path d="M31.6433 0.00160919C31.0837 0.0310603 30.5485 0.240581 30.1177 0.598935C29.6869 0.95729 29.3834 1.44529 29.2525 1.99018C29.1216 2.53507 29.1703 3.10767 29.3913 3.62263C29.6124 4.13758 29.9939 4.56731 30.4791 4.84774L31.7786 5.63287C14.1873 8.18004 0.617188 23.3271 0.617188 41.6134C0.617188 61.6784 16.9388 78 37.0038 78C57.0688 78 73.3904 61.6784 73.3904 41.6134C73.3904 32.7782 70.2574 24.6169 64.9977 18.3032C64.7871 18.0215 64.5215 17.7854 64.217 17.6093C63.9125 17.4332 63.5755 17.3207 63.2262 17.2786C62.877 17.2366 62.5229 17.2659 62.1853 17.3647C61.8477 17.4636 61.5337 17.6299 61.2623 17.8536C60.9909 18.0774 60.7677 18.3539 60.6062 18.6664C60.4448 18.9789 60.3485 19.3209 60.3231 19.6718C60.2977 20.0226 60.3438 20.3749 60.4586 20.7074C60.5734 21.0399 60.7544 21.3457 60.9908 21.6062C65.491 27.0082 68.1923 34.008 68.1923 41.6134C68.1923 58.8691 54.2595 72.8019 37.0038 72.8019C19.7481 72.8019 5.81528 58.8691 5.81528 41.6134C5.81528 26.8422 16.0386 14.5104 29.8023 11.2641C29.3208 11.7189 29.0311 12.3404 28.9923 13.0016C28.9536 13.6627 29.1687 14.3138 29.5937 14.8217C30.0187 15.3297 30.6216 15.6562 31.2793 15.7347C31.9369 15.8132 32.5997 15.6376 33.1323 15.2439L41.7958 10.0458C42.1767 9.81387 42.4915 9.48782 42.7099 9.09902C42.9284 8.71023 43.0431 8.27177 43.0431 7.82582C43.0431 7.37986 42.9284 6.9414 42.7099 6.55261C42.4915 6.16381 42.1767 5.83776 41.7958 5.6058L33.1323 0.40771C32.6885 0.124706 32.1693 -0.0169053 31.6433 0.00160919ZM37.0038 17.3556C23.6374 17.3556 12.7461 28.247 12.7461 41.6134C12.7461 54.9798 23.6374 65.8711 37.0038 65.8711C50.3702 65.8711 61.2615 54.9798 61.2615 41.6134C61.2615 28.247 50.3702 17.3556 37.0038 17.3556ZM37.0038 22.5537C47.5609 22.5537 56.0635 31.0562 56.0635 41.6134C56.0635 52.1705 47.5609 60.673 37.0038 60.673C26.4467 60.673 17.9441 52.1705 17.9441 41.6134C17.9441 31.0562 26.4467 22.5537 37.0038 22.5537ZM36.9767 25.965C36.8861 25.9693 36.7957 25.9783 36.706 25.9921C36.0648 26.066 35.4741 26.3758 35.0488 26.8612C34.6234 27.3466 34.3939 27.9729 34.4048 28.6182V41.6134C34.4034 42.0762 34.5256 42.5311 34.7588 42.9309C34.992 43.3307 35.3278 43.6609 35.7314 43.8876L43.5285 48.2193C43.8271 48.3864 44.1558 48.4931 44.4957 48.5332C44.8355 48.5733 45.18 48.5461 45.5093 48.4531C45.8387 48.3601 46.1465 48.2031 46.4152 47.9912C46.6839 47.7792 46.9082 47.5164 47.0753 47.2177C47.2424 46.919 47.3491 46.5904 47.3891 46.2505C47.4292 45.9106 47.402 45.5662 47.3089 45.2368C47.2159 44.9075 47.0589 44.5997 46.8469 44.331C46.6349 44.0623 46.3721 43.838 46.0734 43.671L39.6028 40.0702V28.6182C39.6101 28.27 39.5473 27.924 39.4182 27.6006C39.2892 27.2772 39.0964 26.9831 38.8515 26.7356C38.6065 26.4881 38.3144 26.2924 37.9923 26.16C37.6703 26.0276 37.3249 25.9613 36.9767 25.965Z" fill="#6574D6"/>
</svg>
