<svg width="78" height="78" viewBox="0 0 78 78" fill="none" xmlns="http://www.w3.org/2000/svg">
<path d="M39 0C17.3333 0 0 17.3333 0 39C0 60.6667 17.3333 78 39 78C60.6667 78 78 60.6667 78 39C78 17.3333 60.6667 0 39 0ZM59.3667 29.0333L35.5333 55.0333C34.6667 55.9 33.3667 56.3333 32.5 56.3333C31.6333 56.3333 30.3333 55.9 29.4667 55.0333L18.6333 43.3333C16.9 41.6 17.3333 39 19.0667 37.2667C20.8 35.5333 23.4 35.9667 25.1333 37.7L32.5 45.9333L53.3 23.4C55.0333 21.6667 57.6333 21.6667 59.3667 22.9667C61.1 24.2667 61.1 27.3 59.3667 29.0333Z" fill="#31B79F"/>
</svg>
