<svg width="180" height="39" viewBox="0 0 180 39" fill="none" xmlns="http://www.w3.org/2000/svg">
<path d="M136.076 22.5416H133.152C132.926 22.5359 132.711 22.4447 132.551 22.2869C132.39 22.1292 132.298 21.9168 132.292 21.6937V21.0155C132.298 20.7924 132.39 20.5801 132.551 20.4223C132.711 20.2646 132.926 20.1734 133.152 20.1677H135.652C135.88 20.1677 136.098 20.0783 136.26 19.9194C136.421 19.7604 136.511 19.5447 136.511 19.3198C136.511 19.095 136.421 18.8793 136.26 18.7203C136.098 18.5614 135.88 18.472 135.652 18.472H133.129C132.903 18.4663 132.688 18.3751 132.528 18.2173C132.367 18.0596 132.275 17.8473 132.269 17.6242V16.9459C132.275 16.7229 132.367 16.5105 132.528 16.3527C132.688 16.195 132.903 16.1038 133.129 16.0981H135.996C136.224 16.0981 136.442 16.0088 136.604 15.8498C136.765 15.6908 136.855 15.4751 136.855 15.2503C136.855 15.0254 136.765 14.8098 136.604 14.6508C136.442 14.4918 136.224 14.4025 135.996 14.4025H132.556C132.422 14.3998 132.291 14.4436 132.186 14.5262C132.081 14.6088 132.01 14.725 131.983 14.8546L130.148 23.3894V23.559C130.181 23.7571 130.287 23.9363 130.446 24.0617C130.605 24.187 130.805 24.2496 131.008 24.2372H136.053C136.281 24.2372 136.499 24.1479 136.661 23.9889C136.822 23.8299 136.913 23.6143 136.913 23.3894C136.913 23.1646 136.822 22.9489 136.661 22.7899C136.499 22.6309 136.281 22.5416 136.053 22.5416H136.076Z" fill="white"/>
<path d="M72.4467 14.459H71.3002C71.1317 14.4611 70.9666 14.5099 70.825 14.5999C70.6828 14.6898 70.5699 14.8173 70.4977 14.9677L67.9754 20.959C67.9754 20.974 67.9691 20.9884 67.9587 20.999C67.9478 21.0096 67.9335 21.0155 67.918 21.0155C67.8607 21.0155 67.8607 21.0155 67.8607 20.959L65.3384 14.9677C65.2771 14.8148 65.1785 14.679 65.0518 14.572C64.8225 14.4025 64.5359 14.6286 64.4785 14.9112L62.5868 23.559C62.5719 23.6569 62.592 23.7569 62.6441 23.8416C62.7129 23.9783 62.819 24.0931 62.9508 24.1731C63.0827 24.253 63.2346 24.2948 63.3894 24.2938H63.7333C63.9557 24.2825 64.165 24.1889 64.3203 24.0316C64.4757 23.8744 64.5645 23.6653 64.5703 23.446V17.9068C64.5703 17.8918 64.5766 17.8774 64.5869 17.8669C64.5978 17.8563 64.6121 17.8503 64.6276 17.8503C64.6431 17.8503 64.6574 17.8563 64.6683 17.8669C64.6786 17.8774 64.6849 17.8918 64.6849 17.9068L67.0352 23.7286C67.0977 23.8859 67.2089 24.0197 67.3528 24.111C67.4973 24.2023 67.6669 24.2466 67.8378 24.2373H68.0671C68.2356 24.2351 68.4007 24.1863 68.5423 24.0964C68.6845 24.0065 68.7974 23.879 68.8696 23.7286L71.2199 17.9634C71.2199 17.9484 71.2262 17.934 71.2366 17.9234C71.2475 17.9128 71.2618 17.9068 71.2773 17.9068C71.2927 17.9068 71.3071 17.9128 71.318 17.9234C71.3283 17.934 71.3346 17.9484 71.3346 17.9634V23.446C71.3403 23.669 71.4326 23.8814 71.5931 24.0392C71.7531 24.1969 71.968 24.2881 72.1945 24.2938H72.5384C72.7648 24.2881 72.9798 24.1969 73.1398 24.0392C73.3003 23.8814 73.3926 23.669 73.3983 23.446V15.3068C73.3587 15.0808 73.2441 14.8743 73.0715 14.7206C72.8984 14.5669 72.6789 14.4747 72.4467 14.459Z" fill="white"/>
<path d="M98.7026 19.0375H96.1803C95.9677 19.0375 95.7636 19.1208 95.6128 19.2692C95.4621 19.4176 95.3778 19.6189 95.3778 19.8288C95.3778 20.0386 95.4621 20.2399 95.6128 20.3883C95.7636 20.5367 95.9677 20.6201 96.1803 20.6201H96.6389C97.0975 20.6201 97.5561 21.0157 97.3268 21.4679C96.9829 22.2027 96.295 22.5983 95.2058 22.5983C93.6007 22.5983 92.6262 21.4114 92.6262 19.3766C92.6262 17.3418 93.658 16.1549 95.2058 16.1549C95.5647 16.1366 95.9224 16.2102 96.244 16.3687C96.5656 16.5272 96.8396 16.7651 97.0402 17.0592C97.1296 17.224 97.2615 17.3628 97.4226 17.462C97.5837 17.5611 97.7677 17.6171 97.9574 17.6244H98.4733C98.5891 17.6337 98.7061 17.615 98.8127 17.5699C98.9199 17.5249 99.0139 17.4548 99.0873 17.3658C99.1607 17.2767 99.2111 17.1714 99.234 17.0589C99.257 16.9464 99.2512 16.8301 99.2186 16.7201C98.8608 15.979 98.2893 15.3585 97.5756 14.9362C96.8614 14.514 96.0376 14.3087 95.2058 14.3461C92.5689 14.3461 90.5625 16.2114 90.5625 19.3766C90.5625 22.5418 92.4542 24.407 95.2631 24.407C97.7854 24.407 99.5625 22.8244 99.5625 20.281V19.8853C99.5648 19.7733 99.5442 19.662 99.5017 19.5581C99.4593 19.4542 99.3963 19.3598 99.316 19.2807C99.2358 19.2015 99.14 19.1391 99.0345 19.0973C98.9291 19.0555 98.8161 19.0351 98.7026 19.0375Z" fill="white"/>
<path d="M83.7993 15.0243C83.7403 14.8602 83.632 14.718 83.4886 14.6169C83.3448 14.5158 83.1734 14.4606 82.9968 14.459H81.5063C81.3298 14.4606 81.1584 14.5158 81.0145 14.6169C80.8712 14.718 80.7628 14.8602 80.7038 15.0243L77.8376 23.1634C77.7946 23.2906 77.7825 23.426 77.802 23.5587C77.8215 23.6914 77.8725 23.8178 77.9505 23.9277C78.0285 24.0376 78.1316 24.1279 78.2514 24.1915C78.3707 24.255 78.5042 24.2901 78.6401 24.2938H79.0987C79.2753 24.2921 79.4467 24.237 79.5906 24.1359C79.7339 24.0348 79.8422 23.8926 79.9013 23.7286L80.2452 22.6547C80.3042 22.4906 80.4126 22.3485 80.5559 22.2473C80.6998 22.1462 80.8712 22.0911 81.0478 22.0894H83.3981C83.5746 22.0911 83.746 22.1462 83.8899 22.2473C84.0332 22.3485 84.1416 22.4906 84.2006 22.6547L84.5446 23.7286C84.6036 23.8926 84.712 24.0348 84.8553 24.1359C84.9992 24.237 85.1706 24.2921 85.3471 24.2938H85.8057C85.9416 24.2901 86.0751 24.255 86.1944 24.1915C86.3142 24.1279 86.4174 24.0376 86.4953 23.9277C86.5733 23.8178 86.6243 23.6914 86.6438 23.5587C86.6633 23.426 86.6513 23.2906 86.6083 23.1634L83.7993 15.0243ZM82.3433 20.3938H82.1713C82.0355 20.3901 81.9019 20.355 81.7821 20.2915C81.6628 20.2279 81.5597 20.1376 81.4817 20.0277C81.4037 19.9178 81.3527 19.7914 81.3332 19.6587C81.3137 19.526 81.3258 19.3906 81.3688 19.2634L82.2286 16.6633C82.2286 16.6484 82.2349 16.634 82.2453 16.6234C82.2562 16.6128 82.2705 16.6069 82.286 16.6069C82.3014 16.6069 82.3158 16.6128 82.3267 16.6234C82.337 16.634 82.3433 16.6484 82.3433 16.6633L83.2032 19.2634C83.2341 19.3945 83.2358 19.5309 83.2078 19.6627C83.1802 19.7946 83.1229 19.9188 83.0409 20.0266C82.959 20.1343 82.8541 20.2231 82.7337 20.2866C82.6127 20.35 82.4797 20.3866 82.3433 20.3938Z" fill="white"/>
<path d="M105.351 14.459H104.95C104.723 14.4647 104.508 14.5559 104.348 14.7137C104.188 14.8715 104.096 15.0838 104.09 15.3068V23.446C104.096 23.669 104.188 23.8814 104.348 24.0392C104.508 24.1969 104.723 24.2881 104.95 24.2938H105.351C105.577 24.2881 105.792 24.1969 105.952 24.0392C106.113 23.8814 106.205 23.669 106.211 23.446V15.3068C106.196 15.0868 106.101 14.8795 105.943 14.7236C105.784 14.5676 105.574 14.4736 105.351 14.459Z" fill="white"/>
<path d="M115.384 16.1543C115.771 16.1438 116.153 16.232 116.495 16.4103C116.836 16.5885 117.125 16.8508 117.333 17.1717C117.407 17.3685 117.54 17.5386 117.714 17.6597C117.888 17.7807 118.095 17.8471 118.308 17.8499H118.709C118.825 17.8592 118.942 17.8405 119.048 17.7954C119.156 17.7504 119.25 17.6803 119.323 17.5913C119.396 17.5022 119.447 17.3969 119.47 17.2844C119.493 17.1719 119.488 17.0556 119.454 16.9456C118.881 15.25 117.333 14.2891 115.327 14.2891C112.69 14.2891 110.684 16.0977 110.684 19.3195C110.684 22.5412 112.633 24.3499 115.327 24.3499C117.448 24.3499 118.881 23.2195 119.397 21.8064C119.43 21.6964 119.435 21.5801 119.412 21.4676C119.39 21.3551 119.339 21.2498 119.266 21.1608C119.192 21.0717 119.098 21.0016 118.991 20.9566C118.884 20.9115 118.768 20.8928 118.652 20.9021H118.193C117.984 20.9203 117.784 20.9926 117.613 21.1117C117.442 21.2308 117.306 21.3926 117.219 21.5803C117.028 21.904 116.75 22.1699 116.417 22.3493C116.083 22.5286 115.706 22.6146 115.327 22.5977C113.836 22.5977 112.805 21.4673 112.805 19.376C112.805 17.2847 113.836 16.1543 115.384 16.1543Z" fill="white"/>
<path d="M145.078 14.459H142.383C142.157 14.4647 141.942 14.5559 141.782 14.7137C141.621 14.8715 141.529 15.0838 141.523 15.3068V23.446C141.529 23.669 141.621 23.8814 141.782 24.0392C141.942 24.1969 142.157 24.2881 142.383 24.2938H145.078C148.116 24.2938 149.95 22.4286 149.95 19.3764C149.95 16.3242 148.058 14.459 145.078 14.459ZM144.963 22.4851H144.504C144.278 22.4794 144.063 22.3882 143.903 22.2304C143.742 22.0726 143.65 21.8603 143.644 21.6373V17.059C143.65 16.836 143.742 16.6236 143.903 16.4658C144.063 16.308 144.278 16.2169 144.504 16.2112H144.963C146.855 16.2112 147.829 17.1721 147.829 19.3199C147.829 21.4677 146.855 22.4851 144.963 22.4851Z" fill="white"/>
<path d="M160.268 22.5415H157.344C157.118 22.5357 156.903 22.4446 156.743 22.2868C156.582 22.129 156.49 21.9167 156.484 21.6936V21.0154C156.49 20.7923 156.582 20.58 156.743 20.4222C156.903 20.2644 157.118 20.1733 157.344 20.1676H159.866C160.095 20.1676 160.313 20.0782 160.475 19.9192C160.636 19.7603 160.726 19.5446 160.726 19.3197C160.726 19.0948 160.636 18.8792 160.475 18.7202C160.313 18.5612 160.095 18.4719 159.866 18.4719H157.344C157.118 18.4662 156.903 18.375 156.743 18.2172C156.582 18.0595 156.49 17.8471 156.484 17.6241V16.9458C156.49 16.7228 156.582 16.5104 156.743 16.3526C156.903 16.1949 157.118 16.1037 157.344 16.098H160.21C160.439 16.098 160.657 16.0087 160.819 15.8496C160.98 15.6907 161.07 15.475 161.07 15.2502C161.07 15.0253 160.98 14.8097 160.819 14.6507C160.657 14.4916 160.439 14.4023 160.21 14.4023H155.223C154.997 14.4081 154.782 14.4992 154.622 14.657C154.461 14.8148 154.369 15.0271 154.363 15.2502V23.3893C154.369 23.6124 154.461 23.8247 154.622 23.9825C154.782 24.1402 154.997 24.2314 155.223 24.2371H160.268C160.494 24.2314 160.709 24.1402 160.869 23.9825C161.03 23.8247 161.122 23.6124 161.128 23.3893C161.13 23.2773 161.109 23.166 161.067 23.0621C161.024 22.9582 160.961 22.8639 160.881 22.7846C160.801 22.7054 160.705 22.6431 160.6 22.6013C160.494 22.5595 160.381 22.5392 160.268 22.5415Z" fill="white"/>
<path d="M173.225 14.459H172.824C172.597 14.4647 172.382 14.5559 172.223 14.7137C172.062 14.8715 171.97 15.0838 171.964 15.3068V20.5633C171.964 20.6199 171.964 20.6199 171.907 20.6199H171.849L167.837 14.8547C167.759 14.747 167.655 14.6597 167.536 14.6006C167.416 14.5415 167.283 14.5123 167.149 14.5155H166.61C166.383 14.5213 166.168 14.6124 166.009 14.7702C165.848 14.928 165.756 15.1403 165.75 15.3634V23.5025C165.756 23.7256 165.848 23.9379 166.009 24.0957C166.168 24.2534 166.383 24.3446 166.61 24.3503H167.011C167.238 24.3446 167.453 24.2534 167.612 24.0957C167.773 23.9379 167.865 23.7256 167.871 23.5025V18.1894C167.871 18.1745 167.877 18.1601 167.888 18.1495C167.899 18.1389 167.913 18.1329 167.928 18.1329H167.986L172.056 23.8981C172.134 24.0058 172.237 24.0931 172.357 24.1522C172.476 24.2113 172.609 24.2405 172.744 24.2373H173.26C173.486 24.2315 173.701 24.1404 173.861 23.9826C174.021 23.8248 174.114 23.6125 174.119 23.3895V15.2503C174.08 15.0393 173.972 14.847 173.81 14.7037C173.648 14.5604 173.442 14.4744 173.225 14.459Z" fill="white"/>
<path d="M37.842 12.6668L40.4962 15.7868C40.8 16.1372 41.0694 16.4255 41.1783 16.5894C41.9721 17.3786 42.4172 18.4453 42.4165 19.5568C42.342 20.8681 41.4879 21.7611 40.6968 22.7164L38.8395 24.8981L37.8707 26.0285C37.8359 26.0675 37.8135 26.1157 37.8062 26.1671C37.7989 26.2185 37.8071 26.2709 37.8296 26.3178C37.8522 26.3647 37.8882 26.404 37.9332 26.431C37.9782 26.4579 38.0302 26.4712 38.0828 26.4694H47.7649C49.2439 26.4694 51.107 27.7129 50.9981 29.6007C50.995 30.4587 50.648 31.2808 50.0327 31.8875C49.4173 32.4942 48.5836 32.8364 47.7134 32.8394H32.5509C31.5535 32.8394 28.8707 32.9468 28.1197 30.6577C27.96 30.1793 27.9382 29.6667 28.0567 29.1768C28.275 28.4524 28.6203 27.7714 29.0771 27.1646C29.8395 26.0342 30.6649 24.9037 31.479 23.8072C32.528 22.3715 33.6057 20.9811 34.6662 19.5172C34.7039 19.4695 34.7244 19.4109 34.7244 19.3505C34.7244 19.2901 34.7039 19.2314 34.6662 19.1838L30.814 14.662C30.7889 14.6292 30.7564 14.6026 30.7191 14.5843C30.6818 14.566 30.6407 14.5565 30.599 14.5565C30.5574 14.5565 30.5162 14.566 30.479 14.5843C30.4417 14.6026 30.4092 14.6292 30.3841 14.662C29.3522 16.0355 24.835 22.1172 23.872 23.3494C22.9089 24.5816 20.5356 24.6494 19.2229 23.3494L13.1981 17.3864C13.1596 17.3483 13.1105 17.3223 13.0571 17.3118C13.0036 17.3013 12.9481 17.3067 12.8978 17.3272C12.8474 17.3478 12.8044 17.3827 12.7742 17.4274C12.7439 17.4722 12.7279 17.5248 12.728 17.5785V29.0468C12.7422 29.8606 12.4978 30.6584 12.029 31.3284C11.5602 31.9984 10.8906 32.507 10.114 32.7829C9.61773 32.9532 9.08742 33.004 8.56714 32.9312C8.04692 32.8584 7.55192 32.6639 7.12336 32.3641C6.6948 32.0644 6.34511 31.6679 6.10349 31.2079C5.86192 30.7478 5.73535 30.2375 5.73438 29.7194V9.10025C5.76894 8.35718 6.04009 7.64377 6.50935 7.06135C6.97861 6.47893 7.62208 6.05716 8.34839 5.85591C8.97139 5.69227 9.62719 5.69391 10.2493 5.86067C10.8715 6.02739 11.4379 6.35339 11.8911 6.8055L21.1548 15.9507C21.1825 15.9785 21.216 15.9999 21.2531 16.0135C21.2902 16.027 21.3298 16.0324 21.3692 16.0291C21.4086 16.0259 21.4468 16.0141 21.4811 15.9948C21.5153 15.9753 21.5448 15.9487 21.5675 15.9168L28.1484 6.93546C28.4525 6.57087 28.8338 6.27625 29.2655 6.07218C29.6973 5.86812 30.169 5.75961 30.6478 5.75416H47.7649C48.2334 5.75497 48.6963 5.8543 49.1226 6.04563C49.549 6.23702 49.929 6.51592 50.2373 6.86371C50.5455 7.2115 50.7748 7.6202 50.91 8.06245C51.0452 8.50469 51.083 8.97029 51.021 9.42808C50.9004 10.2222 50.4917 10.9464 49.8708 11.4661C49.2499 11.9857 48.4589 12.2658 47.6446 12.2542H38.0599C38.0117 12.2553 37.9648 12.2692 37.9238 12.2943C37.8829 12.3195 37.8496 12.355 37.8274 12.3971C37.8052 12.4392 37.7948 12.4865 37.7974 12.5339C37.7999 12.5813 37.8154 12.6272 37.842 12.6668Z" fill="white"/>
</svg>
