<svg width="31" height="18" viewBox="0 0 31 18" fill="none" xmlns="http://www.w3.org/2000/svg">
<path d="M17.5885 8.61688C17.5885 13.3759 13.8004 17.234 9.12748 17.234C4.45453 17.234 0.666748 13.3771 0.666748 8.61688C0.666748 3.85669 4.45482 0 9.12748 0C13.8002 0 17.5885 3.85785 17.5885 8.61688ZM26.8703 8.61688C26.8703 13.0969 24.9762 16.7284 22.6398 16.7284C20.3035 16.7284 18.4093 13.0958 18.4093 8.61688C18.4093 4.138 20.3035 0.505371 22.6398 0.505371C24.9762 0.505371 26.8703 4.138 26.8703 8.61688ZM30.6667 8.61688C30.6667 12.6308 30.0005 15.8845 29.1788 15.8845C28.3571 15.8845 27.6909 12.6296 27.6909 8.61688C27.6909 4.60413 28.3571 1.3493 29.1791 1.3493C30.0011 1.3493 30.6667 4.60326 30.6667 8.61688Z" fill="white"/>
</svg>
