<svg width="48" height="27" viewBox="0 0 48 27" fill="none" xmlns="http://www.w3.org/2000/svg">
<path d="M27.2099 13.4998C27.2099 20.9556 21.2752 27 13.9543 27C6.63329 27 0.699097 20.9574 0.699097 13.4998C0.699097 6.04214 6.63374 0 13.9543 0C21.2748 0 27.2099 6.04396 27.2099 13.4998ZM41.7514 13.4998C41.7514 20.5185 38.7839 26.2078 35.1236 26.2078C31.4633 26.2078 28.4958 20.5167 28.4958 13.4998C28.4958 6.48286 31.4633 0.791747 35.1236 0.791747C38.7839 0.791747 41.7514 6.48286 41.7514 13.4998ZM47.6991 13.4998C47.6991 19.7882 46.6553 24.8856 45.368 24.8856C44.0807 24.8856 43.0369 19.7864 43.0369 13.4998C43.0369 7.21314 44.0807 2.11391 45.3685 2.11391C46.6562 2.11391 47.6991 7.21178 47.6991 13.4998Z" fill="url(#paint0_linear_396_5892)"/>
<defs>
<linearGradient id="paint0_linear_396_5892" x1="47.6991" y1="27" x2="-2.89911" y2="13.0672" gradientUnits="userSpaceOnUse">
<stop stop-color="#22B5B6"/>
<stop offset="1" stop-color="#280C86"/>
</linearGradient>
</defs>
</svg>
