<svg width="30" height="17" viewBox="0 0 30 17" fill="none" xmlns="http://www.w3.org/2000/svg">
<path d="M16.692 8.49986C16.692 13.1943 12.9553 17 8.34584 17C3.73634 17 0 13.1954 0 8.49986C0 3.80431 3.73663 0 8.34584 0C12.955 0 16.692 3.80546 16.692 8.49986ZM25.8477 8.49986C25.8477 12.9191 23.9793 16.5012 21.6747 16.5012C19.3701 16.5012 17.5016 12.9179 17.5016 8.49986C17.5016 4.0818 19.3701 0.498508 21.6747 0.498508C23.9793 0.498508 25.8477 4.0818 25.8477 8.49986ZM29.5926 8.49986C29.5926 12.4593 28.9354 15.6687 28.1249 15.6687C27.3143 15.6687 26.6571 12.4581 26.6571 8.49986C26.6571 4.54161 27.3143 1.33098 28.1251 1.33098C28.936 1.33098 29.5926 4.54075 29.5926 8.49986Z" fill="#7A88B6"/>
</svg>
