<svg width="28" height="32" viewBox="0 0 28 32" fill="none" xmlns="http://www.w3.org/2000/svg">
<path d="M0 4.94891C0 2.2157 2.24108 0 5.00559 0H22.9944C25.7589 0 28 2.2157 28 4.94891V26.6004C28 29.3336 25.7589 31.5493 22.9944 31.5493H5.00559C2.24108 31.5493 0 29.3336 0 26.6004V4.94891Z" fill="#D14A52"/>
<path d="M9.98631 20.4262C9.98631 20.8374 9.89466 21.2149 9.71134 21.5587C9.52803 21.8958 9.24651 22.1688 8.86679 22.3778C8.48707 22.5868 8.01569 22.6912 7.45266 22.6912H6.4117V25.2395H4.73242V18.1409H7.45266C8.0026 18.1409 8.46743 18.2386 8.84715 18.4341C9.22687 18.6296 9.51166 18.8993 9.70152 19.2431C9.89138 19.5869 9.98631 19.9812 9.98631 20.4262ZM7.325 21.316C7.64579 21.316 7.88476 21.2385 8.04188 21.0834C8.19901 20.9284 8.27757 20.7093 8.27757 20.4262C8.27757 20.143 8.19901 19.9239 8.04188 19.7689C7.88476 19.6138 7.64579 19.5363 7.325 19.5363H6.4117V21.316H7.325Z" fill="white"/>
<path d="M14.0325 18.1409C14.7592 18.1409 15.3943 18.2892 15.9377 18.5858C16.4811 18.8824 16.9001 19.3004 17.1947 19.8397C17.4958 20.3722 17.6464 20.9891 17.6464 21.6902C17.6464 22.3845 17.4958 23.0013 17.1947 23.5407C16.9001 24.08 16.4778 24.4979 15.9279 24.7945C15.3845 25.0912 14.7527 25.2395 14.0325 25.2395H11.4498V18.1409H14.0325ZM13.9245 23.7429C14.5596 23.7429 15.0538 23.5642 15.4074 23.207C15.7609 22.8497 15.9377 22.3441 15.9377 21.6902C15.9377 21.0363 15.7609 20.5273 15.4074 20.1633C15.0538 19.7992 14.5596 19.6172 13.9245 19.6172H13.1291V23.7429H13.9245Z" fill="white"/>
<path d="M23.662 18.1409V19.5262H20.8534V21.0228H22.9549V22.3677H20.8534V25.2395H19.1741V18.1409H23.662Z" fill="white"/>
</svg>
