<svg width="40" height="35" viewBox="0 0 40 35" fill="none" xmlns="http://www.w3.org/2000/svg">
<path d="M35.332 7.91667V4.08333H4.66536V30.9167H35.332V27.0833H19.9987C19.4904 27.0833 19.0029 26.8814 18.6434 26.522C18.284 26.1625 18.082 25.675 18.082 25.1667V9.83333C18.082 9.325 18.284 8.83749 18.6434 8.47805C19.0029 8.1186 19.4904 7.91667 19.9987 7.91667H35.332ZM2.7487 0.25H37.2487C37.757 0.25 38.2445 0.451934 38.604 0.811379C38.9634 1.17082 39.1654 1.65834 39.1654 2.16667V32.8333C39.1654 33.3417 38.9634 33.8292 38.604 34.1886C38.2445 34.5481 37.757 34.75 37.2487 34.75H2.7487C2.24037 34.75 1.75285 34.5481 1.39341 34.1886C1.03397 33.8292 0.832031 33.3417 0.832031 32.8333V2.16667C0.832031 1.65834 1.03397 1.17082 1.39341 0.811379C1.75285 0.451934 2.24037 0.25 2.7487 0.25V0.25ZM21.9154 11.75V23.25H35.332V11.75H21.9154ZM25.7487 15.5833H31.4987V19.4167H25.7487V15.5833Z" fill="url(#paint0_linear_4467_2846)"/>
<defs>
<linearGradient id="paint0_linear_4467_2846" x1="39.1364" y1="0.250002" x2="12.266" y2="42.0768" gradientUnits="userSpaceOnUse">
<stop stop-color="#273592"/>
<stop offset="1" stop-color="#23ADB4"/>
</linearGradient>
</defs>
</svg>
