<svg width="42" height="37" viewBox="0 0 42 37" fill="none" xmlns="http://www.w3.org/2000/svg">
<path d="M0 2.05556C0 1.51039 0.221249 0.98755 0.615076 0.602058C1.0089 0.216567 1.54305 0 2.1 0H39.9C40.457 0 40.9911 0.216567 41.3849 0.602058C41.7788 0.98755 42 1.51039 42 2.05556V13.3611C40.6076 13.3611 39.2723 13.9025 38.2877 14.8663C37.3031 15.83 36.75 17.1371 36.75 18.5C36.75 19.8629 37.3031 21.17 38.2877 22.1337C39.2723 23.0975 40.6076 23.6389 42 23.6389V34.9444C42 35.4896 41.7788 36.0125 41.3849 36.3979C40.9911 36.7834 40.457 37 39.9 37H2.1C1.54305 37 1.0089 36.7834 0.615076 36.3979C0.221249 36.0125 0 35.4896 0 34.9444V2.05556ZM12.7785 32.8889C12.9949 32.2866 13.3971 31.765 13.9293 31.396C14.4616 31.0269 15.0977 30.8288 15.75 30.8288C16.4023 30.8288 17.0384 31.0269 17.5707 31.396C18.1029 31.765 18.5051 32.2866 18.7215 32.8889H37.8V26.788C36.2225 26.0227 34.8947 24.8413 33.9664 23.3769C33.0382 21.9125 32.5463 20.2234 32.5463 18.5C32.5463 16.7766 33.0382 15.0875 33.9664 13.6231C34.8947 12.1587 36.2225 10.9773 37.8 10.212V4.11111H18.7215C18.5051 4.71338 18.1029 5.23503 17.5707 5.60404C17.0384 5.97306 16.4023 6.17125 15.75 6.17125C15.0977 6.17125 14.4616 5.97306 13.9293 5.60404C13.3971 5.23503 12.9949 4.71338 12.7785 4.11111H4.2V32.8889H12.7785ZM15.75 16.4444C14.9146 16.4444 14.1134 16.1196 13.5226 15.5414C12.9319 14.9631 12.6 14.1789 12.6 13.3611C12.6 12.5434 12.9319 11.7591 13.5226 11.1809C14.1134 10.6026 14.9146 10.2778 15.75 10.2778C16.5854 10.2778 17.3866 10.6026 17.9774 11.1809C18.5681 11.7591 18.9 12.5434 18.9 13.3611C18.9 14.1789 18.5681 14.9631 17.9774 15.5414C17.3866 16.1196 16.5854 16.4444 15.75 16.4444ZM15.75 26.7222C14.9146 26.7222 14.1134 26.3974 13.5226 25.8191C12.9319 25.2409 12.6 24.4566 12.6 23.6389C12.6 22.8211 12.9319 22.0369 13.5226 21.4586C14.1134 20.8804 14.9146 20.5556 15.75 20.5556C16.5854 20.5556 17.3866 20.8804 17.9774 21.4586C18.5681 22.0369 18.9 22.8211 18.9 23.6389C18.9 24.4566 18.5681 25.2409 17.9774 25.8191C17.3866 26.3974 16.5854 26.7222 15.75 26.7222Z" fill="#C1E9ED"/>
</svg>
