<svg width="14" height="14" viewBox="0 0 14 14" fill="none" xmlns="http://www.w3.org/2000/svg">
<path d="M2.64216 1.64886C3.85187 0.600636 5.39949 0.0246289 7.00016 0.0268619C10.6822 0.0268619 13.6668 3.01153 13.6668 6.69353C13.6668 8.11753 13.2202 9.43753 12.4602 10.5202L10.3335 6.69353H12.3335C12.3336 5.64794 12.0263 4.6254 11.4499 3.75303C10.8735 2.88067 10.0535 2.19697 9.09162 1.78694C8.12978 1.37692 7.06864 1.25866 6.04013 1.44687C5.01163 1.63508 4.06113 2.12146 3.30683 2.84553L2.64216 1.64886ZM11.3582 11.7382C10.1485 12.7864 8.60084 13.3624 7.00016 13.3602C3.31816 13.3602 0.333496 10.3755 0.333496 6.69353C0.333496 5.26953 0.780163 3.94953 1.54016 2.86686L3.66683 6.69353H1.66683C1.66674 7.73911 1.974 8.76166 2.55039 9.63402C3.12678 10.5064 3.94687 11.1901 4.90871 11.6001C5.87055 12.0101 6.93169 12.1284 7.96019 11.9402C8.9887 11.752 9.93919 11.2656 10.6935 10.5415L11.3582 11.7382Z" fill="white"/>
</svg>
