<svg width="14" height="10" viewBox="0 0 14 10" fill="none" xmlns="http://www.w3.org/2000/svg">
<path d="M4.72654 4.41664H9.45304C9.5403 4.41607 9.62636 4.39642 9.70502 4.3591C9.78368 4.32179 9.85299 4.26773 9.90796 4.20081C9.96572 4.1352 10.0079 4.05768 10.0314 3.97391C10.0549 3.89014 10.0592 3.80224 10.0438 3.71664L9.45304 0.799976C9.42542 0.666232 9.35117 0.546286 9.24321 0.461018C9.13526 0.375749 9.00044 0.330557 8.86223 0.33331H5.31735C5.17914 0.330557 5.04432 0.375749 4.93636 0.461018C4.82841 0.546286 4.75416 0.666232 4.72654 0.799976L4.13573 3.71664C4.11882 3.80138 4.12118 3.88877 4.14263 3.9725C4.16409 4.05623 4.20411 4.13421 4.2598 4.20081C4.31603 4.26926 4.38724 4.32424 4.46808 4.36163C4.54892 4.39901 4.63728 4.41782 4.72654 4.41664ZM5.80182 1.49998H8.37776L8.73225 3.24998H5.44733L5.80182 1.49998ZM12.9979 6.04998C12.9703 5.91623 12.896 5.79629 12.7881 5.71102C12.6801 5.62575 12.5453 5.58056 12.4071 5.58331H8.86223C8.72401 5.58056 8.58919 5.62575 8.48124 5.71102C8.37328 5.79629 8.29903 5.91623 8.27141 6.04998L7.6806 8.96664C7.66369 9.05138 7.66605 9.13877 7.6875 9.2225C7.70896 9.30623 7.74898 9.38421 7.80467 9.45081C7.8609 9.51926 7.93211 9.57424 8.01295 9.61163C8.09379 9.64901 8.18216 9.66782 8.27141 9.66664H12.9979C13.0852 9.66607 13.1712 9.64642 13.2499 9.6091C13.3285 9.57179 13.3979 9.51773 13.4528 9.45081C13.5106 9.3852 13.5528 9.30768 13.5763 9.22391C13.5998 9.14014 13.604 9.05224 13.5887 8.96664L12.9979 6.04998ZM8.9922 8.49998L9.34669 6.74998H11.9226L12.2771 8.49998H8.9922ZM5.31735 5.58331H1.77248C1.63426 5.58056 1.49944 5.62575 1.39149 5.71102C1.28354 5.79629 1.20929 5.91623 1.18167 6.04998L0.590858 8.96664C0.573947 9.05138 0.576304 9.13877 0.59776 9.2225C0.619216 9.30623 0.659236 9.38421 0.714929 9.45081C0.771158 9.51926 0.842367 9.57424 0.923206 9.61163C1.00404 9.64901 1.09241 9.66782 1.18167 9.66664H5.90817C5.99543 9.66607 6.08149 9.64642 6.16015 9.6091C6.2388 9.57179 6.30811 9.51773 6.36309 9.45081C6.42085 9.3852 6.46302 9.30768 6.48653 9.22391C6.51004 9.14014 6.5143 9.05224 6.49898 8.96664L5.90817 6.04998C5.88054 5.91623 5.8063 5.79629 5.69834 5.71102C5.59039 5.62575 5.45557 5.58056 5.31735 5.58331ZM1.90246 8.49998L2.25695 6.74998H4.83289L5.18738 8.49998H1.90246Z" fill="white"/>
</svg>
