<svg width="9" height="13" viewBox="0 0 9 13" fill="none" xmlns="http://www.w3.org/2000/svg">
<path d="M8.41911 11.3761H7.8705V10.4731C7.86879 10.1631 7.8132 9.85574 7.70616 9.56433C7.70016 9.54843 7.69387 9.53368 7.68647 9.51854C7.59761 9.27935 7.47486 9.0538 7.32189 8.84863L6.55389 7.83724C6.3408 7.55549 6.22535 7.21344 6.22466 6.86181V6.31483C6.22592 5.88417 6.39907 5.47135 6.70658 5.16591L7.06713 4.80991C7.48606 4.39404 7.75518 3.85392 7.83317 3.27245C7.83346 3.26492 7.83755 3.25864 7.83755 3.25103L7.83601 3.24359C7.85509 3.12826 7.86661 3.01183 7.8705 2.89504V1.62606H8.41912C8.56462 1.62606 8.70416 1.56899 8.80704 1.46741C8.90993 1.36583 8.96773 1.22805 8.96773 1.08439C8.96773 0.940732 8.90993 0.802957 8.80704 0.701375C8.70416 0.599793 8.56462 0.542725 8.41912 0.542725H0.738558C0.593057 0.542725 0.453516 0.599793 0.350631 0.701375C0.247747 0.802957 0.189947 0.940732 0.189947 1.08439C0.189947 1.22805 0.247747 1.36583 0.350631 1.46741C0.453516 1.56899 0.593057 1.62606 0.738558 1.62606H1.28717V2.89504C1.29107 3.01183 1.30259 3.12826 1.32166 3.24359L1.32011 3.25106C1.32011 3.25864 1.3242 3.26495 1.3245 3.27248C1.40249 3.85395 1.6716 4.39407 2.09053 4.80994L2.45109 5.16594C2.75858 5.47137 2.93174 5.88418 2.933 6.31483V6.86181C2.93228 7.21339 2.81694 7.5554 2.60404 7.83723L1.83551 8.84861C1.68258 9.05388 1.55987 9.2795 1.47103 9.51875C1.46373 9.53376 1.45746 9.54834 1.45154 9.56407C1.34448 9.85557 1.28888 10.163 1.28716 10.4731V11.3761H0.738553C0.593052 11.3761 0.45351 11.4331 0.350626 11.5347C0.247741 11.6363 0.189941 11.7741 0.189941 11.9177C0.189941 12.0614 0.247741 12.1992 0.350626 12.3007C0.45351 12.4023 0.593052 12.4594 0.738553 12.4594H8.41911C8.56461 12.4594 8.70415 12.4023 8.80704 12.3007C8.90992 12.1992 8.96772 12.0614 8.96772 11.9177C8.96772 11.7741 8.90992 11.6363 8.80704 11.5347C8.70415 11.4331 8.56461 11.3761 8.41911 11.3761ZM2.38439 2.70939V1.62606H6.77328V2.70939H2.38439ZM2.8663 4.04399C2.78899 3.96731 2.71972 3.88313 2.65953 3.79272H6.49813C6.43794 3.88313 6.36867 3.96731 6.29136 4.04399L5.9308 4.39999C5.50287 4.82002 5.22847 5.36858 5.15075 5.95939H4.00689C3.92919 5.36856 3.6548 4.81998 3.22686 4.39993L2.8663 4.04399ZM3.48188 8.48681C3.79931 8.06684 3.98754 7.56551 4.02406 7.04272H5.1336C5.17009 7.56556 5.35842 8.06693 5.67605 8.48681L6.22473 9.20939H2.93279L3.48188 8.48681ZM6.77328 11.3761H2.38439V10.4731C2.38591 10.4127 2.3909 10.3525 2.39932 10.2927H6.75834C6.76676 10.3525 6.77175 10.4127 6.77328 10.4731V11.3761Z" fill="white"/>
</svg>
