<svg width="21" height="20" viewBox="0 0 21 20" fill="none" xmlns="http://www.w3.org/2000/svg">
<path d="M15.5398 13.8473L19.109 17.4157L17.9298 18.5948L14.3615 15.0257C13.0338 16.09 11.3823 16.6689 9.68066 16.6665C5.54066 16.6665 2.18066 13.3065 2.18066 9.1665C2.18066 5.0265 5.54066 1.6665 9.68066 1.6665C13.8207 1.6665 17.1807 5.0265 17.1807 9.1665C17.1831 10.8682 16.6042 12.5196 15.5398 13.8473ZM13.8682 13.229C14.9258 12.1414 15.5164 10.6835 15.514 9.1665C15.514 5.94317 12.9032 3.33317 9.68066 3.33317C6.45733 3.33317 3.84733 5.94317 3.84733 9.1665C3.84733 12.389 6.45733 14.9998 9.68066 14.9998C11.1977 15.0022 12.6556 14.4116 13.7432 13.354L13.8682 13.229V13.229Z" fill="#98A2E4"/>
</svg>
