<svg width="14" height="14" viewBox="0 0 14 14" fill="none" xmlns="http://www.w3.org/2000/svg">
<path d="M0.475338 8.0667C0.283611 7.16118 0.283611 6.22555 0.475338 5.32003C1.21534 5.4067 1.862 5.16203 2.07267 4.6527C2.284 4.1427 2.00067 3.5127 1.41534 3.0507C1.92003 2.27491 2.58155 1.61339 3.35734 1.1087C3.81867 1.69336 4.44934 1.97736 4.95934 1.76603C5.46934 1.5547 5.714 0.908697 5.62667 0.168697C6.53219 -0.0230293 7.46782 -0.0230293 8.37334 0.168697C8.28667 0.908697 8.53134 1.55536 9.04067 1.76603C9.55067 1.97736 10.1807 1.69403 10.6427 1.1087C11.4185 1.61339 12.08 2.27491 12.5847 3.0507C12 3.51203 11.716 4.1427 11.9273 4.6527C12.1387 5.1627 12.7847 5.40736 13.5247 5.32003C13.7164 6.22555 13.7164 7.16118 13.5247 8.0667C12.7847 7.98003 12.138 8.2247 11.9273 8.73403C11.716 9.24403 11.9993 9.87403 12.5847 10.336C12.08 11.1118 11.4185 11.7733 10.6427 12.278C10.1813 11.6934 9.55067 11.4094 9.04067 11.6207C8.53067 11.832 8.28601 12.478 8.37334 13.218C7.46782 13.4098 6.53219 13.4098 5.62667 13.218C5.71334 12.478 5.46867 11.8314 4.95934 11.6207C4.44934 11.4094 3.81934 11.6927 3.35734 12.278C2.58155 11.7733 1.92003 11.1118 1.41534 10.336C2 9.8747 2.284 9.24403 2.07267 8.73403C1.86134 8.22403 1.21534 7.97936 0.475338 8.0667ZM1.66667 6.83336C2.4 7.0367 3.00467 7.50136 3.30467 8.22403C3.604 8.94736 3.50467 9.70403 3.13 10.3654C3.194 10.4334 3.26 10.4994 3.328 10.5634C3.99 10.1887 4.74601 10.09 5.46934 10.3887C6.19201 10.6887 6.65667 11.2934 6.86 12.0267C6.95334 12.0294 7.04667 12.0294 7.14 12.0267C7.34334 11.2934 7.808 10.6887 8.53067 10.3887C9.254 10.0894 10.0107 10.1887 10.672 10.5634C10.74 10.4994 10.806 10.4334 10.87 10.3654C10.4953 9.70336 10.3967 8.94736 10.6953 8.22403C10.9953 7.50136 11.6 7.0367 12.3333 6.83336C12.336 6.74003 12.336 6.6467 12.3333 6.55336C11.6 6.35003 10.9953 5.88536 10.6953 5.1627C10.396 4.43936 10.4953 3.6827 10.87 3.02136C10.8058 2.95363 10.7397 2.88761 10.672 2.82336C10.01 3.19803 9.254 3.2967 8.53067 2.99803C7.808 2.69803 7.34334 2.09336 7.14 1.36003C7.04669 1.35756 6.95332 1.35756 6.86 1.36003C6.65667 2.09336 6.19201 2.69803 5.46934 2.99803C4.74601 3.29736 3.98934 3.19803 3.328 2.82336C3.26 2.88736 3.194 2.95336 3.13 3.02136C3.50467 3.68336 3.60334 4.43936 3.30467 5.1627C3.00467 5.88536 2.4 6.35003 1.66667 6.55336C1.664 6.6467 1.664 6.74003 1.66667 6.83336ZM7 8.69336C6.46957 8.69336 5.96086 8.48265 5.58579 8.10758C5.21072 7.73251 5 7.2238 5 6.69336C5 6.16293 5.21072 5.65422 5.58579 5.27915C5.96086 4.90408 6.46957 4.69336 7 4.69336C7.53044 4.69336 8.03915 4.90408 8.41422 5.27915C8.78929 5.65422 9 6.16293 9 6.69336C9 7.2238 8.78929 7.73251 8.41422 8.10758C8.03915 8.48265 7.53044 8.69336 7 8.69336ZM7 7.36003C7.17682 7.36003 7.34639 7.28979 7.47141 7.16477C7.59643 7.03974 7.66667 6.87017 7.66667 6.69336C7.66667 6.51655 7.59643 6.34698 7.47141 6.22196C7.34639 6.09694 7.17682 6.0267 7 6.0267C6.82319 6.0267 6.65362 6.09694 6.5286 6.22196C6.40358 6.34698 6.33334 6.51655 6.33334 6.69336C6.33334 6.87017 6.40358 7.03974 6.5286 7.16477C6.65362 7.28979 6.82319 7.36003 7 7.36003Z" fill="white"/>
</svg>
