<svg width="15" height="16" viewBox="0 0 15 16" fill="none" xmlns="http://www.w3.org/2000/svg">
<path d="M9.18178 11.9532L5.34928 9.86296C4.9814 10.2281 4.51364 10.4762 4.00498 10.5759C3.49631 10.6756 2.9695 10.6225 2.49098 10.4233C2.01245 10.224 1.60363 9.88757 1.31605 9.45632C1.02846 9.02506 0.875 8.51831 0.875 7.99996C0.875 7.48161 1.02846 6.97486 1.31605 6.54361C1.60363 6.11235 2.01245 5.77588 2.49098 5.57664C2.9695 5.37739 3.49631 5.32427 4.00498 5.42399C4.51364 5.52371 4.9814 5.77179 5.34928 6.13696L9.18178 4.04671C9.05034 3.43001 9.14528 2.78661 9.44923 2.23415C9.75318 1.6817 10.2458 1.25711 10.8371 1.03804C11.4284 0.818962 12.0788 0.820041 12.6693 1.04108C13.2598 1.26211 13.7511 1.68833 14.0532 2.24179C14.3553 2.79525 14.4481 3.43897 14.3146 4.05523C14.1811 4.67148 13.8303 5.2191 13.3262 5.59794C12.8222 5.97677 12.1986 6.16151 11.5695 6.11836C10.9404 6.07521 10.3479 5.80707 9.90029 5.36296L6.06778 7.45321C6.14423 7.8137 6.14423 8.18622 6.06778 8.54671L9.90029 10.637C10.3479 10.1929 10.9404 9.92471 11.5695 9.88156C12.1986 9.83842 12.8222 10.0232 13.3262 10.402C13.8303 10.7808 14.1811 11.3284 14.3146 11.9447C14.4481 12.561 14.3553 13.2047 14.0532 13.7581C13.7511 14.3116 13.2598 14.7378 12.6693 14.9588C12.0788 15.1799 11.4284 15.181 10.8371 14.9619C10.2458 14.7428 9.75318 14.3182 9.44923 13.7658C9.14528 13.2133 9.05034 12.5699 9.18178 11.9532V11.9532Z" fill="white"/>
</svg>
