<svg width="12" height="16" viewBox="0 0 12 16" fill="none" xmlns="http://www.w3.org/2000/svg">
<path d="M3.02344 4.02837C3.02344 3.71055 3.27393 3.45291 3.58292 3.45291L10.065 3.45291L7.66316 0.982491C7.44467 0.757757 7.44467 0.393391 7.66316 0.168658C7.88165 -0.0560764 8.23589 -0.0560763 8.45438 0.168658L11.8113 3.62146C12.0298 3.84619 12.0298 4.21056 11.8113 4.43529L8.45438 7.88809C8.23589 8.11282 7.88165 8.11282 7.66316 7.88809C7.44467 7.66336 7.44467 7.29899 7.66316 7.07426L10.065 4.60384L3.58292 4.60384C3.27393 4.60384 3.02344 4.3462 3.02344 4.02837Z" fill="#98A2E4"/>
<path d="M8.97754 11.665C8.97754 11.9828 8.72705 12.2405 8.41806 12.2405L1.93602 12.2405L4.33782 14.7109C4.55631 14.9356 4.55631 15.3 4.33782 15.5247C4.11933 15.7494 3.76508 15.7494 3.54659 15.5247L0.189703 12.0719C-0.0287888 11.8472 -0.0287887 11.4828 0.189703 11.2581L3.54659 7.80527C3.76508 7.58054 4.11933 7.58054 4.33782 7.80527C4.55631 8.03 4.55631 8.39437 4.33782 8.6191L1.93602 11.0895L8.41806 11.0895C8.72705 11.0895 8.97754 11.3472 8.97754 11.665Z" fill="#98A2E4"/>
</svg>
