<svg width="33" height="33" viewBox="0 0 33 33" fill="none" xmlns="http://www.w3.org/2000/svg">
<path fill-rule="evenodd" clip-rule="evenodd" d="M0 16.5C0 25.6127 7.3873 33 16.5 33C25.6127 33 33 25.6127 33 16.5C33 7.3873 25.6127 0 16.5 0C7.3873 0 0 7.3873 0 16.5ZM13.475 24.0625L13.7557 19.8566L13.7555 19.8564L21.4066 12.9518C21.7424 12.6538 21.3333 12.5085 20.8875 12.7788L11.445 18.736L7.36634 17.463C6.48553 17.1933 6.47921 16.588 7.5641 16.1529L23.4577 10.0243C24.1836 9.69478 24.8843 10.1987 24.6071 11.3097L21.9004 24.0646C21.7114 24.971 21.1638 25.1878 20.405 24.7691L16.2819 21.7229L14.3 23.65C14.2937 23.6561 14.2875 23.6621 14.2813 23.6681C14.0597 23.884 13.8763 24.0625 13.475 24.0625Z" fill="#7E7ED8"/>
</svg>
