<svg width="34" height="27" viewBox="0 0 34 27" fill="none" xmlns="http://www.w3.org/2000/svg">
<path d="M30.3998 6.72274C30.4134 7.01578 30.4202 7.31051 30.4202 7.60695C30.4202 16.6109 23.5697 27 11.0272 27C7.17686 27 3.59742 25.8756 0.578491 23.9385C1.11345 23.9981 1.65522 24.0322 2.20551 24.0322C5.39992 24.0322 8.33707 22.9435 10.6694 21.1155C7.68797 21.061 5.16992 19.0915 4.30445 16.386C4.72015 16.4661 5.14607 16.5053 5.58562 16.5053C6.20747 16.5053 6.81057 16.4218 7.38131 16.2617C4.26697 15.6364 1.91418 12.8833 1.91418 9.57982C1.91418 9.55086 1.91418 9.5236 1.91418 9.49464C2.83587 10.0057 3.88534 10.3107 5.00296 10.3465C3.17491 9.12494 1.97211 7.03792 1.97211 4.6698C1.97211 3.42441 2.30773 2.25057 2.8955 1.24539C6.25517 5.36831 11.2793 8.08569 16.9424 8.3668C16.8282 7.86762 16.7652 7.34799 16.7652 6.81474C16.7652 3.0513 19.8165 0 23.5834 0C25.5375 0 27.311 0.826287 28.5564 2.15346C30.1068 1.84679 31.5685 1.27776 32.8855 0.49918C32.3744 2.09213 31.2942 3.42781 29.8887 4.26943C31.2687 4.10418 32.5805 3.73788 33.8021 3.19782C32.8872 4.56588 31.7321 5.76357 30.3998 6.72274Z" fill="url(#paint0_linear_396_5895)"/>
<defs>
<linearGradient id="paint0_linear_396_5895" x1="33.8021" y1="27" x2="-3.27235" y2="19.7835" gradientUnits="userSpaceOnUse">
<stop stop-color="#22B5B6"/>
<stop offset="1" stop-color="#280C86"/>
</linearGradient>
</defs>
</svg>
