<svg width="33" height="33" viewBox="0 0 33 33" fill="none" xmlns="http://www.w3.org/2000/svg">
<path fill-rule="evenodd" clip-rule="evenodd" d="M16.5 0C7.3873 0 0 7.3873 0 16.5C0 25.6127 7.3873 33 16.5 33C25.6127 33 33 25.6127 33 16.5C33 7.3873 25.6127 0 16.5 0ZM16.0405 13.9823L16.0058 13.4114C15.902 11.9316 16.8137 10.58 18.2564 10.0557C18.7873 9.86927 19.6875 9.84596 20.2761 10.0091C20.507 10.079 20.9455 10.312 21.2572 10.5218L21.8227 10.9063L22.4459 10.7082C22.7922 10.6033 23.2538 10.4286 23.4616 10.312C23.6578 10.2072 23.8309 10.1489 23.8309 10.1839C23.8309 10.3819 23.4039 11.0577 23.0461 11.4306C22.5613 11.9549 22.6998 12.0015 23.6809 11.652C24.2695 11.4539 24.281 11.4539 24.1656 11.6753C24.0964 11.7918 23.7386 12.1996 23.3577 12.5725C22.7114 13.2133 22.6768 13.2832 22.6768 13.8192C22.6768 14.6465 22.2844 16.371 21.8919 17.3148C21.1648 19.0858 19.6067 20.9152 18.0487 21.8356C15.8558 23.129 12.9358 23.4552 10.4775 22.6979C9.65805 22.4415 8.25 21.789 8.25 21.6725C8.25 21.6376 8.67703 21.591 9.1964 21.5793C10.2813 21.556 11.3662 21.2531 12.2895 20.7171L12.9127 20.3442L12.1972 20.0995C11.1815 19.75 10.2697 18.946 10.0389 18.1886C9.96967 17.944 9.99275 17.9323 10.6391 17.9323L11.3085 17.9206L10.7429 17.6527C10.0735 17.3148 9.46185 16.7438 9.16177 16.1612C8.94248 15.7418 8.66549 14.6815 8.74628 14.5999C8.76936 14.5649 9.01173 14.6348 9.28873 14.7281C10.0851 15.0194 10.189 14.9494 9.7273 14.4601C8.86169 13.5745 8.59624 12.2579 9.01173 11.0111L9.20794 10.4519L9.96967 11.2092C11.5278 12.7356 13.3628 13.6444 15.4634 13.9124L16.0405 13.9823Z" fill="#7E7ED8"/>
</svg>
