<svg width="13" height="11" viewBox="0 0 13 11" fill="none" xmlns="http://www.w3.org/2000/svg">
<path d="M12.75 1.62501C12.2802 1.82882 11.7834 1.96355 11.275 2.02501C11.8114 1.70458 12.2133 1.2005 12.4062 0.606259C11.9022 0.906298 11.3505 1.11769 10.775 1.23126C10.3903 0.814116 9.87811 0.536444 9.31863 0.441791C8.75916 0.347138 8.18409 0.440858 7.68362 0.708252C7.18315 0.975647 6.78558 1.40159 6.55328 1.91928C6.32097 2.43697 6.26706 3.01713 6.4 3.56876C5.38089 3.51721 4.38403 3.25185 3.47416 2.78992C2.56429 2.32799 1.76178 1.67982 1.11875 0.887509C0.893211 1.28136 0.7747 1.7274 0.775 2.18126C0.7742 2.60275 0.877636 3.01789 1.0761 3.38974C1.27456 3.76158 1.56189 4.07858 1.9125 4.31251C1.50499 4.30142 1.10618 4.19207 0.75 3.99376V4.02501C0.753054 4.61557 0.959996 5.18694 1.33582 5.64249C1.71165 6.09803 2.23328 6.40979 2.8125 6.52501C2.58953 6.59286 2.35805 6.62864 2.125 6.63126C1.96368 6.62937 1.80276 6.61475 1.64375 6.58751C1.80869 7.09552 2.12789 7.53947 2.55692 7.85761C2.98595 8.17574 3.50348 8.35223 4.0375 8.36251C3.13575 9.07205 2.02243 9.45929 0.875 9.46251C0.666085 9.46319 0.457335 9.45067 0.25 9.42501C1.42152 10.1814 2.78676 10.583 4.18125 10.5813C5.14356 10.5913 6.09821 10.4094 6.98945 10.0463C7.88068 9.68322 8.69064 9.14619 9.372 8.46657C10.0534 7.78695 10.5925 6.97838 10.9578 6.08808C11.3232 5.19777 11.5075 4.24359 11.5 3.28126C11.5 3.17501 11.5 3.06251 11.5 2.95001C11.9904 2.58427 12.4134 2.1359 12.75 1.62501Z" fill="white"/>
</svg>
