<svg width="22" height="17" viewBox="0 0 22 17" fill="none" xmlns="http://www.w3.org/2000/svg">
<path d="M19.3301 4.23284C19.3387 4.41734 19.343 4.60292 19.343 4.78956C19.343 10.4587 15.0297 17 7.13252 17C4.70824 17 2.45452 16.292 0.553711 15.0724C0.890536 15.1099 1.23165 15.1314 1.57813 15.1314C3.58943 15.1314 5.43875 14.4459 6.90726 13.2949C5.03005 13.2606 3.44461 12.0206 2.89969 10.3171C3.16142 10.3676 3.42959 10.3922 3.70635 10.3922C4.09788 10.3922 4.47761 10.3397 4.83697 10.2388C2.87609 9.84515 1.3947 8.11169 1.3947 6.03174C1.3947 6.0135 1.3947 5.99634 1.3947 5.9781C1.97503 6.29991 2.6358 6.49192 3.33949 6.51445C2.18849 5.74533 1.43117 4.43128 1.43117 2.94025C1.43117 2.15611 1.64249 1.41702 2.01257 0.784137C4.12792 3.38005 7.29128 5.09099 10.8569 5.26798C10.785 4.95369 10.7453 4.62651 10.7453 4.29076C10.7453 1.92119 12.6665 0 15.0383 0C16.2686 0 17.3853 0.520255 18.1694 1.35588C19.1456 1.1628 20.066 0.804518 20.8951 0.314299C20.5733 1.31726 19.8933 2.15825 19.0083 2.68816C19.8772 2.58411 20.7031 2.35348 21.4723 2.01344C20.8962 2.87481 20.1689 3.62891 19.3301 4.23284Z" fill="#7A88B6"/>
</svg>
