<svg width="15" height="14" viewBox="0 0 15 14" fill="none" xmlns="http://www.w3.org/2000/svg">
<path fill-rule="evenodd" clip-rule="evenodd" d="M9.91176 0H13.9265C14.2353 0 14.4853 0.25 14.5 0.558824V4.55882C14.5 4.86765 14.25 5.11765 13.9412 5.11765C13.6324 5.11765 13.3824 4.86765 13.3824 4.55882V1.88235L7.72059 7.55883C7.60294 7.66177 7.47059 7.72059 7.32353 7.72059C7.17647 7.72059 7.02941 7.66177 6.92647 7.55883C6.70588 7.33824 6.70588 7 6.92647 6.77941L12.5882 1.11765H9.91176C9.60294 1.11765 9.35294 0.867647 9.35294 0.558824C9.35294 0.25 9.60294 0 9.91176 0ZM1.61765 12.8676H10.5735V7.02938L11.6765 5.92644V13.4264C11.6765 13.7353 11.4265 13.9853 11.1176 13.9853H1.05882C0.75 13.9853 0.5 13.7353 0.5 13.4264V3.35291C0.5 3.04408 0.75 2.79408 1.05882 2.79408H8.55882L7.45588 3.89702H1.61765V12.8676Z" fill="#23ADB4"/>
</svg>
