<svg width="13" height="15" viewBox="0 0 13 15" fill="none" xmlns="http://www.w3.org/2000/svg">
<path d="M2.95833 6.0835H12.1667C12.3545 6.0835 12.5347 6.15813 12.6675 6.29097C12.8004 6.4238 12.875 6.60397 12.875 6.79183V13.8752C12.875 14.063 12.8004 14.2432 12.6675 14.376C12.5347 14.5089 12.3545 14.5835 12.1667 14.5835H0.833333C0.645472 14.5835 0.465304 14.5089 0.332466 14.376C0.199628 14.2432 0.125 14.063 0.125 13.8752V6.79183C0.125 6.60397 0.199628 6.4238 0.332466 6.29097C0.465304 6.15813 0.645472 6.0835 0.833333 6.0835H1.54167V5.37517C1.54126 4.25791 1.9182 3.17327 2.61138 2.29706C3.30457 1.42084 4.27336 0.804418 5.36072 0.547705C6.44808 0.290993 7.59027 0.40904 8.60214 0.882711C9.61401 1.35638 10.4363 2.15791 10.9356 3.15737L9.66837 3.79062C9.31173 3.07664 8.72437 2.50404 8.00154 2.16567C7.27871 1.8273 6.46279 1.74299 5.68604 1.92642C4.9093 2.10984 4.21727 2.55024 3.72217 3.17622C3.22707 3.8022 2.95791 4.57706 2.95833 5.37517V6.0835ZM1.54167 7.50017V13.1668H11.4583V7.50017H1.54167ZM5.08333 9.62517H7.91667V11.0418H5.08333V9.62517Z" fill="white"/>
</svg>
