<svg width="19" height="19" viewBox="0 0 19 19" fill="none" xmlns="http://www.w3.org/2000/svg">
<path d="M2.5 8.6L4.5 6.6L10 12.1L13.5 8.6L16.5 11.6V2.5H2.5V8.6ZM2.5 11.429V16.5H5.6L8.586 13.515L4.5 9.429L2.5 11.429ZM8.429 16.5H16.5V14.429L13.5 11.429L8.429 16.5ZM1.5 0.5H17.5C17.7652 0.5 18.0196 0.605357 18.2071 0.792893C18.3946 0.98043 18.5 1.23478 18.5 1.5V17.5C18.5 17.7652 18.3946 18.0196 18.2071 18.2071C18.0196 18.3946 17.7652 18.5 17.5 18.5H1.5C1.23478 18.5 0.98043 18.3946 0.792893 18.2071C0.605357 18.0196 0.5 17.7652 0.5 17.5V1.5C0.5 1.23478 0.605357 0.98043 0.792893 0.792893C0.98043 0.605357 1.23478 0.5 1.5 0.5V0.5ZM13 7.5C12.6022 7.5 12.2206 7.34196 11.9393 7.06066C11.658 6.77936 11.5 6.39782 11.5 6C11.5 5.60218 11.658 5.22064 11.9393 4.93934C12.2206 4.65804 12.6022 4.5 13 4.5C13.3978 4.5 13.7794 4.65804 14.0607 4.93934C14.342 5.22064 14.5 5.60218 14.5 6C14.5 6.39782 14.342 6.77936 14.0607 7.06066C13.7794 7.34196 13.3978 7.5 13 7.5V7.5Z" fill="#6574D6"/>
</svg>
