<svg width="421" height="421" viewBox="0 0 421 421" fill="none" xmlns="http://www.w3.org/2000/svg">
<g clip-path="url(#clip0_5259_56798)">
<path d="M163.665 201.73H201.73C222.666 201.73 242.744 210.046 257.548 224.85C272.351 239.654 280.668 259.732 280.668 280.667H157.859L157.876 298.209H298.21V280.667C298.154 262.002 292.762 243.743 282.668 228.042H333.293C349.874 228.038 366.117 232.734 380.139 241.585C394.16 250.437 405.384 263.082 412.511 278.054C371.025 332.801 303.858 368.376 228.043 368.376C179.61 368.376 138.58 358.026 105.251 339.87V176.663C126.593 179.72 146.746 188.368 163.665 201.73V201.73ZM87.7096 333.292C87.7096 337.945 85.8615 342.406 82.5718 345.696C79.2821 348.986 74.8203 350.834 70.168 350.834H35.0846C30.4323 350.834 25.9705 348.986 22.6808 345.696C19.3911 342.406 17.543 337.945 17.543 333.292V175.417C17.543 170.765 19.3911 166.303 22.6808 163.013C25.9705 159.724 30.4323 157.876 35.0846 157.876H70.168C74.8203 157.876 79.2821 159.724 82.5718 163.013C85.8615 166.303 87.7096 170.765 87.7096 175.417V333.292ZM315.751 87.709C329.708 87.709 343.094 93.2534 352.963 103.122C362.832 112.992 368.376 126.377 368.376 140.334C368.376 154.291 362.832 167.676 352.963 177.545C343.094 187.415 329.708 192.959 315.751 192.959C301.794 192.959 288.409 187.415 278.54 177.545C268.671 167.676 263.126 154.291 263.126 140.334C263.126 126.377 268.671 112.992 278.54 103.122C288.409 93.2534 301.794 87.709 315.751 87.709ZM192.96 35.084C206.917 35.084 220.302 40.6284 230.171 50.4975C240.04 60.3666 245.585 73.752 245.585 87.709C245.585 101.666 240.04 115.051 230.171 124.92C220.302 134.79 206.917 140.334 192.96 140.334C179.003 140.334 165.617 134.79 155.748 124.92C145.879 115.051 140.335 101.666 140.335 87.709C140.335 73.752 145.879 60.3666 155.748 50.4975C165.617 40.6284 179.003 35.084 192.96 35.084V35.084Z" fill="url(#paint0_linear_5259_56798)"/>
</g>
<defs>
<linearGradient id="paint0_linear_5259_56798" x1="17.543" y1="201.73" x2="412.511" y2="201.73" gradientUnits="userSpaceOnUse">
<stop stop-color="#273592"/>
<stop offset="1" stop-color="#23ADB4"/>
</linearGradient>
<clipPath id="clip0_5259_56798">
<rect width="421" height="421" fill="white"/>
</clipPath>
</defs>
</svg>
