<svg width="331" height="351" viewBox="0 0 331 351" fill="none" xmlns="http://www.w3.org/2000/svg">
<path d="M131.611 3.76746C155.273 -1.19449 179.707 -1.20644 203.374 3.73237C204.951 14.1396 208.852 24.0577 214.79 32.7494C220.727 41.4411 228.547 48.683 237.668 53.9366C246.782 59.2084 256.967 62.3578 267.466 63.1504C277.965 63.9431 288.507 62.3587 298.309 58.515C314.418 76.5489 326.619 97.7213 334.147 120.7C325.926 127.271 319.291 135.61 314.736 145.097C310.181 154.584 307.822 164.976 307.835 175.5C307.835 197.673 318.114 217.443 334.182 230.301C326.61 253.26 314.393 274.416 298.292 292.451C288.492 288.61 277.953 287.027 267.457 287.819C256.962 288.612 246.78 291.76 237.668 297.029C228.554 302.281 220.74 309.518 214.807 318.204C208.873 326.889 204.971 336.799 203.391 347.198C179.731 352.172 155.298 352.196 131.629 347.268C130.059 336.852 126.161 326.923 120.223 318.222C114.286 309.521 106.462 302.271 97.3346 297.012C88.2193 291.743 78.0335 288.596 67.5346 287.807C57.0357 287.017 46.4939 288.604 36.693 292.451C20.5827 274.412 8.38086 253.233 0.855397 230.248C9.07179 223.681 15.7037 215.348 20.2588 205.867C24.814 196.386 27.1754 186.001 27.1679 175.483C27.1765 164.956 24.8122 154.562 20.2506 145.075C15.6891 135.587 9.04777 127.25 0.820312 120.683C8.3925 97.7228 20.6094 76.5671 36.7106 58.5325C46.5103 62.3734 57.0496 63.9564 67.5452 63.1637C78.0408 62.3711 88.2229 59.2233 97.3346 53.9542C106.448 48.7021 114.262 41.4649 120.196 32.7797C126.13 24.0945 130.031 14.1844 131.611 3.785V3.76746ZM167.501 228.125C181.458 228.125 194.844 222.581 204.713 212.712C214.582 202.843 220.126 189.457 220.126 175.5C220.126 161.543 214.582 148.158 204.713 138.289C194.844 128.42 181.458 122.875 167.501 122.875C153.544 122.875 140.159 128.42 130.29 138.289C120.421 148.158 114.876 161.543 114.876 175.5C114.876 189.457 120.421 202.843 130.29 212.712C140.159 222.581 153.544 228.125 167.501 228.125V228.125Z" fill="url(#paint0_linear_5338_13716)"/>
<defs>
<linearGradient id="paint0_linear_5338_13716" x1="0.820312" y1="175.492" x2="334.182" y2="175.492" gradientUnits="userSpaceOnUse">
<stop stop-color="#273592"/>
<stop offset="1" stop-color="#23ADB4"/>
</linearGradient>
</defs>
</svg>
