<svg width="20" height="19" viewBox="0 0 20 19" fill="none" xmlns="http://www.w3.org/2000/svg">
<path d="M20 5.5H11C10.7348 5.5 10.4804 5.60536 10.2929 5.79289C10.1054 5.98043 10 6.23478 10 6.5V12.5C10 12.7652 10.1054 13.0196 10.2929 13.2071C10.4804 13.3946 10.7348 13.5 11 13.5H20V17.5C20 17.7652 19.8946 18.0196 19.7071 18.2071C19.5196 18.3946 19.2652 18.5 19 18.5H1C0.734784 18.5 0.48043 18.3946 0.292893 18.2071C0.105357 18.0196 0 17.7652 0 17.5V1.5C0 1.23478 0.105357 0.98043 0.292893 0.792893C0.48043 0.605357 0.734784 0.5 1 0.5H19C19.2652 0.5 19.5196 0.605357 19.7071 0.792893C19.8946 0.98043 20 1.23478 20 1.5V5.5ZM13 8.5H16V10.5H13V8.5Z" fill="url(#paint0_linear_1043_10674)"/>
<defs>
<linearGradient id="paint0_linear_1043_10674" x1="-0.0276623" y1="18.5" x2="14.0447" y2="-3.33765" gradientUnits="userSpaceOnUse">
<stop stop-color="#273592"/>
<stop offset="1" stop-color="#23ADB4"/>
</linearGradient>
</defs>
</svg>
