<svg width="18" height="22" viewBox="0 0 18 22" fill="none" xmlns="http://www.w3.org/2000/svg">
<path d="M15.825 7.30587L16.8108 6.33087C17.0148 6.12688 17.1294 5.8502 17.1294 5.56171C17.1294 5.27321 17.0148 4.99654 16.8108 4.79254C16.6068 4.58854 16.3302 4.47394 16.0417 4.47394C15.7532 4.47394 15.4765 4.58854 15.2725 4.79254L14.2975 5.77837C12.7793 4.60388 10.9141 3.96665 8.99459 3.96665C7.07509 3.96665 5.20991 4.60388 3.69167 5.77837L2.70584 4.78171C2.50041 4.57771 2.22235 4.46368 1.93284 4.46469C1.64333 4.46571 1.36609 4.58169 1.16209 4.78712C0.958096 4.99256 0.844063 5.27061 0.845079 5.56012C0.846095 5.84963 0.962076 6.12688 1.16751 6.33087L2.16417 7.31671C0.975775 8.83071 0.330948 10.7003 0.333341 12.625C0.329804 14.0067 0.656677 15.3693 1.2867 16.599C1.91672 17.8287 2.83163 18.89 3.95513 19.6943C5.07863 20.4986 6.37814 21.0226 7.7453 21.2226C9.11246 21.4226 10.5076 21.2929 11.8145 20.8442C13.1213 20.3955 14.3019 19.6408 15.2578 18.6431C16.2137 17.6455 16.9172 16.4337 17.3097 15.1089C17.7022 13.7841 17.7722 12.3846 17.5139 11.0273C17.2556 9.66992 16.6766 8.39398 15.825 7.30587ZM9.00001 19.125C7.71443 19.125 6.45772 18.7438 5.3888 18.0296C4.31988 17.3154 3.48676 16.3002 2.99479 15.1125C2.50282 13.9248 2.3741 12.6178 2.6249 11.357C2.87571 10.0961 3.49477 8.93789 4.40381 8.02885C5.31286 7.1198 6.47104 6.50074 7.73192 6.24994C8.9928 5.99913 10.2997 6.12785 11.4874 6.61982C12.6752 7.11179 13.6903 7.94491 14.4046 9.01383C15.1188 10.0828 15.5 11.3395 15.5 12.625C15.5 14.3489 14.8152 16.0022 13.5962 17.2212C12.3772 18.4402 10.7239 19.125 9.00001 19.125ZM6.83334 2.87504H11.1667C11.454 2.87504 11.7295 2.7609 11.9327 2.55774C12.1359 2.35457 12.25 2.07903 12.25 1.79171C12.25 1.50439 12.1359 1.22884 11.9327 1.02567C11.7295 0.822511 11.454 0.708374 11.1667 0.708374H6.83334C6.54602 0.708374 6.27047 0.822511 6.06731 1.02567C5.86414 1.22884 5.75001 1.50439 5.75001 1.79171C5.75001 2.07903 5.86414 2.35457 6.06731 2.55774C6.27047 2.7609 6.54602 2.87504 6.83334 2.87504ZM10.0833 9.37504C10.0833 9.08772 9.9692 8.81217 9.76604 8.60901C9.56288 8.40584 9.28733 8.29171 9.00001 8.29171C8.71269 8.29171 8.43714 8.40584 8.23398 8.60901C8.03081 8.81217 7.91667 9.08772 7.91667 9.37504V11.4225C7.67138 11.6419 7.49848 11.9307 7.42085 12.2505C7.34323 12.5703 7.36455 12.9061 7.48198 13.2136C7.59941 13.521 7.80742 13.7856 8.07849 13.9722C8.34956 14.1588 8.67091 14.2587 9.00001 14.2587C9.32911 14.2587 9.65046 14.1588 9.92153 13.9722C10.1926 13.7856 10.4006 13.521 10.518 13.2136C10.6355 12.9061 10.6568 12.5703 10.5792 12.2505C10.5015 11.9307 10.3286 11.6419 10.0833 11.4225V9.37504Z" fill="white"/>
</svg>
