<svg width="56" height="56" viewBox="0 0 56 56" fill="none" xmlns="http://www.w3.org/2000/svg">
<g clip-path="url(#clip0_439_5665)">
<path d="M13.3149 46.0401C13.2599 45.9851 13.2049 45.9301 13.2049 45.8751V42.1351C13.6449 41.8051 13.9749 41.3101 13.9749 40.7051V36.8551C13.9749 34.9301 12.4349 33.3901 10.5099 33.3901H10.0699H9.6299C7.7049 33.3901 6.1649 34.9301 6.1649 36.8551V40.7051C6.1649 41.3101 6.4949 41.8601 6.9349 42.1351V45.8751C7.0449 45.9301 6.9899 45.9851 6.9349 46.0401C6.3849 46.3151 3.8549 47.5801 1.4349 49.5601C0.994902 49.8901 0.774902 50.4401 0.774902 50.9901V53.6301H10.1249H19.4749V50.9901C19.4749 50.4401 19.1999 49.8901 18.8149 49.5601C16.4499 47.5801 13.8649 46.3151 13.3149 46.0401ZM37.4049 19.9701C37.4049 19.4201 37.1849 18.8701 36.7449 18.5401C34.3249 16.5601 31.7949 15.2951 31.2449 15.0201C31.1899 14.9651 31.1349 14.9101 31.1349 14.8551V11.1151C31.5749 10.8401 31.9049 10.2901 31.9049 9.68512V5.83512C31.9049 3.91012 30.3649 2.37012 28.4399 2.37012H27.9999H27.6149C25.6899 2.37012 24.1499 3.91012 24.1499 5.83512V9.68512C24.1499 10.2901 24.4799 10.7851 24.9199 11.1151V14.8551C24.9199 14.9101 24.8649 14.9651 24.8099 15.0201C24.2599 15.2951 21.6749 16.5601 19.3099 18.5401C18.9249 18.8701 18.6499 19.4201 18.6499 19.9701V22.6101H27.9999H37.4049V19.9701ZM54.5099 49.5601C52.1449 47.5801 49.5599 46.3151 49.0099 46.0401C48.9549 45.9851 48.8999 45.9301 48.8999 45.8751V42.1351C49.3399 41.8051 49.6699 41.3101 49.6699 40.7051V36.8551C49.6699 34.9301 48.1299 33.3901 46.2049 33.3901H45.7649H45.3249C43.3999 33.3901 41.8599 34.9301 41.8599 36.8551V40.7051C41.9699 41.3101 42.2449 41.8051 42.7399 42.1351V45.8751C42.7399 45.9301 42.6849 45.9851 42.6299 46.0401C42.0799 46.3151 39.5499 47.5801 37.1299 49.5601C36.6899 49.8901 36.4699 50.4401 36.4699 50.9901V53.6301H45.8199H55.1699V50.9901C55.1699 50.4401 54.8949 49.8901 54.5099 49.5601Z" fill="#D4D5F2"/>
<path d="M28 27.6702C23.16 27.6702 19.2 31.6302 19.2 36.4702C19.2 41.3102 23.16 45.2702 28 45.2702C32.84 45.2702 36.8 41.3102 36.8 36.4702C36.8 31.6302 32.84 27.6702 28 27.6702ZM30.475 39.9352C30.09 40.3752 29.595 40.7052 28.99 40.8702C28.77 40.9802 28.66 41.0902 28.66 41.3652C28.66 41.6402 28.66 41.8602 28.66 42.1352C28.66 42.4102 28.55 42.5202 28.33 42.5202C28.055 42.5202 27.78 42.5202 27.505 42.5202C27.285 42.4652 27.175 42.3552 27.01 42.2452C27.01 42.0802 27.01 41.8602 27.01 41.6952C27.01 41.2552 26.955 41.2552 26.57 41.2002C26.075 41.0902 25.58 40.9802 25.085 40.7602C24.7 40.5952 24.645 40.4852 24.755 40.1002C24.865 39.7702 24.92 39.4952 25.03 39.2202C25.14 38.8902 25.195 38.8352 25.525 39.0002C26.02 39.2752 26.57 39.4402 27.175 39.4952C27.56 39.4952 27.945 39.4952 28.275 39.3302C28.935 39.0552 29.045 38.2852 28.495 37.8452C28.33 37.6802 28.11 37.5702 27.89 37.4602C27.34 37.1852 26.735 37.0202 26.185 36.6902C25.305 36.1402 24.755 35.4252 24.81 34.3802C24.92 33.1702 25.58 32.4002 26.68 32.0152C27.12 31.8502 27.12 31.9052 27.12 31.4102C27.12 31.2452 27.12 31.0802 27.12 30.9152C27.12 30.5302 27.23 30.4752 27.56 30.4752C27.67 30.4752 27.78 30.4752 27.89 30.4752C28.66 30.4752 28.66 30.4752 28.66 31.2452C28.66 31.7402 28.66 31.7402 29.21 31.8502C29.595 31.9052 29.98 32.0152 30.365 32.1802C30.585 32.2352 30.64 32.4002 30.585 32.6202C30.53 32.9502 30.42 33.2802 30.31 33.6102C30.2 33.9402 30.09 33.9952 29.815 33.8302C29.21 33.5552 28.605 33.3902 27.945 33.4452C27.78 33.4452 27.615 33.5002 27.45 33.5552C26.9 33.8302 26.79 34.4352 27.285 34.8202C27.56 34.9852 27.835 35.1502 28.11 35.2602C28.605 35.4802 29.1 35.6452 29.595 35.9202C31.135 36.7452 31.52 38.6152 30.475 39.9352Z" fill="#00DBB9"/>
</g>
<defs>
<clipPath id="clip0_439_5665">
<rect width="55" height="55" fill="white" transform="translate(0.5 0.5)"/>
</clipPath>
</defs>
</svg>
