<svg width="53" height="50" viewBox="0 0 53 50" fill="none" xmlns="http://www.w3.org/2000/svg">
<path fill-rule="evenodd" clip-rule="evenodd" d="M52.4095 13.3313H52.6668V49.1021H3.91946L3.92 41.5246H4.05541L3.91675 41.3588L14.0275 30.7449L23.1855 35.2817L32.507 25.1888L41.0113 29.6947L52.4095 13.3313Z" fill="#D4D5F2"/>
<path fill-rule="evenodd" clip-rule="evenodd" d="M15.0846 15.3764C14.7336 14.5125 13.6606 14.2612 12.8254 14.0142C11.883 13.7353 10.9026 13.4861 10.0923 12.9266C7.67824 11.2611 7.84723 7.23185 10.6437 6.01208C10.9291 5.88805 11.2308 5.80409 11.5369 5.73964L11.2823 3.76646H14.3052L14.0463 5.77322C14.5494 5.88913 15.0347 6.06787 15.4648 6.33977C16.3731 6.91445 16.866 7.83361 17.0816 8.81613L14.6675 9.2944C14.5516 8.95154 14.3674 8.63198 14.0804 8.40178C13.7446 8.13313 13.2993 8.00964 12.8601 7.99556C12.0742 7.9701 11.0483 8.17375 10.7488 8.96509C10.5825 9.40327 10.6946 9.91133 11.0293 10.2498C11.33 10.5526 12.0585 10.8684 13.2165 11.1966C14.3745 11.5249 15.2308 11.8645 15.786 12.2154C16.3406 12.5664 16.775 13.0463 17.0886 13.6546C18.0197 15.462 17.6384 18.1485 15.9295 19.4344C15.3949 19.8363 14.752 20.0892 14.082 20.2225L14.3052 21.9541H11.2823L11.5125 20.1699C10.8728 20.0107 10.2711 19.735 9.77004 19.3255C8.81134 18.5418 8.31412 17.3724 8.08717 16.1797L10.388 15.6597C10.5863 16.8946 11.5038 17.8701 12.8633 17.8701C13.6292 17.8701 14.2071 17.6757 14.596 17.2857C15.0922 16.7885 15.3527 16.0362 15.0846 15.3764ZM12.8352 25.2342C19.5552 25.2342 25.0036 19.7864 25.0036 13.0664C25.0036 6.34573 19.5552 0.897949 12.8352 0.897949C6.11507 0.897949 0.666748 6.34573 0.666748 13.0664C0.666748 19.7864 6.11507 25.2342 12.8352 25.2342Z" fill="#00DBB9"/>
</svg>
