<svg width="343" height="339" viewBox="0 0 343 339" fill="none" xmlns="http://www.w3.org/2000/svg">
<g opacity="0.3">
<g filter="url(#filter0_d_439_5412)">
<circle cx="259" cy="123" r="2" fill="url(#paint0_radial_439_5412)"/>
</g>
<g filter="url(#filter1_d_439_5412)">
<circle cx="310" cy="26" r="2" fill="url(#paint1_radial_439_5412)"/>
</g>
<g filter="url(#filter2_d_439_5412)">
<circle cx="149" cy="57" r="2" fill="url(#paint2_radial_439_5412)"/>
</g>
<g filter="url(#filter3_d_439_5412)">
<circle cx="181" cy="254" r="2" fill="url(#paint3_radial_439_5412)"/>
</g>
<g filter="url(#filter4_d_439_5412)">
<circle cx="232" cy="190" r="2" fill="url(#paint4_radial_439_5412)"/>
</g>
<g filter="url(#filter5_d_439_5412)">
<circle cx="283" cy="93" r="2" fill="url(#paint5_radial_439_5412)"/>
</g>
<g filter="url(#filter6_d_439_5412)">
<circle cx="31" cy="242" r="2" fill="url(#paint6_radial_439_5412)"/>
</g>
<g filter="url(#filter7_d_439_5412)">
<circle cx="207" cy="75" r="2" fill="url(#paint7_radial_439_5412)"/>
</g>
<g filter="url(#filter8_d_439_5412)">
<circle cx="78" cy="303" r="2" fill="url(#paint8_radial_439_5412)"/>
</g>
<circle cx="148.5" cy="177.5" r="0.5" fill="#EAE8F1"/>
<circle cx="199.5" cy="80.5" r="0.5" fill="#EAE8F1"/>
<circle cx="21.5" cy="181.5" r="0.5" fill="#EAE8F1"/>
<circle cx="70.5" cy="308.5" r="0.5" fill="#EAE8F1"/>
<circle cx="188.5" cy="187.5" r="0.5" fill="#EAE8F1"/>
<circle cx="239.5" cy="90.5" r="0.5" fill="#EAE8F1"/>
<circle cx="61.5" cy="191.5" r="0.5" fill="#EAE8F1"/>
<circle cx="110.5" cy="318.5" r="0.5" fill="#EAE8F1"/>
<circle cx="183.5" cy="147.5" r="0.5" fill="#EAE8F1"/>
<circle cx="234.5" cy="50.5" r="0.5" fill="#EAE8F1"/>
<circle cx="56.5" cy="151.5" r="0.5" fill="#EAE8F1"/>
<circle cx="105.5" cy="278.5" r="0.5" fill="#EAE8F1"/>
<circle cx="202.5" cy="152.5" r="0.5" fill="#EAE8F1"/>
<circle cx="253.5" cy="55.5" r="0.5" fill="#EAE8F1"/>
<circle cx="75.5" cy="156.5" r="0.5" fill="#EAE8F1"/>
<circle cx="124.5" cy="283.5" r="0.5" fill="#EAE8F1"/>
<circle cx="267.5" cy="155.5" r="0.5" fill="#EAE8F1"/>
<circle cx="318.5" cy="58.5" r="0.5" fill="#EAE8F1"/>
<circle cx="140.5" cy="159.5" r="0.5" fill="#EAE8F1"/>
<circle cx="189.5" cy="286.5" r="0.5" fill="#EAE8F1"/>
<circle cx="280.5" cy="114.5" r="0.5" fill="#EAE8F1"/>
<circle cx="331.5" cy="17.5" r="0.5" fill="#EAE8F1"/>
<circle cx="153.5" cy="118.5" r="0.5" fill="#EAE8F1"/>
<circle cx="202.5" cy="245.5" r="0.5" fill="#EAE8F1"/>
<circle cx="291.5" cy="97.5" r="0.5" fill="#EAE8F1"/>
<circle cx="342.5" cy="0.5" r="0.5" fill="#EAE8F1"/>
<circle cx="164.5" cy="101.5" r="0.5" fill="#EAE8F1"/>
<circle cx="213.5" cy="228.5" r="0.5" fill="#EAE8F1"/>
<circle cx="247.5" cy="100.5" r="0.5" fill="#EAE8F1"/>
<circle cx="298.5" cy="3.5" r="0.5" fill="#EAE8F1"/>
<circle cx="120.5" cy="104.5" r="0.5" fill="#EAE8F1"/>
<circle cx="169.5" cy="231.5" r="0.5" fill="#EAE8F1"/>
<circle cx="248.5" cy="134.5" r="0.5" fill="#EAE8F1"/>
<circle cx="299.5" cy="37.5" r="0.5" fill="#EAE8F1"/>
<circle cx="121.5" cy="138.5" r="0.5" fill="#EAE8F1"/>
<circle cx="170.5" cy="265.5" r="0.5" fill="#EAE8F1"/>
<circle cx="176.5" cy="138.5" r="0.5" fill="#EAE8F1"/>
<circle cx="227.5" cy="41.5" r="0.5" fill="#EAE8F1"/>
<circle cx="49.5" cy="142.5" r="0.5" fill="#EAE8F1"/>
<circle cx="98.5" cy="269.5" r="0.5" fill="#EAE8F1"/>
<circle cx="230.5" cy="173.5" r="0.5" fill="#EAE8F1"/>
<circle cx="281.5" cy="76.5" r="0.5" fill="#EAE8F1"/>
<circle cx="103.5" cy="177.5" r="0.5" fill="#EAE8F1"/>
<circle cx="152.5" cy="304.5" r="0.5" fill="#EAE8F1"/>
<circle cx="222.5" cy="192.5" r="0.5" fill="#EAE8F1"/>
<circle cx="273.5" cy="95.5" r="0.5" fill="#EAE8F1"/>
<circle cx="95.5" cy="196.5" r="0.5" fill="#EAE8F1"/>
<circle cx="144.5" cy="323.5" r="0.5" fill="#EAE8F1"/>
<circle cx="243.5" cy="207.5" r="0.5" fill="#EAE8F1"/>
<circle cx="294.5" cy="110.5" r="0.5" fill="#EAE8F1"/>
<circle cx="116.5" cy="211.5" r="0.5" fill="#EAE8F1"/>
<circle cx="165.5" cy="338.5" r="0.5" fill="#EAE8F1"/>
<circle cx="137.5" cy="173.5" r="0.5" fill="#EAE8F1"/>
<circle cx="188.5" cy="76.5" r="0.5" fill="#EAE8F1"/>
<circle cx="10.5" cy="177.5" r="0.5" fill="#EAE8F1"/>
<circle cx="59.5" cy="304.5" r="0.5" fill="#EAE8F1"/>
<circle cx="184.5" cy="165.5" r="0.5" fill="#EAE8F1"/>
<circle cx="235.5" cy="68.5" r="0.5" fill="#EAE8F1"/>
<circle cx="57.5" cy="169.5" r="0.5" fill="#EAE8F1"/>
<circle cx="106.5" cy="296.5" r="0.5" fill="#EAE8F1"/>
<circle cx="168" cy="160" r="1" fill="#EAE8F1"/>
<circle cx="219" cy="63" r="1" fill="#EAE8F1"/>
<circle cx="41" cy="164" r="1" fill="#EAE8F1"/>
<circle cx="90" cy="291" r="1" fill="#EAE8F1"/>
<circle cx="240" cy="113" r="1" fill="#EAE8F1"/>
<circle cx="291" cy="16" r="1" fill="#EAE8F1"/>
<circle cx="113" cy="117" r="1" fill="#EAE8F1"/>
<circle cx="162" cy="244" r="1" fill="#EAE8F1"/>
<circle cx="247" cy="189" r="1" fill="#EAE8F1"/>
<circle cx="298" cy="92" r="1" fill="#EAE8F1"/>
<circle cx="120" cy="193" r="1" fill="#EAE8F1"/>
<circle cx="169" cy="320" r="1" fill="#EAE8F1"/>
<circle cx="188" cy="193" r="1" fill="#EAE8F1"/>
<circle cx="239" cy="96" r="1" fill="#EAE8F1"/>
<circle cx="61" cy="197" r="1" fill="#EAE8F1"/>
<circle cx="110" cy="324" r="1" fill="#EAE8F1"/>
<circle cx="273" cy="111" r="1" fill="#EAE8F1"/>
<circle cx="324" cy="14" r="1" fill="#EAE8F1"/>
<circle cx="146" cy="115" r="1" fill="#EAE8F1"/>
<circle cx="195" cy="242" r="1" fill="#EAE8F1"/>
<circle cx="143" cy="154" r="1" fill="#EAE8F1"/>
<circle cx="194" cy="57" r="1" fill="#EAE8F1"/>
<circle cx="16" cy="158" r="1" fill="#EAE8F1"/>
<circle cx="65" cy="285" r="1" fill="#EAE8F1"/>
<circle cx="127.5" cy="159.5" r="0.5" fill="#EAE8F1"/>
<circle cx="178.5" cy="62.5" r="0.5" fill="#EAE8F1"/>
<circle cx="0.5" cy="163.5" r="0.5" fill="#EAE8F1"/>
<circle cx="49.5" cy="290.5" r="0.5" fill="#EAE8F1"/>
<circle cx="202.5" cy="141.5" r="0.5" fill="#EAE8F1"/>
<circle cx="253.5" cy="44.5" r="0.5" fill="#EAE8F1"/>
<circle cx="75.5" cy="145.5" r="0.5" fill="#EAE8F1"/>
<circle cx="124.5" cy="272.5" r="0.5" fill="#EAE8F1"/>
<circle cx="243.5" cy="105.5" r="0.5" fill="#EAE8F1"/>
<circle cx="294.5" cy="8.5" r="0.5" fill="#EAE8F1"/>
<circle cx="116.5" cy="109.5" r="0.5" fill="#EAE8F1"/>
<circle cx="165.5" cy="236.5" r="0.5" fill="#EAE8F1"/>
<circle cx="259.5" cy="135.5" r="0.5" fill="#EAE8F1"/>
<circle cx="310.5" cy="38.5" r="0.5" fill="#EAE8F1"/>
<circle cx="132.5" cy="139.5" r="0.5" fill="#EAE8F1"/>
<circle cx="181.5" cy="266.5" r="0.5" fill="#EAE8F1"/>
<circle cx="279.5" cy="109.5" r="0.5" fill="#EAE8F1"/>
<circle cx="330.5" cy="12.5" r="0.5" fill="#EAE8F1"/>
<circle cx="152.5" cy="113.5" r="0.5" fill="#EAE8F1"/>
<circle cx="201.5" cy="240.5" r="0.5" fill="#EAE8F1"/>
</g>
<defs>
<filter id="filter0_d_439_5412" x="253" y="117" width="12" height="12" filterUnits="userSpaceOnUse" color-interpolation-filters="sRGB">
<feFlood flood-opacity="0" result="BackgroundImageFix"/>
<feColorMatrix in="SourceAlpha" type="matrix" values="0 0 0 0 0 0 0 0 0 0 0 0 0 0 0 0 0 0 127 0" result="hardAlpha"/>
<feOffset/>
<feGaussianBlur stdDeviation="2"/>
<feComposite in2="hardAlpha" operator="out"/>
<feColorMatrix type="matrix" values="0 0 0 0 1 0 0 0 0 1 0 0 0 0 1 0 0 0 1 0"/>
<feBlend mode="normal" in2="BackgroundImageFix" result="effect1_dropShadow_439_5412"/>
<feBlend mode="normal" in="SourceGraphic" in2="effect1_dropShadow_439_5412" result="shape"/>
</filter>
<filter id="filter1_d_439_5412" x="304" y="20" width="12" height="12" filterUnits="userSpaceOnUse" color-interpolation-filters="sRGB">
<feFlood flood-opacity="0" result="BackgroundImageFix"/>
<feColorMatrix in="SourceAlpha" type="matrix" values="0 0 0 0 0 0 0 0 0 0 0 0 0 0 0 0 0 0 127 0" result="hardAlpha"/>
<feOffset/>
<feGaussianBlur stdDeviation="2"/>
<feComposite in2="hardAlpha" operator="out"/>
<feColorMatrix type="matrix" values="0 0 0 0 1 0 0 0 0 1 0 0 0 0 1 0 0 0 1 0"/>
<feBlend mode="normal" in2="BackgroundImageFix" result="effect1_dropShadow_439_5412"/>
<feBlend mode="normal" in="SourceGraphic" in2="effect1_dropShadow_439_5412" result="shape"/>
</filter>
<filter id="filter2_d_439_5412" x="143" y="51" width="12" height="12" filterUnits="userSpaceOnUse" color-interpolation-filters="sRGB">
<feFlood flood-opacity="0" result="BackgroundImageFix"/>
<feColorMatrix in="SourceAlpha" type="matrix" values="0 0 0 0 0 0 0 0 0 0 0 0 0 0 0 0 0 0 127 0" result="hardAlpha"/>
<feOffset/>
<feGaussianBlur stdDeviation="2"/>
<feComposite in2="hardAlpha" operator="out"/>
<feColorMatrix type="matrix" values="0 0 0 0 1 0 0 0 0 1 0 0 0 0 1 0 0 0 1 0"/>
<feBlend mode="normal" in2="BackgroundImageFix" result="effect1_dropShadow_439_5412"/>
<feBlend mode="normal" in="SourceGraphic" in2="effect1_dropShadow_439_5412" result="shape"/>
</filter>
<filter id="filter3_d_439_5412" x="175" y="248" width="12" height="12" filterUnits="userSpaceOnUse" color-interpolation-filters="sRGB">
<feFlood flood-opacity="0" result="BackgroundImageFix"/>
<feColorMatrix in="SourceAlpha" type="matrix" values="0 0 0 0 0 0 0 0 0 0 0 0 0 0 0 0 0 0 127 0" result="hardAlpha"/>
<feOffset/>
<feGaussianBlur stdDeviation="2"/>
<feComposite in2="hardAlpha" operator="out"/>
<feColorMatrix type="matrix" values="0 0 0 0 1 0 0 0 0 1 0 0 0 0 1 0 0 0 1 0"/>
<feBlend mode="normal" in2="BackgroundImageFix" result="effect1_dropShadow_439_5412"/>
<feBlend mode="normal" in="SourceGraphic" in2="effect1_dropShadow_439_5412" result="shape"/>
</filter>
<filter id="filter4_d_439_5412" x="226" y="184" width="12" height="12" filterUnits="userSpaceOnUse" color-interpolation-filters="sRGB">
<feFlood flood-opacity="0" result="BackgroundImageFix"/>
<feColorMatrix in="SourceAlpha" type="matrix" values="0 0 0 0 0 0 0 0 0 0 0 0 0 0 0 0 0 0 127 0" result="hardAlpha"/>
<feOffset/>
<feGaussianBlur stdDeviation="2"/>
<feComposite in2="hardAlpha" operator="out"/>
<feColorMatrix type="matrix" values="0 0 0 0 1 0 0 0 0 1 0 0 0 0 1 0 0 0 1 0"/>
<feBlend mode="normal" in2="BackgroundImageFix" result="effect1_dropShadow_439_5412"/>
<feBlend mode="normal" in="SourceGraphic" in2="effect1_dropShadow_439_5412" result="shape"/>
</filter>
<filter id="filter5_d_439_5412" x="277" y="87" width="12" height="12" filterUnits="userSpaceOnUse" color-interpolation-filters="sRGB">
<feFlood flood-opacity="0" result="BackgroundImageFix"/>
<feColorMatrix in="SourceAlpha" type="matrix" values="0 0 0 0 0 0 0 0 0 0 0 0 0 0 0 0 0 0 127 0" result="hardAlpha"/>
<feOffset/>
<feGaussianBlur stdDeviation="2"/>
<feComposite in2="hardAlpha" operator="out"/>
<feColorMatrix type="matrix" values="0 0 0 0 1 0 0 0 0 1 0 0 0 0 1 0 0 0 1 0"/>
<feBlend mode="normal" in2="BackgroundImageFix" result="effect1_dropShadow_439_5412"/>
<feBlend mode="normal" in="SourceGraphic" in2="effect1_dropShadow_439_5412" result="shape"/>
</filter>
<filter id="filter6_d_439_5412" x="25" y="236" width="12" height="12" filterUnits="userSpaceOnUse" color-interpolation-filters="sRGB">
<feFlood flood-opacity="0" result="BackgroundImageFix"/>
<feColorMatrix in="SourceAlpha" type="matrix" values="0 0 0 0 0 0 0 0 0 0 0 0 0 0 0 0 0 0 127 0" result="hardAlpha"/>
<feOffset/>
<feGaussianBlur stdDeviation="2"/>
<feComposite in2="hardAlpha" operator="out"/>
<feColorMatrix type="matrix" values="0 0 0 0 1 0 0 0 0 1 0 0 0 0 1 0 0 0 1 0"/>
<feBlend mode="normal" in2="BackgroundImageFix" result="effect1_dropShadow_439_5412"/>
<feBlend mode="normal" in="SourceGraphic" in2="effect1_dropShadow_439_5412" result="shape"/>
</filter>
<filter id="filter7_d_439_5412" x="201" y="69" width="12" height="12" filterUnits="userSpaceOnUse" color-interpolation-filters="sRGB">
<feFlood flood-opacity="0" result="BackgroundImageFix"/>
<feColorMatrix in="SourceAlpha" type="matrix" values="0 0 0 0 0 0 0 0 0 0 0 0 0 0 0 0 0 0 127 0" result="hardAlpha"/>
<feOffset/>
<feGaussianBlur stdDeviation="2"/>
<feComposite in2="hardAlpha" operator="out"/>
<feColorMatrix type="matrix" values="0 0 0 0 1 0 0 0 0 1 0 0 0 0 1 0 0 0 1 0"/>
<feBlend mode="normal" in2="BackgroundImageFix" result="effect1_dropShadow_439_5412"/>
<feBlend mode="normal" in="SourceGraphic" in2="effect1_dropShadow_439_5412" result="shape"/>
</filter>
<filter id="filter8_d_439_5412" x="72" y="297" width="12" height="12" filterUnits="userSpaceOnUse" color-interpolation-filters="sRGB">
<feFlood flood-opacity="0" result="BackgroundImageFix"/>
<feColorMatrix in="SourceAlpha" type="matrix" values="0 0 0 0 0 0 0 0 0 0 0 0 0 0 0 0 0 0 127 0" result="hardAlpha"/>
<feOffset/>
<feGaussianBlur stdDeviation="2"/>
<feComposite in2="hardAlpha" operator="out"/>
<feColorMatrix type="matrix" values="0 0 0 0 1 0 0 0 0 1 0 0 0 0 1 0 0 0 1 0"/>
<feBlend mode="normal" in2="BackgroundImageFix" result="effect1_dropShadow_439_5412"/>
<feBlend mode="normal" in="SourceGraphic" in2="effect1_dropShadow_439_5412" result="shape"/>
</filter>
<radialGradient id="paint0_radial_439_5412" cx="0" cy="0" r="1" gradientUnits="userSpaceOnUse" gradientTransform="translate(259.5 123.5) rotate(146.31) scale(1.80278)">
<stop stop-color="#EAE8F1"/>
<stop offset="1" stop-color="#AF9BB8"/>
</radialGradient>
<radialGradient id="paint1_radial_439_5412" cx="0" cy="0" r="1" gradientUnits="userSpaceOnUse" gradientTransform="translate(310.5 26.5) rotate(146.31) scale(1.80278)">
<stop stop-color="#EAE8F1"/>
<stop offset="1" stop-color="#AF9BB8"/>
</radialGradient>
<radialGradient id="paint2_radial_439_5412" cx="0" cy="0" r="1" gradientUnits="userSpaceOnUse" gradientTransform="translate(149.5 57.5) rotate(146.31) scale(1.80278)">
<stop stop-color="#EAE8F1"/>
<stop offset="1" stop-color="#AF9BB8"/>
</radialGradient>
<radialGradient id="paint3_radial_439_5412" cx="0" cy="0" r="1" gradientUnits="userSpaceOnUse" gradientTransform="translate(181.5 254.5) rotate(146.31) scale(1.80278)">
<stop stop-color="#EAE8F1"/>
<stop offset="1" stop-color="#AF9BB8"/>
</radialGradient>
<radialGradient id="paint4_radial_439_5412" cx="0" cy="0" r="1" gradientUnits="userSpaceOnUse" gradientTransform="translate(232.5 190.5) rotate(146.31) scale(1.80278)">
<stop stop-color="#EAE8F1"/>
<stop offset="1" stop-color="#AF9BB8"/>
</radialGradient>
<radialGradient id="paint5_radial_439_5412" cx="0" cy="0" r="1" gradientUnits="userSpaceOnUse" gradientTransform="translate(283.5 93.5) rotate(146.31) scale(1.80278)">
<stop stop-color="#EAE8F1"/>
<stop offset="1" stop-color="#AF9BB8"/>
</radialGradient>
<radialGradient id="paint6_radial_439_5412" cx="0" cy="0" r="1" gradientUnits="userSpaceOnUse" gradientTransform="translate(31.5 242.5) rotate(146.31) scale(1.80278)">
<stop stop-color="#EAE8F1"/>
<stop offset="1" stop-color="#AF9BB8"/>
</radialGradient>
<radialGradient id="paint7_radial_439_5412" cx="0" cy="0" r="1" gradientUnits="userSpaceOnUse" gradientTransform="translate(207.5 75.5) rotate(146.31) scale(1.80278)">
<stop stop-color="#EAE8F1"/>
<stop offset="1" stop-color="#AF9BB8"/>
</radialGradient>
<radialGradient id="paint8_radial_439_5412" cx="0" cy="0" r="1" gradientUnits="userSpaceOnUse" gradientTransform="translate(78.5 303.5) rotate(146.31) scale(1.80278)">
<stop stop-color="#EAE8F1"/>
<stop offset="1" stop-color="#AF9BB8"/>
</radialGradient>
</defs>
</svg>
