<svg width="105" height="18" viewBox="0 0 105 18" fill="none" xmlns="http://www.w3.org/2000/svg">
<path fill-rule="evenodd" clip-rule="evenodd" d="M0 0.279302H9.19325C10.725 0.279302 11.902 0.674541 12.7197 1.45975C13.5409 2.24496 13.9519 3.21812 13.9519 4.37573C13.9519 5.3489 13.6595 6.18417 13.0745 6.88155C12.6828 7.34441 12.1128 7.71243 11.3618 7.98119C12.501 8.264 13.3415 8.75498 13.8817 9.44445C14.4174 10.1383 14.688 11.0078 14.688 12.0539C14.688 12.9076 14.4956 13.6744 14.1144 14.3559C13.7297 15.0384 13.208 15.575 12.5422 15.9729C12.1312 16.2188 11.5094 16.3989 10.6776 16.5096C9.57093 16.6589 8.83842 16.7353 8.47568 16.7353H0V0.279302ZM4.95366 6.73575H7.08883C7.85471 6.73575 8.38697 6.59785 8.69086 6.32558C8.99036 6.04979 9.13792 5.65543 9.13792 5.14162C9.13792 4.66294 8.99036 4.28702 8.69086 4.01914C8.38697 3.74686 7.86525 3.61248 7.1222 3.61248H4.95366V6.73575ZM4.95366 13.1992H7.45859C8.30528 13.1992 8.90166 13.0464 9.24507 12.7355C9.59288 12.4254 9.76679 12.0074 9.76679 11.483C9.76679 10.9964 9.59727 10.6056 9.25298 10.3105C8.90868 10.0153 8.30968 9.86604 7.44718 9.86604H4.95366V13.1992ZM16.4235 10.8085C16.4235 8.99212 17.0146 7.49021 18.1985 6.31416C19.3869 5.13371 20.9845 4.54437 23.0011 4.54437C25.3067 4.54437 27.0493 5.23735 28.2253 6.62069C29.173 7.73526 29.6464 9.11069 29.6464 10.7435C29.6464 12.5747 29.058 14.0766 27.8854 15.2492C26.712 16.4173 25.088 17.004 23.0126 17.004C21.1628 17.004 19.668 16.5175 18.5244 15.5443C17.1226 14.341 16.4235 12.7627 16.4235 10.8085ZM20.844 10.797C20.844 11.8624 21.0513 12.6476 21.4694 13.1535C21.8839 13.663 22.4056 13.9194 23.0345 13.9194C23.6713 13.9194 24.193 13.6665 24.5997 13.165C25.0107 12.6626 25.2136 11.8624 25.2136 10.7505C25.2136 9.72024 25.0063 8.94996 24.5961 8.44406C24.1851 7.94254 23.6748 7.68959 23.0679 7.68959C22.4241 7.68959 21.8918 7.94606 21.4729 8.45547C21.0548 8.96928 20.844 9.75098 20.844 10.797ZM31.7702 4.81576H35.8806V6.75507C36.4946 5.96196 37.1164 5.39808 37.7453 5.0573C38.3742 4.71652 39.1401 4.54437 40.043 4.54437C41.2638 4.54437 42.2185 4.92292 42.9098 5.67387C43.5983 6.42483 43.9426 7.58595 43.9426 9.15724V16.7353H39.5098V10.1805C39.5098 9.43303 39.3763 8.90429 39.1102 8.59425C38.8405 8.27981 38.4664 8.12611 37.9816 8.12611C37.4493 8.12611 37.0128 8.3369 36.6834 8.75498C36.3505 9.17217 36.1837 9.92752 36.1837 11.0114V16.7353H31.7702V4.81576ZM50.5985 8.67417L46.3843 8.21482C46.5433 7.45245 46.7726 6.8508 47.0721 6.41341C47.3716 5.97689 47.8011 5.59746 48.3676 5.276C48.7707 5.04237 49.3293 4.86231 50.0355 4.73584C50.7425 4.60936 51.5084 4.54437 52.3331 4.54437C53.6541 4.54437 54.7195 4.62078 55.5187 4.77361C56.3215 4.92731 56.9917 5.24877 57.5239 5.73535C57.9016 6.07262 58.1976 6.54779 58.4163 7.16436C58.6306 7.78533 58.7377 8.37116 58.7377 8.93503V14.1996C58.7377 14.7591 58.7746 15.1991 58.8414 15.5171C58.9117 15.835 59.0592 16.2417 59.2928 16.7353H55.1525C54.9865 16.4288 54.8785 16.1951 54.8266 16.0344C54.7748 15.8737 54.7274 15.6207 54.6756 15.2755C54.0985 15.8543 53.5206 16.2645 52.9515 16.5096C52.1706 16.8389 51.2642 17.004 50.2322 17.004C48.8594 17.004 47.816 16.6747 47.1019 16.0151C46.3914 15.3599 46.0365 14.5483 46.0365 13.5822C46.0365 12.674 46.2912 11.9309 46.8059 11.3486C47.3197 10.7628 48.2639 10.3298 49.6437 10.0461C51.3011 9.70092 52.3744 9.45938 52.8663 9.32149C53.3546 9.18359 53.8763 9.00003 54.4235 8.77781C54.4235 8.21482 54.3128 7.82397 54.0906 7.59737C53.8649 7.37515 53.4732 7.2601 52.9067 7.2601C52.1856 7.2601 51.6454 7.38306 51.2827 7.6202C51.0016 7.80816 50.7724 8.16124 50.5985 8.67417ZM54.4235 11.0763C53.8166 11.3029 53.1842 11.5014 52.5299 11.6745C51.634 11.9195 51.064 12.1646 50.8277 12.4026C50.58 12.6512 50.4579 12.9313 50.4579 13.2449C50.4579 13.605 50.58 13.8966 50.8198 14.1267C51.064 14.3524 51.4197 14.4675 51.8896 14.4675C52.3814 14.4675 52.8364 14.3445 53.2624 14.0995C53.684 13.8509 53.9835 13.5479 54.1609 13.1957C54.3383 12.8391 54.4235 12.3754 54.4235 11.8089V11.0763ZM66.2965 4.81576H68.3983V8.16124H66.2965V16.7353H61.8716V8.16124H60.2247V4.81576H61.8716V4.2756C61.8716 3.78902 61.9234 3.25238 62.0235 2.67006C62.1271 2.08774 62.3151 1.60906 62.5926 1.24105C62.8702 0.869525 63.2628 0.5709 63.7617 0.340784C64.2649 0.115058 65.0018 0 65.9706 0C66.7444 0 67.8651 0.091344 69.3416 0.279302L68.8532 3.04158C68.3236 2.95024 67.8985 2.90808 67.5726 2.90808C67.1774 2.90808 66.892 2.97659 66.7181 3.11448C66.5442 3.25238 66.4221 3.47107 66.3483 3.7697C66.3114 3.93482 66.2965 4.28351 66.2965 4.81576ZM70.1847 0.279302H74.5991V3.39027H70.1847V0.279302ZM70.1847 4.81576H74.5991V16.7353H70.1847V4.81576ZM89.5348 0.279302V16.7353H85.4058V14.9734C84.8253 15.72 84.3 16.2259 83.8222 16.4902C83.1863 16.8319 82.4793 17.004 81.6985 17.004C80.1298 17.004 78.9309 16.3875 78.1027 15.1535C77.2771 13.9194 76.8634 12.4175 76.8634 10.6512C76.8634 8.67417 77.3184 7.16436 78.2353 6.1183C79.1496 5.06872 80.3116 4.54437 81.7169 4.54437C82.4055 4.54437 83.0274 4.66645 83.5895 4.90447C84.1481 5.14513 84.6434 5.50172 85.08 5.9804V0.279302H89.5348ZM85.1098 10.7435C85.1098 9.80456 84.921 9.10718 84.5363 8.64782C84.1551 8.18759 83.6712 7.95747 83.0862 7.95747C82.5715 7.95747 82.1429 8.17969 81.7951 8.6206C81.4473 9.06151 81.2734 9.80104 81.2734 10.8427C81.2734 11.8159 81.4543 12.5291 81.81 12.9805C82.1684 13.4328 82.6128 13.6595 83.138 13.6595C83.7037 13.6595 84.1736 13.4328 84.5477 12.977C84.9245 12.5176 85.1098 11.7737 85.1098 10.7435ZM105 11.9081H96.1572C96.2354 12.6432 96.4277 13.1878 96.7307 13.5479C97.1567 14.0652 97.7153 14.3217 98.3995 14.3217C98.8325 14.3217 99.2471 14.211 99.6353 13.9844C99.876 13.843 100.132 13.5936 100.405 13.2335L104.752 13.6472C104.087 14.8469 103.287 15.705 102.348 16.2259C101.408 16.7432 100.061 17.004 98.3038 17.004C96.779 17.004 95.5801 16.7818 94.7036 16.3374C93.8306 15.893 93.1051 15.1842 92.5315 14.2145C91.958 13.2449 91.6699 12.1075 91.6699 10.797C91.6699 8.93503 92.247 7.42522 93.3976 6.27551C94.5516 5.12229 96.1431 4.54437 98.1738 4.54437C99.8206 4.54437 101.122 4.80435 102.073 5.32167C103.028 5.83548 103.757 6.58643 104.253 7.56311C104.752 8.54418 105 9.81949 105 11.3908V11.9081ZM100.516 9.72024C100.428 8.8349 100.197 8.2034 99.8276 7.82397C99.4544 7.44015 98.966 7.24868 98.3591 7.24868C97.6556 7.24868 97.097 7.54028 96.6754 8.11469C96.4093 8.4748 96.2389 9.00793 96.1686 9.72024H100.516Z" fill="white"/>
</svg>
