<svg width="214" height="60" viewBox="0 0 214 60" fill="none" xmlns="http://www.w3.org/2000/svg">
<path d="M92.775 24.64L90.29 21.245H79.755L78.075 23.555V35.945L79.755 38.22H90.255L92.775 34.825L95.75 37.135L92.075 42H77.9L74.33 37.24V22.26L77.9 17.5H92.11L95.785 22.365L92.775 24.64ZM109.764 30.485L107.664 28.945H103.954L102.589 29.995V42H98.9492V25.27H102.589V26.635L104.059 25.27H108.889L111.864 27.545L109.764 30.485ZM127.261 42.07H118.686L114.766 39.165V28.175L118.686 25.305H127.261L131.146 28.175V39.165L127.261 42.07ZM127.471 30.065L126.001 28.945H119.911L118.441 30.065V37.275L119.911 38.395H126.001L127.471 37.275V30.065ZM147.346 42H139.296L137.931 40.915V49.77H134.291V25.305H137.931V26.565L139.226 25.27H147.346L150.916 28.315V38.955L147.346 42ZM147.276 30.135L146.016 29.015H139.821L137.931 30.94V37.1L139.401 38.22H146.016L147.276 37.17V30.135ZM167.136 42H159.086L157.721 40.915V49.77H154.081V25.305H157.721V26.565L159.016 25.27H167.136L170.706 28.315V38.955L167.136 42ZM167.066 30.135L165.806 29.015H159.611L157.721 30.94V37.1L159.191 38.22H165.806L167.066 37.17V30.135ZM177.196 34.965V37.24L178.666 38.325H185.281L187.731 36.26L190.146 39.13L186.576 42H177.441L173.521 39.095V28.175L177.441 25.305H186.576L190.181 28.245V34.965H177.196ZM186.506 29.96L185.281 28.945H178.666L177.196 30.065V31.465H186.506V29.96ZM204.134 30.485L202.034 28.945H198.324L196.959 29.995V42H193.319V25.27H196.959V26.635L198.429 25.27H203.259L206.234 27.545L204.134 30.485Z" fill="white"/>
<circle cx="30" cy="30" r="30" fill="url(#paint0_linear_1603_17000)"/>
<ellipse cx="30.0562" cy="29.9438" rx="27.2472" ry="27.2472" fill="black"/>
<path d="M33.293 20.975C26.4416 21.0495 18.9371 26.3107 16.5312 32.7262C21.6176 29.0671 26.7042 31.7797 32.203 32.3128C37.7019 32.846 36.8589 32.4534 41.3423 32.4564C43.7482 26.0409 40.1444 20.9005 33.293 20.975Z" fill="url(#paint1_linear_1603_17000)"/>
<path d="M24.5419 46.0006C17.8113 45.9905 14.2075 40.85 16.4926 34.5192C23.3349 30.2087 27.7767 35.0927 40.8663 34.556C38.5812 40.8869 31.2725 46.0108 24.5419 46.0006Z" fill="url(#paint2_linear_1603_17000)"/>
<path d="M33.2931 20.975C26.4417 21.0495 18.9373 26.3107 16.5314 32.7262C21.6178 29.0671 26.7044 31.7797 32.2032 32.3128C37.702 32.8459 36.859 32.4533 41.3425 32.4564C43.7483 26.0409 40.1445 20.9005 33.2931 20.975Z" fill="url(#paint3_linear_1603_17000)"/>
<path d="M24.5421 46.0006C17.8115 45.9905 14.2077 40.85 16.4928 34.5192C23.3351 30.2087 27.7769 35.0927 40.8665 34.556C38.5814 40.8869 31.2727 46.0108 24.5421 46.0006Z" fill="url(#paint4_linear_1603_17000)"/>
<path d="M40.0467 28.1274C42.7714 25.4027 41.9572 23.643 39.3551 17.3042" stroke="url(#paint5_linear_1603_17000)" stroke-width="1.5"/>
<path d="M40.9949 20.558C44.3604 21.5271 47.8743 19.5845 48.8434 16.219V16.219L48.2577 16.0503C44.8922 15.0812 41.3783 17.0238 40.4092 20.3893V20.3893L40.9949 20.558Z" fill="url(#paint6_linear_1603_17000)"/>
<path d="M40.7474 18.5444C41.2044 15.0721 38.76 11.8867 35.2877 11.4297V11.4297L35.2082 12.034C34.7512 15.5063 37.1955 18.6917 40.6678 19.1487V19.1487L40.7474 18.5444Z" fill="url(#paint7_linear_1603_17000)"/>
<defs>
<linearGradient id="paint0_linear_1603_17000" x1="30" y1="0" x2="30" y2="60" gradientUnits="userSpaceOnUse">
<stop stop-color="#13ECAB"/>
<stop offset="1" stop-color="#C834F7"/>
</linearGradient>
<linearGradient id="paint1_linear_1603_17000" x1="27.9256" y1="37.7487" x2="27.7696" y2="20.1076" gradientUnits="userSpaceOnUse">
<stop stop-color="#C834F7"/>
<stop offset="0.384725" stop-color="#718BD3"/>
<stop offset="0.848958" stop-color="#13ECAB"/>
</linearGradient>
<linearGradient id="paint2_linear_1603_17000" x1="24.542" y1="46.0007" x2="24.6695" y2="34.4932" gradientUnits="userSpaceOnUse">
<stop offset="0.0001" stop-color="#C833F7"/>
<stop offset="0.963542" stop-color="#7E7ED8"/>
</linearGradient>
<linearGradient id="paint3_linear_1603_17000" x1="27.9258" y1="37.7487" x2="27.7698" y2="20.1076" gradientUnits="userSpaceOnUse">
<stop stop-color="#C834F7"/>
<stop offset="0.384725" stop-color="#718BD3"/>
<stop offset="0.848958" stop-color="#13ECAB"/>
</linearGradient>
<linearGradient id="paint4_linear_1603_17000" x1="24.5422" y1="46.0007" x2="24.6697" y2="34.4932" gradientUnits="userSpaceOnUse">
<stop offset="0.0001" stop-color="#C833F7"/>
<stop offset="0.963542" stop-color="#7E7ED8"/>
</linearGradient>
<linearGradient id="paint5_linear_1603_17000" x1="41.3652" y1="21.1481" x2="36.0763" y2="32.5116" gradientUnits="userSpaceOnUse">
<stop stop-color="#13ECAB"/>
<stop offset="0.343329" stop-color="#31CDB8"/>
<stop offset="0.487741" stop-color="#4DB1C4"/>
<stop offset="0.854972" stop-color="#817CDA"/>
</linearGradient>
<linearGradient id="paint6_linear_1603_17000" x1="44.8457" y1="17.5424" x2="38.9809" y2="24.3887" gradientUnits="userSpaceOnUse">
<stop stop-color="#13ECAB"/>
<stop offset="1" stop-color="#7E7ED8"/>
</linearGradient>
<linearGradient id="paint7_linear_1603_17000" x1="37.1919" y1="15.1858" x2="44.8353" y2="19.9653" gradientUnits="userSpaceOnUse">
<stop stop-color="#13ECAB"/>
<stop offset="1" stop-color="#7E7ED8"/>
</linearGradient>
</defs>
</svg>
