<svg width="50" height="44" viewBox="0 0 50 44" fill="none" xmlns="http://www.w3.org/2000/svg">
<g clip-path="url(#clip0_391_3451)">
<path d="M14.1357 0.00229219C26.089 -0.00137442 38.0431 -0.00137442 49.9979 0.00229219C50.0016 3.86607 50.0016 7.72918 49.9979 11.5916C38.0443 11.5953 26.0902 11.5953 14.1357 11.5916C14.1319 7.72784 14.1319 3.86473 14.1357 0.00229219Z" fill="#02A6C2"/>
<path d="M0.0149998 15.9518C3.87144 15.9318 7.72855 15.9318 11.5863 15.9518C11.6063 19.8082 11.6063 23.6653 11.5863 27.5231C7.72872 27.5429 3.87161 27.5433 0.0149998 27.5241C-0.00499992 23.667 -0.00499992 19.8096 0.0149998 15.9518Z" fill="#5FCADE"/>
<path d="M14.1463 15.9523C22.774 15.9339 31.4011 15.9339 40.0277 15.9523C40.046 19.8087 40.046 23.6658 40.0277 27.5236C31.4001 27.5416 22.773 27.5416 14.1463 27.5236C14.1283 23.667 14.1283 19.8099 14.1463 15.9523Z" fill="#5FCADE"/>
<path d="M14.1528 31.905C18.0027 31.8631 21.852 31.8631 25.7006 31.905C25.7406 35.7524 25.7412 39.6017 25.7023 43.4528C21.8524 43.4908 18.0032 43.4901 14.1548 43.4508C14.1148 39.6037 14.1141 35.7551 14.1528 31.905Z" fill="#ABEBF4"/>
</g>
<defs>
<clipPath id="clip0_391_3451">
<rect width="50" height="43.4811" fill="white"/>
</clipPath>
</defs>
</svg>
