<svg width="57" height="67" viewBox="0 0 57 67" fill="none" xmlns="http://www.w3.org/2000/svg">
<path d="M23.4196 21.951L23.0334 21.5621C22.7409 21.2701 22.2385 21.4769 22.2385 21.8911V27.4441C22.2385 27.7006 22.4489 27.9092 22.706 27.9092H28.2604C28.6746 27.9092 28.883 27.4076 28.5885 27.116C28.407 26.9344 28.407 26.6403 28.5885 26.4592L34.4962 20.5333C34.6782 20.3527 34.6782 20.0588 34.4962 19.8764L33.958 19.3401C33.6656 19.048 33.874 18.5463 34.2869 18.5463H39.838C40.0947 18.5463 40.3047 18.7548 40.3047 19.0115V24.564C40.3047 24.9782 39.8014 25.1855 39.5083 24.893L39.1341 24.5189C38.9513 24.3323 38.6573 24.3323 38.4785 24.5189L28.5181 34.4745C28.3373 34.6557 28.0438 34.6557 27.8606 34.4745L15.6749 22.2887C15.4917 22.1055 15.4917 21.811 15.6749 21.629L32.5441 4.76054C32.7253 4.57895 32.7253 4.28267 32.5441 4.10188L28.5774 0.135594C28.3958 -0.0451981 28.1018 -0.0451981 27.9194 0.135594L6.08091 21.9749C5.90011 22.1565 5.90011 22.4527 6.08091 22.6335L27.9171 44.4696C28.0987 44.6501 28.3952 44.6501 28.576 44.4696L50.4111 22.6335C50.5916 22.4519 50.5916 22.1572 50.4111 21.9763L37.5646 9.12967C37.3849 8.94888 37.0894 8.94888 36.9074 9.12967L24.0807 21.9511C23.8975 22.1343 23.6028 22.1343 23.4196 21.9511V21.951Z" fill="#DE5959"/>
<path d="M40.3317 59.1863C39.9972 59.1863 39.7087 59.306 39.4668 59.547C39.228 59.7882 39.106 60.0729 39.106 60.4027C39.106 60.9052 39.361 61.2963 39.8674 61.5756C40.4228 61.7272 40.8692 61.6285 41.2052 61.2847C41.4487 61.042 41.5676 60.7511 41.5676 60.4121C41.5676 60.0698 41.4487 59.7837 41.2052 59.5471C40.9641 59.3084 40.6747 59.1895 40.3309 59.1895V59.1863H40.3317V59.1863ZM20.6174 49.8607H19.703C19.308 49.8607 18.9862 50.1788 18.9862 50.5747V51.0849C18.0146 50.073 16.9123 49.5667 15.6812 49.5667C14.261 49.5667 13.0752 50.0955 12.129 51.1502C11.1809 52.2049 10.7096 53.524 10.7096 55.106C10.7096 56.7152 11.1817 58.0616 12.1271 59.138C13.083 60.1933 14.2882 60.7199 15.7481 60.7199C16.9027 60.7199 17.9826 60.2485 18.9872 59.3082V60.317C18.9872 60.8069 19.3854 61.2052 19.8742 61.2052H21.4352V50.6782C21.4351 50.2279 21.0687 49.8607 20.6173 49.8607H20.6174ZM18.3061 57.6082C17.7486 58.2297 17.0205 58.54 16.1159 58.54C15.27 58.54 14.5685 58.2203 14.0133 57.5763C13.4715 56.9424 13.2009 56.1164 13.2009 55.1046C13.2009 54.1588 13.4796 53.3623 14.0348 52.72C14.5978 52.0837 15.299 51.7679 16.1374 51.7679C17.0264 51.7679 17.7478 52.0822 18.3039 52.7138C18.8611 53.3562 19.14 54.1713 19.14 55.1607C19.14 56.1507 18.8612 56.9666 18.3039 57.6098H18.3062V57.6082H18.3061ZM10.708 51.6427V50.5996C10.708 50.1905 10.3783 49.8623 9.97067 49.8623H9.00666C8.60063 49.8623 8.27011 50.189 8.27011 50.598V51.0523C7.38844 50.0629 6.28298 49.5667 4.95372 49.5667C3.43649 49.5667 2.21395 50.1399 1.28992 51.2794C0.429762 52.3543 0 53.6625 0 55.2025C0 56.7838 0.463133 58.1044 1.38876 59.1583C2.30642 60.2013 3.48364 60.7185 4.92178 60.7185C6.18478 60.7185 7.30171 60.2255 8.27003 59.2353V60.7092C8.27003 62.8994 7.37801 63.9945 5.59398 63.9945C4.62534 63.9945 3.88959 63.6648 3.38401 63.0068C3.25498 62.8403 3.14794 62.6334 3.0628 62.3838C2.94333 62.0346 2.61122 61.8028 2.24406 61.8028H1.32018C0.854264 61.8028 0.507812 62.2461 0.625527 62.6972C0.878318 63.6585 1.36638 64.4394 2.09281 65.043C3.00331 65.802 4.16372 66.1817 5.57152 66.1817C7.24023 66.1817 8.55197 65.6325 9.50626 64.5359C10.0118 63.965 10.3502 63.2821 10.524 62.4872C10.5819 62.2009 10.6275 61.8642 10.6594 61.4838C10.6912 61.1058 10.7071 60.6672 10.7071 60.1679V58.6339C10.0246 57.6509 9.68132 56.4756 9.68132 55.106C9.68132 53.7597 10.0238 52.6093 10.7071 51.6426H10.7079L10.708 51.6427ZM7.61941 57.525C7.07783 58.2024 6.34192 58.5399 5.40865 58.5399C4.47649 58.5399 3.74695 58.2054 3.21843 57.5312C2.73546 56.9183 2.49351 56.1296 2.49351 55.1699C2.49351 54.193 2.73538 53.3981 3.21843 52.7853C3.75443 52.1 4.48318 51.7571 5.40865 51.7571C6.27518 51.7571 6.9872 52.0712 7.54287 52.6989C8.09226 53.3126 8.36799 54.1325 8.36799 55.1599C8.36799 56.1204 8.1179 56.9075 7.61933 57.5235V57.5251L7.61941 57.525ZM30.9788 49.8685V49.8607H25.9217V46.7636C25.9217 46.3653 25.5998 46.0433 25.2007 46.0433H24.2133C23.8113 46.0433 23.4846 46.37 23.4846 46.7729V49.8607H22.4428V52.1341H23.4831V61.2038H24.8737C25.4535 61.2038 25.9202 60.7371 25.9202 60.1569V52.1357H28.4208C28.6183 51.7585 28.8574 51.4108 29.1418 51.0927C29.6599 50.5264 30.2727 50.1189 30.9774 49.8686H30.979L30.9788 49.8685ZM43.4217 46.0433C42.9892 46.0433 42.6174 46.1997 42.3063 46.5117C41.9968 46.8219 41.8396 47.1913 41.8396 47.6168C41.8396 48.0657 41.9952 48.4421 42.3063 48.7556C42.6174 49.0658 42.9939 49.2207 43.4341 49.2207C43.8751 49.2207 44.2469 49.0659 44.5479 48.754C44.8589 48.4406 45.0162 48.0688 45.0162 47.627C45.0162 47.1869 44.8605 46.8135 44.5486 46.5117C44.236 46.1983 43.8603 46.042 43.4201 46.042L43.4217 46.0434V46.0433ZM43.9156 51.057H43.0312C42.5778 51.057 42.2083 51.4225 42.2083 51.8798V59.6203C42.395 59.8397 42.4844 60.0987 42.4844 60.3973C42.4844 60.696 42.3965 60.9574 42.2083 61.1775V61.6132H43.7779C44.2586 61.6132 44.6475 61.2227 44.6475 60.7419V51.7851C44.6475 51.3821 44.3193 51.0555 43.9148 51.0555L43.9156 51.0571L43.9156 51.057ZM55.376 52.5503C54.2778 51.4754 52.9408 50.9372 51.3658 50.9372C49.7978 50.9372 48.4678 51.4708 47.3774 52.5426C46.287 53.6096 45.7409 54.907 45.7409 56.4314C45.7409 58.0485 46.2745 59.3948 47.3447 60.4642C48.415 61.5477 49.7418 62.089 51.3222 62.089C52.9182 62.089 54.2653 61.5585 55.3643 60.4961C56.4524 59.4243 57 58.1013 57 56.5186C57 54.9498 56.4587 53.6276 55.376 52.5504V52.5503ZM53.651 58.9887C53.0817 59.604 52.3193 59.9081 51.3644 59.9081C50.4169 59.9081 49.6563 59.5993 49.0776 58.9762C48.5145 58.3634 48.2314 57.5265 48.2314 56.4734C48.2314 55.4919 48.5223 54.6892 49.0994 54.0685C49.6781 53.4463 50.4324 53.1359 51.3658 53.1359C52.3108 53.1359 53.0738 53.4463 53.6508 54.0685C54.2218 54.6814 54.508 55.5012 54.508 56.5264C54.508 57.5546 54.2202 58.3735 53.6509 58.9871V58.9903V58.9887H53.651Z" fill="#DE5959"/>
<path d="M31.8868 58.5623C31.3843 58.0536 31.1036 57.3598 31.039 56.4918H38.0281C38.347 56.4918 38.6099 56.2367 38.6146 55.9186C38.6146 54.1741 38.1666 52.8161 37.2714 51.8329C36.3668 50.8429 35.1363 50.3481 33.5854 50.3481C32.0486 50.3481 30.812 50.8575 29.8802 51.8765C28.9551 52.9109 28.493 54.2603 28.493 55.9302C28.493 57.6125 28.9711 58.9643 29.9223 59.9825C30.5881 60.6909 31.404 61.149 32.3723 61.3622C32.7783 61.4577 33.199 61.5084 33.6245 61.5022C35.3605 61.538 36.871 61.5737 38.6071 61.6095L38.6101 61.3544C38.3978 61.1235 38.2912 60.8443 38.2912 60.5207C38.2912 60.2049 38.4024 59.9335 38.6193 59.6986L38.6209 59.3898C37.2521 59.3556 33.9326 59.3229 33.8004 59.3229C33.0226 59.3229 32.3833 59.0717 31.8871 58.5639V58.5623L31.8868 58.5623ZM31.5477 53.6872C31.701 53.4475 31.8822 53.2454 32.0961 53.0758C32.3115 52.9031 32.5449 52.7755 32.8062 52.6854C33.066 52.5951 33.3444 52.55 33.6431 52.55C34.9405 52.55 35.7618 53.1988 36.1039 54.4992H31.2017C31.2818 54.1958 31.3968 53.9252 31.5478 53.6856V53.6872H31.5477Z" fill="#DE5959"/>
</svg>
