<svg width="141" height="19" viewBox="0 0 141 19" fill="none" xmlns="http://www.w3.org/2000/svg">
<path fill-rule="evenodd" clip-rule="evenodd" d="M27.4701 2.36729C27.6843 2.36729 27.7914 2.4807 27.7914 2.70752V7.92634H37.0066V2.70752C37.0066 2.4807 37.1137 2.36729 37.328 2.36729H38.8995C39.1319 2.36729 39.2384 2.4807 39.2384 2.70752V15.2628C39.2384 15.4896 39.1319 15.603 38.8995 15.603H37.328C37.1137 15.603 37.0066 15.4896 37.0066 15.2628V9.93056H27.7914V15.2628C27.7914 15.4896 27.6843 15.603 27.4701 15.603H25.8985C25.6843 15.603 25.5771 15.4896 25.5771 15.2628V2.70752C25.5771 2.4807 25.6843 2.36729 25.8985 2.36729H27.4701Z" fill="#FEFEFE"/>
<path fill-rule="evenodd" clip-rule="evenodd" d="M46.2609 10.9326H53.4047L50.1006 4.69317C50.0292 4.57912 49.9759 4.56053 49.8863 4.56053H49.7786C49.6897 4.56053 49.6364 4.57912 49.565 4.69317L46.2609 10.9326ZM50.172 2.36729C50.9399 2.36729 51.3865 2.61333 51.8864 3.55842L58.137 15.2249C58.2616 15.4518 58.2084 15.603 57.9584 15.603H56.1363C55.9578 15.603 55.8689 15.546 55.7793 15.3954L54.3687 12.7293H45.315L43.922 15.3954C43.8506 15.546 43.761 15.603 43.5643 15.603H41.689C41.4578 15.603 41.4039 15.4518 41.5105 15.2249L47.7253 3.55842C48.2252 2.61333 48.6718 2.36729 49.2975 2.36729H50.172Z" fill="#FEFEFE"/>
<path fill-rule="evenodd" clip-rule="evenodd" d="M61.5865 2.36729C61.8007 2.36729 61.9078 2.4807 61.9078 2.70752V10.3848C61.9078 12.6723 62.5862 13.4098 64.7114 13.4098H71.9442C72.1766 13.4098 72.2837 13.5232 72.2837 13.7506V15.2628C72.2837 15.4896 72.1766 15.603 71.9442 15.603H64.64C61.0503 15.603 59.6936 14.2414 59.6936 10.611V2.70752C59.6936 2.4807 59.8007 2.36729 60.0149 2.36729H61.5865Z" fill="#FEFEFE"/>
<path fill-rule="evenodd" clip-rule="evenodd" d="M76.9092 9.74156V13.24C76.9092 13.4104 76.9806 13.4854 77.1234 13.4854H84.9813C86.1601 13.4854 86.6418 13.0317 86.6418 12.0296V11.2165C86.6418 10.2708 86.1958 9.74156 84.6418 9.74156H76.9092ZM76.9092 8.0404H84.6418C86.1958 8.0404 86.6061 7.54831 86.6061 6.64039V5.9221C86.6061 4.93921 86.142 4.48493 84.9456 4.48493H77.1234C76.9806 4.48493 76.9092 4.57912 76.9092 4.73097V8.0404ZM85.3922 2.36729C87.8207 2.36729 88.749 3.38863 88.749 5.43002V6.35716C88.749 7.47271 88.3387 8.30503 87.4818 8.81505C88.4101 9.3065 88.8385 10.1388 88.8385 11.2921V12.4263C88.8385 14.3933 88.0167 15.603 85.6597 15.603H75.2311C74.8735 15.603 74.6949 15.4147 74.6949 15.036V2.93434C74.6949 2.55631 74.8735 2.36729 75.2311 2.36729H85.3922Z" fill="#FEFEFE"/>
<path fill-rule="evenodd" clip-rule="evenodd" d="M93.4667 10.4407C93.4667 12.7287 94.1457 13.447 96.271 13.447H101.557C103.7 13.447 104.361 12.7287 104.361 10.4407V7.52916C104.361 5.24111 103.7 4.52284 101.557 4.52284H96.271C94.1457 4.52284 93.4667 5.24111 93.4667 7.52916V10.4407ZM101.646 2.36676C105.236 2.36676 106.592 3.72832 106.592 7.35872V10.6111C106.592 14.2415 105.236 15.6031 101.646 15.6031H96.1995C92.6098 15.6031 91.2524 14.2415 91.2524 10.6111V7.35872C91.2524 3.72832 92.6098 2.36676 96.1995 2.36676H101.646Z" fill="#FEFEFE"/>
<path fill-rule="evenodd" clip-rule="evenodd" d="M111.489 9.38206H118.864C120.311 9.38206 120.847 8.7016 120.847 7.33939V6.52693C120.847 5.16539 120.311 4.48429 118.864 4.48429H111.703C111.56 4.48429 111.489 4.54131 111.489 4.71175V9.38206ZM119.293 2.36729C121.99 2.36729 123.079 3.70899 123.079 6.22389V7.26442C123.079 9.45767 122.257 10.7436 120.276 11.0461L123.507 15.1871C123.615 15.3198 123.579 15.603 123.311 15.603H121.454C121.204 15.603 121.114 15.5274 121.025 15.3954L117.972 11.2729H111.489V15.2628C111.489 15.4896 111.382 15.603 111.167 15.603H109.596C109.382 15.603 109.275 15.4896 109.275 15.2628V2.93434C109.275 2.55631 109.453 2.36729 109.811 2.36729H119.293Z" fill="#FEFEFE"/>
<path fill-rule="evenodd" clip-rule="evenodd" d="M128.743 2.36729C129.689 2.36729 129.903 2.57489 130.475 3.2938L138.243 13.2201C138.314 13.3156 138.386 13.3534 138.493 13.3534H138.671C138.779 13.3534 138.832 13.2964 138.832 13.1644V2.70752C138.832 2.4807 138.921 2.36729 139.154 2.36729H140.672C140.886 2.36729 140.993 2.4807 140.993 2.70752V13.9397C140.993 15.225 140.547 15.603 139.619 15.603H138.35C137.457 15.603 137.207 15.4332 136.618 14.6765L128.832 4.74955C128.76 4.65472 128.689 4.61756 128.582 4.61756H128.403C128.296 4.61756 128.26 4.67459 128.26 4.80658V15.2628C128.26 15.4896 128.153 15.603 127.922 15.603H126.403C126.188 15.603 126.082 15.4896 126.082 15.2628V4.03129C126.082 2.74532 126.529 2.36729 127.439 2.36729H128.743Z" fill="#FEFEFE"/>
<path fill-rule="evenodd" clip-rule="evenodd" d="M2.85176 17.9702H0.331912C0.0928777 17.9702 -0.0723283 17.6979 0.0317574 17.4775L8.22793 0.169246C8.27755 0.0648059 8.378 0.000732422 8.49117 0.000732422H11.0104C11.2494 0.000732422 11.4153 0.272405 11.3112 0.492819L3.115 17.801C3.06598 17.9055 2.96492 17.9702 2.85176 17.9702Z" fill="#8FC63E"/>
<path fill-rule="evenodd" clip-rule="evenodd" d="M10.6823 17.9703H8.07896C7.86837 17.9703 7.72131 17.73 7.8139 17.5353L16.0464 0.150143C16.0905 0.0572365 16.1789 0.000851631 16.2787 0.000851631H18.8821C19.0927 0.000851631 19.2397 0.241128 19.1472 0.435912L10.9147 17.821C10.8711 17.9133 10.7822 17.9703 10.6823 17.9703Z" fill="#8FC63E"/>
</svg>
