<svg width="149" height="19" viewBox="0 0 149 19" fill="none" xmlns="http://www.w3.org/2000/svg">
<g clip-path="url(#clip0_391_2792)">
<path d="M28.9715 12.7521L22.6038 1.7066C21.2078 -0.59557 17.8035 -0.620062 16.4565 1.80456L9.77047 13.2909C8.52138 15.3972 10.0643 18.0422 12.5624 18.0422H25.9591C28.4817 18.0422 30.3675 15.3236 28.9715 12.7521Z" fill="#00B897"/>
<path d="M19.789 13.6096L19.3971 12.9238C19.0298 12.287 18.2215 10.9155 18.2215 10.9155L12.8335 1.55995C11.4375 -0.521794 8.13124 -0.693233 6.73524 1.92732L0.465515 12.7769C-0.832515 15.0545 0.710426 18.018 3.52691 18.0425H16.85H22.532H25.9118C22.4586 18.067 21.3565 16.2791 19.789 13.6096Z" fill="#76FCB2"/>
<path d="M19.7892 13.6094L19.3974 12.9238C19.03 12.287 18.2218 10.9155 18.2218 10.9155L14.7441 4.79268L9.74788 13.3156C8.49886 15.4218 10.0418 18.0668 12.5399 18.0668H16.8258H22.5078H25.9121C22.4343 18.0424 21.3567 16.279 19.7892 13.6094Z" fill="url(#paint0_linear_391_2792)"/>
<path d="M147.06 17.185C146.153 17.185 145.443 16.9891 144.905 16.6462C144.34 16.2789 144.047 15.74 144.047 15.0053V4.32716H145.468C145.982 4.32716 146.423 4.74351 146.423 5.28232V14.6869C146.423 14.7114 146.423 15.1522 146.79 15.5196C147.01 15.74 147.28 15.8625 147.647 15.8625H147.916C148.015 15.8625 148.112 15.9605 148.112 16.0584V17.2095L147.06 17.185Z" fill="#00B897"/>
<path d="M116.447 17.1848C114.978 17.1848 113.778 16.793 112.871 16.0092C112.406 15.6174 112.088 15.1765 111.892 14.6867C111.696 14.1969 111.598 13.4866 111.598 12.5315C111.598 11.6009 111.696 10.8661 111.892 10.3762C112.063 9.91096 112.382 9.49456 112.847 9.10273C113.753 8.31902 114.953 7.92716 116.422 7.92716C117.892 7.92716 119.092 8.31902 119.998 9.10273C120.464 9.49456 120.782 9.93544 120.954 10.3762C121.15 10.8906 121.247 11.6009 121.247 12.5315C121.247 13.4866 121.15 14.1969 120.954 14.6867C120.758 15.1765 120.439 15.6174 119.973 16.0092C119.117 16.793 117.917 17.1848 116.447 17.1848ZM116.447 9.27417C114.83 9.27417 114.022 10.3762 114.022 12.556C114.022 14.7602 114.83 15.8623 116.447 15.8623C118.063 15.8623 118.872 14.7602 118.872 12.5805C118.872 10.3762 118.039 9.27417 116.447 9.27417Z" fill="#00B897"/>
<path d="M126.586 17.185C125.313 17.185 124.138 16.8421 123.134 16.1808C123.035 16.0828 122.839 15.9604 122.594 15.8135C122.546 15.789 122.497 15.7155 122.497 15.642V4.32714H123.942C124.456 4.32714 124.897 4.76798 124.897 5.28229V8.58859L125.338 8.34368C125.852 8.07429 126.538 7.95183 127.419 7.95183C128.962 7.95183 130.137 8.41716 130.922 9.3233C131.607 10.1315 131.95 11.2091 131.95 12.5317C131.95 13.8542 131.558 14.9318 130.774 15.7155C129.868 16.6952 128.448 17.185 126.586 17.185ZM126.831 9.27434C126.293 9.27434 125.68 9.47026 124.994 9.88666L124.897 9.93562V15.2502L124.994 15.3237C125.534 15.6665 126.17 15.838 126.831 15.838C127.713 15.838 128.399 15.4706 128.864 14.7359C129.256 14.1481 129.477 13.3889 129.477 12.5317C129.477 10.3764 128.57 9.27434 126.831 9.27434Z" fill="#00B897"/>
<path d="M137.607 17.1603C134.912 17.1603 133.223 15.397 133.223 12.5315C133.223 9.69057 134.888 7.92716 137.557 7.92716C138.586 7.92716 139.467 8.19657 140.178 8.71088L140.325 8.80884V8.0986H142.211C142.333 8.0986 142.407 8.19657 142.407 8.29453V16.9889H140.3V16.2051L140.153 16.3276C139.566 16.8664 138.635 17.1603 137.607 17.1603ZM138.096 9.49456C136.406 9.49456 135.402 10.7926 135.402 12.5315C135.402 14.2704 136.406 15.6174 138.096 15.6174C138.635 15.6174 139.566 15.5684 140.3 14.8336L140.325 14.8092V10.3518L140.3 10.3273C139.786 9.73953 139.027 9.49456 138.096 9.49456Z" fill="#00B897"/>
<path d="M50.5898 17.0626V4.30275H61.1945V5.11096C61.1945 5.74772 60.6802 6.26204 60.0435 6.26204H53.2349V9.69077H60.0435V11.6501H53.2349V15.0788H60.0435C60.6802 15.0788 61.1945 15.5931 61.1945 16.2299V17.0382L50.5898 17.0626Z" fill="white"/>
<path d="M76.4308 4.30275H73.9327C73.4673 4.30275 73.051 4.49868 72.7571 4.86604L69.7447 8.66217L66.7322 4.89054C66.4384 4.52317 66.022 4.32724 65.5567 4.32724H63.0586L68.1282 10.6949L63.0586 17.0626H65.5567C66.022 17.0626 66.4384 16.8667 66.7322 16.4994L69.7447 12.7277L72.7816 16.5238C73.0755 16.8667 73.4919 17.0871 73.9571 17.0871H76.4553L71.3856 10.7194L76.4308 4.30275Z" fill="white"/>
<path d="M42.2858 15.7164L45.7636 9.64262V17.039H48.4087V4.27907H46.7677C46.2534 4.27907 45.7636 4.54847 45.5187 5.0138L41.3552 12.606L37.1917 5.0138C36.9467 4.54847 36.4569 4.27907 35.9426 4.27907H34.3017V17.039H36.9467V9.64262L40.4245 15.7164H42.2858Z" fill="white"/>
<path d="M83.334 17.2097C79.6604 17.2587 76.6725 14.3687 76.648 10.695C76.648 8.68676 77.2602 7.02135 78.4113 5.87028C79.5624 4.74369 81.2278 4.1314 83.2116 4.1314C85.5382 4.1314 87.3751 4.93961 88.6976 6.50705L87.8649 7.21729C87.3506 7.65812 86.5913 7.68262 86.0281 7.26627C85.2934 6.70297 84.3626 6.43357 83.3095 6.43357C80.7135 6.43357 79.1705 8.001 79.1705 10.6461C79.1705 13.3156 80.7624 14.9565 83.3095 14.9565C84.3871 14.9565 85.2934 14.6626 86.0281 14.1238C86.5669 13.7074 87.326 13.732 87.8649 14.1728L88.6976 14.883C87.3751 16.4259 85.6118 17.2097 83.334 17.2097Z" fill="white"/>
<path d="M99.6186 17.2095C95.5042 17.2095 92.957 14.7114 92.957 10.6948C92.957 6.67828 95.5042 4.18019 99.5698 4.18019C101.529 4.18019 103.17 4.74348 104.443 5.89457L103.831 6.58032C103.562 6.87422 103.17 7.04566 102.778 7.04566C102.558 7.04566 102.337 6.99667 102.141 6.89871C101.382 6.50684 100.5 6.31092 99.5698 6.31092C96.9242 6.31092 95.2834 8.00081 95.2834 10.7194C95.2834 13.4623 96.9978 15.1522 99.741 15.1522C101.063 15.1522 102.092 14.9073 102.851 14.3685L102.9 14.344V11.7234H99.9857V10.8662C99.9857 10.2295 100.5 9.7152 101.137 9.7152H104.737C104.835 9.7152 104.933 9.81312 104.933 9.91112V15.5686C103.684 16.6462 101.896 17.2095 99.6186 17.2095Z" fill="#00B897"/>
<path d="M109.661 17.185C108.755 17.185 108.044 16.9891 107.506 16.6462C106.943 16.2789 106.648 15.74 106.648 15.0053V4.32716H108.069C108.584 4.32716 109.024 4.74351 109.024 5.28232V14.6869C109.024 14.7114 109.024 15.1522 109.392 15.5196C109.612 15.74 109.881 15.8625 110.248 15.8625H110.518C110.616 15.8625 110.714 15.9605 110.714 16.0584V17.2095L109.661 17.185Z" fill="#00B897"/>
</g>
<defs>
<linearGradient id="paint0_linear_391_2792" x1="7.96976" y1="9.44312" x2="23.4477" y2="15.1627" gradientUnits="userSpaceOnUse">
<stop stop-color="#53E57A" stop-opacity="0"/>
<stop offset="1" stop-color="#00A977"/>
</linearGradient>
<clipPath id="clip0_391_2792">
<rect width="149" height="18.625" fill="white"/>
</clipPath>
</defs>
</svg>
