<svg width="491" height="128" viewBox="0 0 491 128" fill="none" xmlns="http://www.w3.org/2000/svg">
<path d="M111.319 20.922C110.203 19.6971 108.298 19.7017 107.127 20.8733L102.338 25.662C101.169 26.8307 101.173 28.7189 102.269 29.9566C110.284 39.0135 115.2 50.9332 115.2 64C115.2 77.5791 109.806 90.602 100.204 100.204C90.602 109.806 77.5791 115.2 64 115.2C50.4209 115.2 37.398 109.806 27.7961 100.204C18.1943 90.602 12.8 77.5791 12.8 64C12.8 38.2763 31.7438 17.0246 56.4761 13.4C57.0708 13.3129 57.6 13.7786 57.6 14.3797V26.176C39.424 29.248 25.6 44.992 25.6 64C25.6 74.1843 29.6457 83.9515 36.8471 91.1529C44.0485 98.3543 53.8157 102.4 64 102.4C74.1843 102.4 83.9515 98.3543 91.1529 91.1529C98.3543 83.9515 102.4 74.1843 102.4 64C102.4 54.4528 98.9372 45.7326 93.1727 39.0469C92.0943 37.7961 90.1922 37.8078 89.0244 38.9756L86.624 41.376L84.2187 43.7813C83.0529 44.9471 83.062 46.8258 84.0802 48.1227C87.5253 52.5106 89.6 58.0248 89.6 64C89.6 70.7895 86.9029 77.301 82.1019 82.1019C77.301 86.9029 70.7895 89.6 64 89.6C57.2105 89.6 50.699 86.9029 45.8981 82.1019C41.0971 77.301 38.4 70.7895 38.4 64C38.4 52.5492 45.9801 42.9343 56.3552 39.6553C56.9798 39.4579 57.6 39.9362 57.6 40.5913V52.992C53.76 55.232 51.2 59.264 51.2 64C51.2 67.3948 52.5486 70.6505 54.949 73.051C57.3495 75.4514 60.6052 76.8 64 76.8C67.3948 76.8 70.6505 75.4514 73.051 73.051C75.4514 70.6505 76.8 67.3948 76.8 64C76.8 59.264 74.24 55.168 70.4 52.992V3C70.4 1.34315 69.0569 0 67.4 0H64C55.5954 0 47.2731 1.65541 39.5083 4.87171C31.7434 8.08801 24.6881 12.8022 18.7452 18.7452C6.74284 30.7475 0 47.0261 0 64C0 80.9739 6.74284 97.2525 18.7452 109.255C24.6881 115.198 31.7434 119.912 39.5083 123.128C47.2731 126.345 55.5954 128 64 128C80.9739 128 97.2525 121.257 109.255 109.255C121.257 97.2525 128 80.9739 128 64C128 47.4142 121.68 32.2954 111.319 20.922Z" fill="url(#paint0_linear_798_8050)"/>
<path d="M185.64 106.92C176.84 106.92 169.96 104.48 165 99.6C160.04 94.64 157.56 87.76 157.56 78.96H173.88C173.88 83.12 174.92 86.4 177 88.8C179.16 91.12 182.12 92.28 185.88 92.28H199.2C202.72 92.28 205.56 91.56 207.72 90.12C209.96 88.6 211.08 86.6 211.08 84.12V80.04C211.08 76.12 208.2 73.68 202.44 72.72L180.36 69C173.16 67.8 167.68 65.52 163.92 62.16C160.24 58.72 158.4 54.36 158.4 49.08V42.36C158.4 38.12 159.52 34.4 161.76 31.2C164.08 27.92 167.32 25.4 171.48 23.64C175.72 21.88 180.6 21 186.12 21H199.68C204.88 21 209.48 22.08 213.48 24.24C217.48 26.4 220.56 29.44 222.72 33.36C224.96 37.2 226.08 41.68 226.08 46.8H209.76C209.76 43.44 208.84 40.76 207 38.76C205.16 36.68 202.72 35.64 199.68 35.64H186.12C182.76 35.64 180.04 36.36 177.96 37.8C175.96 39.24 174.96 41.16 174.96 43.56V46.8C174.96 50.8 177.72 53.28 183.24 54.24L205.2 58.08C212.48 59.36 218.04 61.64 221.88 64.92C225.72 68.12 227.64 72.28 227.64 77.4V85.32C227.64 89.56 226.44 93.32 224.04 96.6C221.72 99.88 218.44 102.44 214.2 104.28C209.96 106.04 205.04 106.92 199.44 106.92H185.64Z" fill="white"/>
<path d="M261.87 106.92C256.83 106.92 252.35 105.96 248.43 104.04C244.59 102.04 241.59 99.2401 239.43 95.6401C237.35 92.0401 236.31 87.8801 236.31 83.1601V69.1201C236.31 64.4001 237.39 60.2401 239.55 56.6401C241.71 52.9601 244.71 50.1201 248.55 48.1201C252.47 46.1201 256.95 45.1201 261.99 45.1201H272.79C277.83 45.1201 282.27 46.1201 286.11 48.1201C290.03 50.1201 293.07 52.9601 295.23 56.6401C297.39 60.2401 298.47 64.4001 298.47 69.1201V83.1601C298.47 87.8801 297.39 92.0401 295.23 95.6401C293.07 99.2401 290.03 102.04 286.11 104.04C282.27 105.96 277.79 106.92 272.67 106.92H261.87ZM272.43 92.8801C275.39 92.8801 277.75 91.8801 279.51 89.8801C281.27 87.8001 282.15 85.1201 282.15 81.8401V70.2001C282.15 66.9201 281.27 64.2801 279.51 62.2801C277.75 60.2001 275.43 59.1601 272.55 59.1601H262.23C259.35 59.1601 257.03 60.2001 255.27 62.2801C253.51 64.2801 252.63 66.9201 252.63 70.2001V81.8401C252.63 85.1201 253.51 87.8001 255.27 89.8801C257.03 91.8801 259.31 92.8801 262.11 92.8801H272.43Z" fill="white"/>
<path d="M309.96 46.0801H325.08V53.2801C326.84 50.8001 329.12 48.8401 331.92 47.4001C334.72 45.8801 337.52 45.1201 340.32 45.1201H347.52C353.92 45.1201 359.04 47.1201 362.88 51.1201C366.8 55.1201 368.76 60.4001 368.76 66.9601V105.96H352.44V67.5601C352.44 65.0801 351.76 63.0801 350.4 61.5601C349.12 60.0401 347.44 59.2801 345.36 59.2801H338.16C335.36 59.2801 332.84 60.3201 330.6 62.4001C328.44 64.4001 327 67.0401 326.28 70.3201V105.96H309.96V46.0801Z" fill="white"/>
<path d="M400.873 106.92C394.633 106.92 389.593 105.36 385.753 102.24C381.913 99.1201 379.993 95.0001 379.993 89.8801V85.4401C379.993 80.4001 381.993 76.3601 385.993 73.3201C389.993 70.2001 395.273 68.6401 401.833 68.6401H409.153C411.233 68.6401 413.473 68.9201 415.873 69.4801C418.273 70.0401 420.473 70.8001 422.473 71.7601V65.5201C422.473 63.5201 421.793 61.9201 420.433 60.7201C419.153 59.4401 417.433 58.8001 415.273 58.8001H404.953C402.713 58.8001 400.913 59.3201 399.553 60.3601C398.193 61.4001 397.513 62.8001 397.513 64.5601H381.673C381.673 58.7201 383.793 54.0401 388.033 50.5201C392.353 46.9201 397.993 45.1201 404.953 45.1201H415.273C422.313 45.1201 427.993 47.0001 432.313 50.7601C436.633 54.4401 438.793 59.3601 438.793 65.5201V105.96H423.673V98.7601C421.753 101.24 419.393 103.24 416.593 104.76C413.793 106.2 411.033 106.92 408.313 106.92H400.873ZM409.513 94.4401C412.473 94.4401 415.113 93.6801 417.433 92.1601C419.753 90.6401 421.433 88.6001 422.473 86.0401V84.0001C421.193 83.0401 419.393 82.2801 417.073 81.7201C414.833 81.1601 412.433 80.8801 409.873 80.8801H402.313C400.393 80.8801 398.833 81.3601 397.633 82.3201C396.433 83.2801 395.833 84.5601 395.833 86.1601V89.2801C395.833 90.8001 396.473 92.0401 397.753 93.0001C399.113 93.9601 400.873 94.4401 403.033 94.4401H409.513Z" fill="white"/>
<path d="M451.991 46.0798H467.111V53.7598C468.631 51.4398 470.791 49.5598 473.591 48.1198C476.471 46.5998 479.471 45.8398 482.591 45.8398H490.751V59.9998H482.591C478.351 59.9998 474.911 61.2798 472.271 63.8398C469.631 66.3998 468.311 69.6798 468.311 73.6798V105.96H451.991V46.0798Z" fill="white"/>
<defs>
<linearGradient id="paint0_linear_798_8050" x1="106.523" y1="0.134679" x2="-7.18831" y2="114.681" gradientUnits="userSpaceOnUse">
<stop offset="0.0416667" stop-color="#00F299"/>
<stop offset="0.489583" stop-color="#6787CB"/>
<stop offset="0.59375" stop-color="#7F6ED7"/>
<stop offset="0.640625" stop-color="#8A63DC"/>
<stop offset="0.947917" stop-color="#D119FF"/>
</linearGradient>
</defs>
</svg>
